<?xml version="1.0" encoding="UTF-8"?>
<!DOCTYPE svg PUBLIC "-//W3C//DTD SVG 1.1//EN" "http://www.w3.org/Graphics/SVG/1.1/DTD/svg11.dtd">
<!-- Creator: CorelDRAW 2018 (64-Bit) -->
<svg xmlns="http://www.w3.org/2000/svg" xml:space="preserve" width="33.3997mm" height="18.2203mm" version="1.1" style="shape-rendering:geometricPrecision; text-rendering:geometricPrecision; image-rendering:optimizeQuality; fill-rule:evenodd; clip-rule:evenodd"
viewBox="0 0 508.23 277.25"
 xmlns:xlink="http://www.w3.org/1999/xlink">
 <defs>
  <style type="text/css">
   <![CDATA[
    .fil0 {fill:#B0CB1F}
    .fil1 {fill:#E51A4B;fill-rule:nonzero}
   ]]>
  </style>
 </defs>
 <g id="Слой_x0020_1">
  <metadata id="CorelCorpID_0Corel-Layer"/>
  <g id="_2152620425664">
   <path class="fil0" d="M351.39 163.12l0 66.09 -23.66 0 0 -46.73 -16.86 0 0 18.93c0,10.06 -2.31,17.5 -6.95,22.33 -4.14,4.24 -10.35,6.36 -18.63,6.36 -3.05,0 -6.21,-0.3 -9.46,-0.89l0 -17.15c4.14,0.49 7.24,-0.35 9.32,-2.51 1.97,-2.07 2.96,-5.62 2.96,-10.65l0 -35.78 63.29 0zm86.35 34.89l0 2.51 -49.23 0c0,4.63 1.38,8.33 4.14,11.09 2.17,2.17 5.42,3.25 9.76,3.25 2.96,0 5.52,-0.59 7.69,-1.77 1.87,-1.09 3.25,-2.56 4.14,-4.44l22.63 0c-1.48,5.32 -4.14,9.86 -7.99,13.6 -6.31,6.11 -15.28,9.17 -26.91,9.17 -11.53,0 -20.65,-3.35 -27.35,-10.06 -6.51,-6.51 -9.76,-14.84 -9.76,-24.99 0,-10.65 3.3,-19.17 9.91,-25.58 6.61,-6.41 15.63,-9.61 27.06,-9.61 10.55,0 19.03,3.01 25.43,9.02 7,6.7 10.5,15.97 10.5,27.8zm-48.5 -11.09l26.77 0c-0.69,-2.86 -1.98,-5.23 -3.85,-7.1 -2.36,-2.36 -5.61,-3.55 -9.76,-3.55 -4.04,0 -7.25,1.18 -9.61,3.55 -1.97,2.17 -3.15,4.54 -3.55,7.1zm72.6 42.29l0 -46.73 -17.16 0 0 -19.37 57.97 0 0 19.37 -17.15 0 0 46.73 -23.66 0z"/>
   <path class="fil1" d="M351.39 163.12l0 66.1 -23.66 0 0 -46.73 -16.86 0 0 18.93c0,10.06 -2.32,17.5 -6.95,22.33 -4.14,4.24 -10.35,6.36 -18.63,6.36 -3.06,0 -6.21,-0.3 -9.46,-0.89l0 -17.15c4.14,0.49 7.24,-0.35 9.31,-2.51 1.97,-2.07 2.96,-5.62 2.96,-10.65l0 -35.78 63.29 0zm86.35 34.9l0 2.51 -49.24 0c0,4.63 1.38,8.33 4.14,11.09 2.17,2.17 5.42,3.25 9.76,3.25 2.96,0 5.52,-0.59 7.69,-1.77 1.87,-1.08 3.25,-2.56 4.14,-4.44l22.62 0c-1.48,5.32 -4.14,9.86 -7.99,13.61 -6.31,6.11 -15.28,9.17 -26.91,9.17 -11.53,0 -20.65,-3.35 -27.35,-10.05 -6.51,-6.51 -9.76,-14.84 -9.76,-24.99 0,-10.65 3.3,-19.17 9.91,-25.58 6.61,-6.41 15.62,-9.61 27.06,-9.61 10.55,0 19.03,3.01 25.43,9.02 7,6.7 10.5,15.97 10.5,27.8zm-48.5 -11.09l26.76 0c-0.69,-2.86 -1.97,-5.23 -3.85,-7.1 -2.36,-2.36 -5.62,-3.55 -9.76,-3.55 -4.04,0 -7.25,1.18 -9.61,3.55 -1.97,2.17 -3.16,4.53 -3.55,7.1zm72.6 42.29l0 -46.73 -17.15 0 0 -19.37 57.96 0 0 19.37 -17.15 0 0 46.73 -23.66 0z"/>
  </g>
  <g id="_2152620426208">
   <path class="fil0" d="M32.11 230.51l0 -175.75 -32.11 0 0 -49.69 90.58 0 0 225.44 -58.47 0zm198.38 -118.64c11.26,3.38 20.96,9.13 29.07,17.24 11.49,11.27 17.24,24.56 17.24,39.88 0,16.22 -6.09,30.42 -18.25,42.59 -16,16 -38.75,24 -68.28,24 -29.07,0 -51.48,-7.89 -67.26,-23.66 -12.4,-12.39 -18.59,-26.7 -18.59,-42.92 0,-7.21 1.58,-14.59 4.73,-22.14 3.15,-7.55 7.1,-13.69 11.83,-18.42 7.44,-7.43 16.9,-12.96 28.39,-16.56 -8.12,-3.15 -14.88,-7.43 -20.28,-12.84 -10.14,-10.14 -15.21,-22.08 -15.21,-35.83 0,-16.68 6.2,-30.87 18.59,-42.59 14.87,-13.74 34.92,-20.62 60.16,-20.62 24.79,0 44.16,7.21 58.13,21.63 11.04,11.04 16.56,24.78 16.56,41.23 0,14.2 -4.62,25.91 -13.86,35.15 -6.08,6.09 -13.75,10.7 -22.98,13.86zm-39.21 -72.67c-7.66,0 -13.86,2.59 -18.59,7.77 -4.51,4.96 -6.76,10.7 -6.76,17.24 0,5.63 2.37,11.04 7.1,16.23 4.73,4.95 10.7,7.43 17.91,7.43 6.53,0 12.06,-2.26 16.56,-6.76 5.18,-5.18 7.77,-10.93 7.77,-17.24 0,-7.21 -2.59,-13.18 -7.77,-17.91 -4.96,-4.5 -10.37,-6.76 -16.23,-6.76zm-0.67 96.33c-6.98,0 -13.29,2.59 -18.93,7.77 -5.41,5.41 -8.11,11.6 -8.11,18.59 0,7.44 2.59,13.74 7.77,18.93 5.41,5.41 11.83,8.11 19.27,8.11 7.43,0 13.74,-2.59 18.93,-7.77 5.41,-5.41 8.11,-11.83 8.11,-19.27 0,-7.43 -2.7,-13.63 -8.11,-18.59 -5.41,-5.18 -11.72,-7.77 -18.93,-7.77zm-146.36 -80.78l0 163.62 34.21 0 0 -201.18 -66.31 0 0 25.42 19.98 0 12.13 0 0 12.13zm195.8 74.39c-3.99,-2.36 -8.33,-4.25 -13.02,-5.66l-36.16 -10.87 35.73 -12.21c3.75,-1.28 7.19,-2.86 10.3,-4.74 2.95,-1.78 5.61,-3.86 7.98,-6.23 6.87,-6.87 10.31,-15.73 10.31,-26.57 0,-6.72 -1.09,-12.77 -3.24,-18.14 -2.12,-5.28 -5.38,-10.12 -9.78,-14.51l-0.09 -0.15c-5.73,-5.92 -12.59,-10.37 -20.55,-13.33 -8.24,-3.06 -17.88,-4.6 -28.91,-4.6 -22.09,0 -39.38,5.76 -51.89,17.28l0.02 0.02c-9.83,9.29 -14.75,20.56 -14.75,33.77 0,10.39 3.89,19.48 11.66,27.25 4.25,4.25 9.61,7.64 16.06,10.14l32.2 12.52 -32.96 10.32c-4.87,1.52 -9.28,3.45 -13.22,5.73l0.02 0.02c-3.81,2.22 -7.23,4.84 -10.21,7.83 -1.8,1.8 -3.45,3.85 -4.9,6.11 -1.58,2.47 -3.03,5.27 -4.33,8.37 -2.52,6.04 -3.79,11.88 -3.79,17.5 0,12.91 5,24.36 14.99,34.34l0.05 0c13.4,13.4 32.96,20.11 58.68,20.11 13.45,0 25.19,-1.77 35.23,-5.29 9.57,-3.36 17.73,-8.42 24.47,-15.15l0.02 0.02c4.97,-4.99 8.69,-10.32 11.11,-15.96 2.37,-5.55 3.57,-11.58 3.57,-18.07 0,-6.08 -1.09,-11.64 -3.27,-16.68 -2.23,-5.16 -5.67,-10.03 -10.32,-14.58l-0.1 -0.04c-3.37,-3.37 -7.03,-6.23 -10.93,-8.55zm-76.31 -90.32c7.15,-7.83 16.34,-11.75 27.55,-11.75 4.5,0 8.88,0.88 13.09,2.64 4,1.68 7.77,4.11 11.28,7.3 7.83,7.15 11.75,16.11 11.75,26.87 0,9.65 -3.78,18.27 -11.33,25.82 -3.35,3.35 -7.2,5.92 -11.51,7.68l-0.04 0c-4.3,1.75 -8.83,2.64 -13.59,2.64 -5.18,0 -10.03,-0.94 -14.53,-2.8 -4.54,-1.89 -8.6,-4.7 -12.15,-8.42l-0.14 -0.19c-3.29,-3.61 -5.8,-7.37 -7.5,-11.26 -1.88,-4.28 -2.82,-8.67 -2.82,-13.11 0,-4.75 0.85,-9.29 2.54,-13.62 1.67,-4.27 4.14,-8.21 7.39,-11.77zm-0.25 95.57c7.96,-7.33 17.02,-11 27.13,-11 10.43,0 19.54,3.73 27.32,11.19l-0.01 0.01c7.91,7.35 11.87,16.46 11.87,27.3 0,5.26 -1.01,10.29 -3.02,15.07l0.04 0.02c-1.97,4.68 -4.87,8.94 -8.69,12.76 -7.55,7.55 -16.72,11.33 -27.51,11.33 -10.78,0 -20.07,-3.89 -27.85,-11.67 -3.69,-3.69 -6.5,-7.9 -8.43,-12.6 -1.93,-4.69 -2.89,-9.66 -2.89,-14.9 0,-5.12 1.02,-10.04 3.07,-14.72 1.98,-4.55 4.85,-8.71 8.59,-12.45l0.38 -0.33z"/>
   <path class="fil1" d="M32.11 230.51l0 -175.75 -32.11 0 0 -49.68 90.58 0 0 225.44 -58.47 0zm198.38 -118.63c11.27,3.38 20.96,9.13 29.07,17.24 11.49,11.27 17.24,24.56 17.24,39.88 0,16.22 -6.09,30.42 -18.25,42.59 -16,16 -38.76,24 -68.27,24 -29.07,0 -51.49,-7.89 -67.26,-23.66 -12.39,-12.39 -18.59,-26.7 -18.59,-42.93 0,-7.21 1.58,-14.59 4.73,-22.14 3.15,-7.55 7.1,-13.69 11.83,-18.42 7.44,-7.43 16.9,-12.96 28.39,-16.56 -8.11,-3.16 -14.87,-7.44 -20.28,-12.84 -10.14,-10.14 -15.21,-22.08 -15.21,-35.83 0,-16.67 6.2,-30.87 18.59,-42.59 14.87,-13.75 34.93,-20.62 60.16,-20.62 24.79,0 44.16,7.21 58.13,21.63 11.04,11.04 16.56,24.79 16.56,41.24 0,14.2 -4.62,25.91 -13.86,35.15 -6.08,6.09 -13.75,10.7 -22.98,13.86zm-39.21 -72.67c-7.66,0 -13.86,2.59 -18.59,7.77 -4.51,4.96 -6.76,10.7 -6.76,17.24 0,5.63 2.37,11.04 7.1,16.22 4.73,4.96 10.7,7.44 17.91,7.44 6.53,0 12.05,-2.25 16.56,-6.76 5.18,-5.18 7.77,-10.93 7.77,-17.24 0,-7.21 -2.59,-13.18 -7.77,-17.91 -4.96,-4.51 -10.37,-6.76 -16.22,-6.76zm-0.68 96.33c-6.98,0 -13.29,2.59 -18.93,7.77 -5.41,5.41 -8.11,11.61 -8.11,18.59 0,7.44 2.59,13.75 7.77,18.93 5.41,5.41 11.83,8.11 19.27,8.11 7.44,0 13.75,-2.59 18.93,-7.77 5.41,-5.41 8.11,-11.83 8.11,-19.27 0,-7.44 -2.71,-13.63 -8.11,-18.59 -5.41,-5.18 -11.72,-7.77 -18.93,-7.77z"/>
  </g>
  <g id="_2152620426144">
   <path class="fil0" d="M320.45 132.8c-3.65,8.57 -9.3,12.84 -16.94,12.84 -4.64,0 -8.41,-1.66 -11.34,-5.02 -2.91,-3.35 -4.36,-7.9 -4.36,-13.68 0,-7.2 1.87,-13.39 5.61,-18.55 3.74,-5.17 8.55,-7.75 14.41,-7.75 4.58,0 8.19,1.32 10.87,3.97 2.67,2.66 4.2,6.32 4.57,11.03l-6.94 1.25c-0.63,-6.56 -3.51,-9.84 -8.65,-9.84 -4.15,0 -7.14,2.47 -8.97,7.39 -1.83,4.93 -2.74,9.62 -2.74,14.07 0,3.46 0.76,6.07 2.3,7.82 1.53,1.76 3.5,2.64 5.87,2.64 2.19,0 4.18,-0.85 5.96,-2.55 1.79,-1.71 3.15,-3.78 4.1,-6.22l6.26 2.6zm20.18 11.72l7.14 -42.76 14.98 0c2.69,0 4.91,0.27 6.65,0.81 1.75,0.54 3.3,1.7 4.65,3.47 1.36,1.76 2.04,3.88 2.04,6.34 0,5.08 -2.67,8.46 -8.02,10.15 4.45,1.97 6.67,5.2 6.67,9.69 0,2.94 -1.03,5.73 -3.09,8.36 -2.05,2.63 -6.06,3.95 -12.01,3.95l-19.02 0zm11.85 -25.06l7.61 0c3.36,0 5.59,-0.66 6.68,-1.99 1.1,-1.33 1.65,-2.72 1.65,-4.18 0,-3.74 -2.41,-5.6 -7.21,-5.6l-6.77 0 -1.97 11.77zm-3.13 18.76l8.7 0c2.3,0 4,-0.19 5.11,-0.58 1.1,-0.38 2.02,-1.12 2.76,-2.19 0.73,-1.08 1.09,-2.4 1.09,-3.97 0,-1.42 -0.37,-2.63 -1.15,-3.64 -0.76,-1.02 -1.63,-1.68 -2.6,-2.01 -0.98,-0.32 -2.3,-0.48 -3.99,-0.48l-7.78 0 -2.16 12.87zm63.78 6.3l-8.55 0 -1.75 -10.34 -15.51 0 -4.77 10.34 -7.23 0 20.49 -42.76 9.48 0 7.84 42.76zm-11.03 -16.28l-3.35 -18.99 -8.8 18.99 12.15 0zm56.65 16.28l-7.68 0 6.51 -38.94 -18.23 38.94 -4.16 0 -5.78 -38.59 -6.44 38.59 -5.99 0 7.14 -42.76 11.75 0 4.42 28.72 13.06 -28.72 12.53 0 -7.14 42.76zm17.63 -3.48l-0.6 3.48 -7.64 0 7.14 -42.76 7.68 0 -3.95 23.56c-0.35,2.13 -0.78,4.28 -1.28,6.46 1.73,-2.63 3.95,-5.46 6.64,-8.49l15.7 -17.64 0.65 -3.88 7.52 0 -7.14 42.76 -7.55 0 3.64 -21.71c0.33,-1.96 0.88,-4.59 1.64,-7.87 -1.59,2.3 -3.88,5.13 -6.86,8.49l-15.57 17.61z"/>
   <path class="fil1" d="M320.46 132.8c-3.65,8.56 -9.3,12.84 -16.94,12.84 -4.64,0 -8.41,-1.67 -11.33,-5.03 -2.91,-3.35 -4.36,-7.9 -4.36,-13.68 0,-7.2 1.87,-13.39 5.6,-18.55 3.74,-5.18 8.55,-7.75 14.41,-7.75 4.58,0 8.19,1.33 10.86,3.98 2.67,2.65 4.2,6.32 4.58,11.02l-6.95 1.25c-0.63,-6.56 -3.51,-9.84 -8.65,-9.84 -4.15,0 -7.14,2.47 -8.97,7.39 -1.83,4.93 -2.74,9.62 -2.74,14.07 0,3.46 0.76,6.07 2.3,7.83 1.53,1.75 3.5,2.63 5.87,2.63 2.19,0 4.18,-0.85 5.97,-2.55 1.78,-1.71 3.15,-3.78 4.1,-6.22l6.26 2.6zm20.18 11.72l7.14 -42.76 14.98 0c2.69,0 4.91,0.27 6.65,0.81 1.74,0.54 3.29,1.7 4.65,3.46 1.36,1.76 2.04,3.88 2.04,6.34 0,5.08 -2.67,8.46 -8.02,10.15 4.45,1.97 6.67,5.2 6.67,9.69 0,2.94 -1.03,5.73 -3.09,8.36 -2.05,2.63 -6.06,3.94 -12.01,3.94l-19.02 0zm11.85 -25.06l7.61 0c3.36,0 5.59,-0.66 6.68,-1.99 1.1,-1.32 1.65,-2.71 1.65,-4.18 0,-3.74 -2.41,-5.6 -7.21,-5.6l-6.77 0 -1.97 11.77zm-3.13 18.77l8.7 0c2.3,0 4,-0.19 5.11,-0.58 1.1,-0.38 2.02,-1.12 2.76,-2.19 0.73,-1.08 1.09,-2.4 1.09,-3.97 0,-1.42 -0.37,-2.63 -1.14,-3.65 -0.76,-1.02 -1.63,-1.68 -2.6,-2.01 -0.97,-0.32 -2.3,-0.48 -3.99,-0.48l-7.77 0 -2.16 12.87zm63.78 6.3l-8.55 0 -1.75 -10.34 -15.5 0 -4.77 10.34 -7.23 0 20.49 -42.76 9.48 0 7.84 42.76zm-11.04 -16.28l-3.35 -18.99 -8.8 18.99 12.15 0zm56.65 16.28l-7.68 0 6.51 -38.94 -18.23 38.94 -4.16 0 -5.77 -38.59 -6.45 38.59 -5.99 0 7.14 -42.76 11.75 0 4.42 28.72 13.07 -28.72 12.53 0 -7.14 42.76zm17.63 -3.48l-0.6 3.48 -7.64 0 7.14 -42.76 7.68 0 -3.95 23.56c-0.35,2.13 -0.78,4.28 -1.28,6.46 1.73,-2.63 3.95,-5.46 6.64,-8.49l15.7 -17.64 0.65 -3.88 7.52 0 -7.14 42.76 -7.55 0 3.64 -21.7c0.33,-1.97 0.88,-4.59 1.64,-7.87 -1.59,2.3 -3.88,5.13 -6.86,8.49l-15.57 17.61z"/>
  </g>
  <g id="_2152620429600">
   <path class="fil0" d="M33.61 276.47l-5.16 0 2.09 -12.43 -11.24 0 -2.08 12.43 -5.13 0 4.79 -28.72 5.16 0 -1.98 11.76 11.23 0 1.98 -11.76 5.12 0 -4.79 28.72zm28.7 0l-5.75 0 -1.18 -6.94 -10.41 0 -3.2 6.94 -4.85 0 13.76 -28.72 6.37 0 5.26 28.72zm-7.41 -10.93l-2.25 -12.75 -5.91 12.75 8.16 0zm26.12 10.93l-5.37 0 4.79 -28.72 7.71 0c2.49,0 4.31,0.05 5.46,0.16 1.15,0.11 2.28,0.48 3.37,1.13 1.09,0.64 1.98,1.57 2.65,2.79 0.68,1.21 1.01,2.57 1.01,4.07 0,1.99 -0.55,3.76 -1.63,5.3 -1.08,1.53 -2.36,2.55 -3.8,3.03 -1.46,0.49 -3.23,0.73 -5.34,0.73l-6.92 0 -1.93 11.51zm4.1 -24.53l-1.45 8.79 5.09 0c1.8,0 3.04,-0.12 3.76,-0.35 0.72,-0.23 1.35,-0.73 1.9,-1.52 0.54,-0.77 0.82,-1.71 0.82,-2.82 0,-1.04 -0.25,-1.89 -0.74,-2.56 -0.49,-0.66 -1.07,-1.09 -1.75,-1.27 -0.66,-0.18 -1.87,-0.27 -3.62,-0.27l-4.01 0zm17.08 12.31c0,-4.4 1.23,-8.4 3.7,-11.96 2.47,-3.57 5.77,-5.35 9.91,-5.35 3.46,0 6.17,1.15 8.15,3.47 1.99,2.31 2.98,5.49 2.98,9.53 0,4.51 -1.26,8.53 -3.77,12.04 -2.51,3.52 -5.85,5.27 -10.02,5.27 -3.04,0 -5.63,-1.18 -7.76,-3.56 -2.13,-2.38 -3.2,-5.52 -3.2,-9.43zm5.45 0.9c0,2.81 0.55,4.81 1.66,6 1.11,1.19 2.46,1.79 4.04,1.79 2.78,0 4.81,-1.53 6.12,-4.61 1.31,-3.08 1.95,-6.26 1.95,-9.56 0,-5.02 -1.98,-7.53 -5.93,-7.53 -2.63,0 -4.6,1.58 -5.9,4.75 -1.29,3.16 -1.94,6.22 -1.94,9.16zm44.31 3.45c-2.45,5.75 -6.25,8.62 -11.38,8.62 -3.12,0 -5.65,-1.12 -7.62,-3.38 -1.95,-2.25 -2.93,-5.3 -2.93,-9.18 0,-4.83 1.25,-8.99 3.76,-12.46 2.51,-3.48 5.74,-5.2 9.68,-5.2 3.07,0 5.5,0.89 7.29,2.67 1.8,1.78 2.82,4.24 3.07,7.41l-4.66 0.84c-0.43,-4.4 -2.36,-6.61 -5.81,-6.61 -2.79,0 -4.8,1.66 -6.03,4.97 -1.23,3.31 -1.84,6.46 -1.84,9.45 0,2.33 0.51,4.08 1.54,5.26 1.03,1.17 2.35,1.76 3.95,1.76 1.47,0 2.8,-0.56 4,-1.71 1.2,-1.15 2.12,-2.53 2.75,-4.18l4.2 1.75zm25.64 0c-2.45,5.75 -6.25,8.62 -11.38,8.62 -3.12,0 -5.65,-1.12 -7.62,-3.38 -1.95,-2.25 -2.93,-5.3 -2.93,-9.18 0,-4.83 1.25,-8.99 3.76,-12.46 2.51,-3.48 5.74,-5.2 9.68,-5.2 3.07,0 5.5,0.89 7.29,2.67 1.8,1.78 2.82,4.24 3.07,7.41l-4.67 0.84c-0.43,-4.4 -2.36,-6.61 -5.81,-6.61 -2.79,0 -4.8,1.66 -6.02,4.97 -1.23,3.31 -1.84,6.46 -1.84,9.45 0,2.33 0.51,4.08 1.54,5.26 1.03,1.17 2.35,1.76 3.95,1.76 1.47,0 2.8,-0.56 4,-1.71 1.2,-1.15 2.12,-2.53 2.75,-4.18l4.2 1.75zm8.31 5.53l-0.4 2.33 -5.13 0 4.8 -28.72 5.16 0 -2.65 15.82c-0.23,1.43 -0.52,2.87 -0.86,4.34 1.16,-1.77 2.65,-3.67 4.46,-5.7l10.54 -11.85 0.44 -2.61 5.05 0 -4.8 28.72 -5.07 0 2.44 -14.58c0.22,-1.32 0.59,-3.08 1.1,-5.28 -1.07,1.54 -2.61,3.45 -4.61,5.7l-10.46 11.83zm28.45 0l-0.4 2.33 -5.14 0 4.8 -28.72 5.16 0 -2.65 15.82c-0.24,1.43 -0.52,2.87 -0.86,4.34 1.16,-1.77 2.65,-3.67 4.46,-5.7l10.54 -11.85 0.44 -2.61 5.05 0 -4.8 28.72 -5.07 0 2.44 -14.58c0.22,-1.32 0.59,-3.08 1.1,-5.28 -1.07,1.54 -2.61,3.45 -4.61,5.7l-10.45 11.83zm5.42 -34.83l2.78 0c0,1.15 0.31,1.9 0.95,2.25 0.64,0.35 1.38,0.52 2.22,0.52 2.09,0 3.45,-0.93 4.06,-2.78l2.77 0c-0.37,1.74 -1.24,3.13 -2.61,4.18 -1.35,1.06 -2.96,1.58 -4.8,1.58 -1.71,0 -3.05,-0.45 -4.01,-1.36 -0.96,-0.9 -1.45,-2.02 -1.45,-3.35 0,-0.25 0.02,-0.6 0.07,-1.05zm40.19 29.29c-2.45,5.75 -6.25,8.62 -11.38,8.62 -3.12,0 -5.65,-1.12 -7.61,-3.38 -1.95,-2.25 -2.93,-5.3 -2.93,-9.18 0,-4.83 1.26,-8.99 3.77,-12.46 2.51,-3.48 5.74,-5.2 9.68,-5.2 3.07,0 5.5,0.89 7.29,2.67 1.8,1.78 2.82,4.24 3.07,7.41l-4.66 0.84c-0.43,-4.4 -2.36,-6.61 -5.81,-6.61 -2.79,0 -4.79,1.66 -6.02,4.97 -1.23,3.31 -1.84,6.46 -1.84,9.45 0,2.33 0.51,4.08 1.54,5.26 1.03,1.17 2.35,1.76 3.95,1.76 1.47,0 2.81,-0.56 4,-1.71 1.2,-1.15 2.12,-2.53 2.75,-4.18l4.2 1.75zm25.48 7.87l-5.42 0 -4.28 -14.41 -6.69 7.32 -1.2 7.08 -5.14 0 4.8 -28.72 5.15 0 -2.11 12.52c-0.04,0.24 -0.26,1.25 -0.65,3.03 0.51,-0.78 1.05,-1.49 1.62,-2.12l12.11 -13.42 5.52 0 -9.4 10.25 5.67 18.47zm3.37 -12.22c0,-4.4 1.23,-8.4 3.7,-11.96 2.47,-3.57 5.77,-5.35 9.91,-5.35 3.46,0 6.17,1.15 8.15,3.47 1.99,2.31 2.98,5.49 2.98,9.53 0,4.51 -1.26,8.53 -3.76,12.04 -2.52,3.52 -5.85,5.27 -10.02,5.27 -3.05,0 -5.63,-1.18 -7.77,-3.56 -2.13,-2.38 -3.19,-5.52 -3.19,-9.43zm5.45 0.9c0,2.81 0.55,4.81 1.66,6 1.1,1.19 2.46,1.79 4.03,1.79 2.78,0 4.82,-1.53 6.13,-4.61 1.31,-3.08 1.95,-6.26 1.95,-9.56 0,-5.02 -1.98,-7.53 -5.93,-7.53 -2.64,0 -4.61,1.58 -5.91,4.75 -1.29,3.16 -1.94,6.22 -1.94,9.16zm49.65 11.32l-5.16 0 4.37 -26.15 -12.24 26.15 -2.79 0 -3.88 -25.92 -4.33 25.92 -4.02 0 4.8 -28.72 7.89 0 2.97 19.29 8.77 -19.29 8.42 0 -4.79 28.72zm22.43 0l-5.37 0 4.8 -28.72 7.71 0c2.49,0 4.31,0.05 5.46,0.16 1.15,0.11 2.28,0.48 3.37,1.13 1.09,0.64 1.98,1.57 2.65,2.79 0.67,1.21 1.01,2.57 1.01,4.07 0,1.99 -0.54,3.76 -1.63,5.3 -1.08,1.53 -2.35,2.55 -3.8,3.03 -1.46,0.49 -3.23,0.73 -5.33,0.73l-6.93 0 -1.93 11.51zm4.1 -24.53l-1.45 8.79 5.09 0c1.8,0 3.05,-0.12 3.77,-0.35 0.72,-0.23 1.35,-0.73 1.9,-1.52 0.54,-0.77 0.82,-1.71 0.82,-2.82 0,-1.04 -0.24,-1.89 -0.74,-2.56 -0.49,-0.66 -1.07,-1.09 -1.75,-1.27 -0.67,-0.18 -1.87,-0.27 -3.62,-0.27l-4.01 0zm41.22 24.53l4.79 -28.72 5.14 0 -4.8 28.72 -5.13 0zm-24.66 0l4.8 -28.72 5.15 0 -1.85 11 4.38 0c2.84,0 4.9,0.25 6.16,0.76 1.26,0.5 2.27,1.33 3.02,2.49 0.75,1.16 1.12,2.62 1.12,4.39 0,2.8 -0.92,5.19 -2.75,7.14 -1.84,1.96 -4.78,2.94 -8.84,2.94l-11.2 0zm5.9 -4.46l5.66 0c2.11,0 3.6,-0.51 4.49,-1.52 0.89,-1.01 1.33,-2.28 1.33,-3.81 0,-2.5 -1.62,-3.75 -4.88,-3.75l-5.09 0 -1.52 9.07zm52.03 4.46l-5.16 0 2.08 -12.43 -11.24 0 -2.08 12.43 -5.13 0 4.8 -28.72 5.15 0 -1.97 11.76 11.23 0 1.98 -11.76 5.13 0 -4.79 28.72zm29.03 0l-5.42 0 -4.28 -14.41 -6.69 7.32 -1.2 7.08 -5.14 0 4.8 -28.72 5.16 0 -2.11 12.52c-0.04,0.24 -0.26,1.25 -0.65,3.03 0.51,-0.78 1.04,-1.49 1.62,-2.12l12.11 -13.42 5.52 0 -9.4 10.25 5.67 18.47zm22.53 0l-18.67 0 4.8 -28.72 18.16 0 -0.76 4.5 -13 0 -1.24 7.45 10.77 0 -0.71 4.25 -10.77 0 -1.35 8.02 13.53 0 -0.76 4.5z"/>
   <path class="fil1" d="M33.61 276.48l-5.16 0 2.08 -12.43 -11.24 0 -2.08 12.43 -5.14 0 4.8 -28.72 5.16 0 -1.97 11.76 11.23 0 1.98 -11.76 5.13 0 -4.79 28.72zm28.7 0l-5.75 0 -1.18 -6.94 -10.41 0 -3.2 6.94 -4.86 0 13.76 -28.72 6.37 0 5.26 28.72zm-7.41 -10.94l-2.25 -12.75 -5.91 12.75 8.16 0zm26.12 10.94l-5.37 0 4.8 -28.72 7.7 0c2.49,0 4.32,0.05 5.47,0.16 1.16,0.11 2.28,0.48 3.37,1.13 1.09,0.64 1.98,1.57 2.65,2.79 0.68,1.21 1.01,2.57 1.01,4.07 0,1.99 -0.54,3.76 -1.63,5.29 -1.08,1.53 -2.36,2.55 -3.81,3.04 -1.46,0.49 -3.23,0.73 -5.34,0.73l-6.92 0 -1.93 11.51zm4.1 -24.53l-1.45 8.8 5.09 0c1.8,0 3.04,-0.12 3.76,-0.35 0.72,-0.23 1.35,-0.73 1.9,-1.52 0.55,-0.77 0.82,-1.71 0.82,-2.83 0,-1.03 -0.24,-1.89 -0.74,-2.56 -0.49,-0.66 -1.07,-1.09 -1.75,-1.27 -0.67,-0.18 -1.87,-0.27 -3.62,-0.27l-4.01 0zm17.09 12.31c0,-4.4 1.23,-8.39 3.7,-11.96 2.47,-3.57 5.77,-5.35 9.91,-5.35 3.45,0 6.17,1.15 8.15,3.47 1.99,2.31 2.98,5.49 2.98,9.53 0,4.52 -1.26,8.53 -3.76,12.04 -2.51,3.52 -5.85,5.27 -10.02,5.27 -3.04,0 -5.63,-1.19 -7.76,-3.56 -2.13,-2.38 -3.2,-5.52 -3.2,-9.44zm5.45 0.91c0,2.8 0.55,4.8 1.66,6 1.11,1.19 2.46,1.79 4.04,1.79 2.78,0 4.82,-1.54 6.12,-4.61 1.31,-3.07 1.95,-6.26 1.95,-9.55 0,-5.02 -1.98,-7.53 -5.93,-7.53 -2.64,0 -4.6,1.58 -5.9,4.75 -1.29,3.16 -1.94,6.22 -1.94,9.16zm44.3 3.45c-2.45,5.75 -6.25,8.63 -11.38,8.63 -3.12,0 -5.65,-1.12 -7.61,-3.38 -1.95,-2.25 -2.93,-5.3 -2.93,-9.18 0,-4.83 1.26,-8.99 3.76,-12.46 2.51,-3.48 5.74,-5.21 9.68,-5.21 3.07,0 5.5,0.89 7.29,2.67 1.8,1.78 2.82,4.24 3.07,7.4l-4.67 0.84c-0.42,-4.4 -2.36,-6.61 -5.81,-6.61 -2.79,0 -4.8,1.66 -6.03,4.96 -1.23,3.31 -1.84,6.46 -1.84,9.45 0,2.33 0.51,4.08 1.54,5.26 1.03,1.18 2.35,1.76 3.94,1.76 1.47,0 2.81,-0.57 4.01,-1.71 1.2,-1.15 2.12,-2.53 2.75,-4.18l4.2 1.74zm25.64 0c-2.45,5.75 -6.25,8.63 -11.38,8.63 -3.12,0 -5.65,-1.12 -7.61,-3.38 -1.95,-2.25 -2.93,-5.3 -2.93,-9.18 0,-4.83 1.26,-8.99 3.76,-12.46 2.51,-3.48 5.74,-5.21 9.68,-5.21 3.07,0 5.5,0.89 7.29,2.67 1.8,1.78 2.82,4.24 3.07,7.4l-4.67 0.84c-0.42,-4.4 -2.36,-6.61 -5.81,-6.61 -2.79,0 -4.8,1.66 -6.03,4.96 -1.23,3.31 -1.84,6.46 -1.84,9.45 0,2.33 0.51,4.08 1.54,5.26 1.03,1.18 2.35,1.76 3.94,1.76 1.47,0 2.81,-0.57 4.01,-1.71 1.2,-1.15 2.12,-2.53 2.75,-4.18l4.2 1.74zm8.32 5.54l-0.4 2.33 -5.13 0 4.8 -28.72 5.16 0 -2.65 15.82c-0.24,1.43 -0.52,2.87 -0.86,4.34 1.16,-1.77 2.65,-3.67 4.46,-5.7l10.54 -11.85 0.44 -2.61 5.05 0 -4.8 28.72 -5.07 0 2.44 -14.58c0.22,-1.32 0.59,-3.08 1.1,-5.28 -1.07,1.54 -2.61,3.45 -4.61,5.7l-10.46 11.83zm28.45 0l-0.4 2.33 -5.13 0 4.8 -28.72 5.16 0 -2.65 15.82c-0.24,1.43 -0.52,2.87 -0.86,4.34 1.16,-1.77 2.65,-3.67 4.46,-5.7l10.54 -11.85 0.44 -2.61 5.05 0 -4.8 28.72 -5.07 0 2.44 -14.58c0.22,-1.32 0.59,-3.08 1.1,-5.28 -1.07,1.54 -2.61,3.45 -4.61,5.7l-10.46 11.83zm5.42 -34.83l2.78 0c0,1.15 0.32,1.9 0.96,2.26 0.64,0.35 1.38,0.52 2.22,0.52 2.09,0 3.45,-0.93 4.07,-2.78l2.77 0c-0.37,1.74 -1.24,3.14 -2.61,4.19 -1.36,1.06 -2.96,1.58 -4.8,1.58 -1.71,0 -3.04,-0.45 -4.01,-1.36 -0.96,-0.9 -1.44,-2.02 -1.44,-3.35 0,-0.25 0.02,-0.6 0.07,-1.06zm40.19 29.29c-2.45,5.75 -6.25,8.63 -11.38,8.63 -3.12,0 -5.65,-1.12 -7.61,-3.38 -1.95,-2.25 -2.93,-5.3 -2.93,-9.18 0,-4.83 1.26,-8.99 3.76,-12.46 2.51,-3.48 5.74,-5.21 9.68,-5.21 3.07,0 5.5,0.89 7.29,2.67 1.8,1.78 2.82,4.24 3.07,7.4l-4.67 0.84c-0.42,-4.4 -2.36,-6.61 -5.81,-6.61 -2.79,0 -4.8,1.66 -6.03,4.96 -1.23,3.31 -1.84,6.46 -1.84,9.45 0,2.33 0.51,4.08 1.54,5.26 1.03,1.18 2.35,1.76 3.94,1.76 1.47,0 2.81,-0.57 4.01,-1.71 1.2,-1.15 2.12,-2.53 2.75,-4.18l4.2 1.74zm25.48 7.87l-5.42 0 -4.27 -14.41 -6.69 7.32 -1.2 7.09 -5.14 0 4.8 -28.72 5.16 0 -2.1 12.52c-0.04,0.24 -0.26,1.25 -0.65,3.03 0.51,-0.78 1.05,-1.49 1.62,-2.12l12.11 -13.42 5.52 0 -9.4 10.25 5.67 18.47zm3.37 -12.22c0,-4.4 1.23,-8.39 3.7,-11.96 2.47,-3.57 5.77,-5.35 9.91,-5.35 3.45,0 6.17,1.15 8.15,3.47 1.99,2.31 2.98,5.49 2.98,9.53 0,4.52 -1.26,8.53 -3.76,12.04 -2.51,3.52 -5.85,5.27 -10.02,5.27 -3.04,0 -5.63,-1.19 -7.76,-3.56 -2.13,-2.38 -3.2,-5.52 -3.2,-9.44zm5.45 0.91c0,2.8 0.55,4.8 1.66,6 1.11,1.19 2.46,1.79 4.04,1.79 2.78,0 4.82,-1.54 6.13,-4.61 1.31,-3.07 1.95,-6.26 1.95,-9.55 0,-5.02 -1.98,-7.53 -5.93,-7.53 -2.64,0 -4.6,1.58 -5.9,4.75 -1.29,3.16 -1.94,6.22 -1.94,9.16zm49.65 11.32l-5.16 0 4.37 -26.15 -12.24 26.15 -2.79 0 -3.88 -25.92 -4.33 25.92 -4.02 0 4.8 -28.72 7.89 0 2.96 19.29 8.78 -19.29 8.42 0 -4.8 28.72zm22.43 0l-5.37 0 4.8 -28.72 7.71 0c2.49,0 4.31,0.05 5.46,0.16 1.16,0.11 2.28,0.48 3.37,1.13 1.09,0.64 1.98,1.57 2.65,2.79 0.67,1.21 1.01,2.57 1.01,4.07 0,1.99 -0.54,3.76 -1.63,5.29 -1.08,1.53 -2.36,2.55 -3.81,3.04 -1.46,0.49 -3.23,0.73 -5.34,0.73l-6.92 0 -1.93 11.51zm4.1 -24.53l-1.45 8.8 5.09 0c1.8,0 3.04,-0.12 3.76,-0.35 0.72,-0.23 1.35,-0.73 1.9,-1.52 0.54,-0.77 0.82,-1.71 0.82,-2.83 0,-1.03 -0.24,-1.89 -0.74,-2.56 -0.49,-0.66 -1.07,-1.09 -1.75,-1.27 -0.67,-0.18 -1.87,-0.27 -3.62,-0.27l-4.01 0zm41.22 24.53l4.8 -28.72 5.13 0 -4.8 28.72 -5.13 0zm-24.66 0l4.8 -28.72 5.16 0 -1.85 11 4.38 0c2.84,0 4.9,0.25 6.16,0.76 1.26,0.5 2.27,1.34 3.02,2.49 0.75,1.16 1.12,2.62 1.12,4.39 0,2.8 -0.92,5.19 -2.75,7.14 -1.84,1.96 -4.78,2.94 -8.84,2.94l-11.2 0zm5.9 -4.46l5.66 0c2.11,0 3.6,-0.5 4.49,-1.52 0.89,-1.01 1.34,-2.28 1.34,-3.81 0,-2.5 -1.62,-3.75 -4.88,-3.75l-5.09 0 -1.52 9.07zm52.03 4.46l-5.16 0 2.08 -12.43 -11.24 0 -2.08 12.43 -5.13 0 4.8 -28.72 5.16 0 -1.97 11.76 11.23 0 1.98 -11.76 5.13 0 -4.79 28.72zm29.03 0l-5.42 0 -4.27 -14.41 -6.69 7.32 -1.2 7.09 -5.14 0 4.8 -28.72 5.16 0 -2.1 12.52c-0.04,0.24 -0.26,1.25 -0.65,3.03 0.51,-0.78 1.05,-1.49 1.62,-2.12l12.12 -13.42 5.52 0 -9.4 10.25 5.67 18.47zm22.53 0l-18.66 0 4.8 -28.72 18.16 0 -0.76 4.5 -13 0 -1.24 7.45 10.77 0 -0.72 4.25 -10.77 0 -1.35 8.01 13.53 0 -0.76 4.5z"/>
  </g>
 </g>
</svg>
