<?xml version="1.0" encoding="UTF-8"?>
<!DOCTYPE svg PUBLIC "-//W3C//DTD SVG 1.1//EN" "http://www.w3.org/Graphics/SVG/1.1/DTD/svg11.dtd">
<!-- Creator: CorelDRAW 2018 (64-Bit) -->
<svg xmlns="http://www.w3.org/2000/svg" xml:space="preserve" width="47.2094mm" height="51.8006mm" version="1.1" style="shape-rendering:geometricPrecision; text-rendering:geometricPrecision; image-rendering:optimizeQuality; fill-rule:evenodd; clip-rule:evenodd"
viewBox="0 0 1268.44 1391.8"
 xmlns:xlink="http://www.w3.org/1999/xlink">
 <defs>
  <style type="text/css">
   <![CDATA[
    .str0 {stroke:#E51A4B;stroke-width:13.43;stroke-miterlimit:22.9256}
    .fil0 {fill:none}
    .fil1 {fill:#2B2A29;fill-rule:nonzero}
    .fil2 {fill:#00582E;fill-rule:nonzero}
   ]]>
  </style>
   <clipPath id="id0">
    <path d="M407.12 175.58c279.63,-151.22 628.9,-47.12 780.11,232.5 151.22,279.62 47.13,628.89 -232.5,780.11 -279.63,151.22 -628.9,47.12 -780.11,-232.5 -151.22,-279.62 -47.12,-628.89 232.5,-780.11z"/>
   </clipPath>
    <clipPath id="id1">
     <path d="M407.12 175.58c279.63,-151.22 628.9,-47.12 780.11,232.5 151.22,279.62 47.13,628.89 -232.5,780.11 -279.63,151.22 -628.9,47.12 -780.11,-232.5 -151.22,-279.62 -47.12,-628.89 232.5,-780.11z"/>
    </clipPath>
    <clipPath id="id2">
     <path d="M407.12 175.58c279.63,-151.22 628.9,-47.12 780.11,232.5 151.22,279.62 47.13,628.89 -232.5,780.11 -279.63,151.22 -628.9,47.12 -780.11,-232.5 -151.22,-279.62 -47.12,-628.89 232.5,-780.11z"/>
    </clipPath>
    <clipPath id="id3">
     <path d="M407.12 175.58c279.63,-151.22 628.9,-47.12 780.11,232.5 151.22,279.62 47.13,628.89 -232.5,780.11 -279.63,151.22 -628.9,47.12 -780.11,-232.5 -151.22,-279.62 -47.12,-628.89 232.5,-780.11z"/>
    </clipPath>
    <clipPath id="id4">
     <path d="M407.12 175.58c279.63,-151.22 628.9,-47.12 780.11,232.5 151.22,279.62 47.13,628.89 -232.5,780.11 -279.63,151.22 -628.9,47.12 -780.11,-232.5 -151.22,-279.62 -47.12,-628.89 232.5,-780.11z"/>
    </clipPath>
 </defs>
 <g id="Слой_x0020_1">
  <metadata id="CorelCorpID_0Corel-Layer"/>
  <g>
  </g>
  <g style="clip-path:url(#id0)">
   <g>
   </g>
   <g style="clip-path:url(#id1)">
   </g>
   <g style="clip-path:url(#id2)">
    <image id="shutterstock_1101733310.jpg" x="-325.44" y="-331.02" width="2019.26" height="2019.56" xlink:href="bali_Images\bali_ImgID1.png"/>
   </g>
   <g style="clip-path:url(#id3)">
   </g>
   <g style="clip-path:url(#id4)">
   </g>
  </g>
  <path class="fil0 str0" d="M407.12 175.58c279.63,-151.22 628.9,-47.12 780.11,232.5 151.22,279.62 47.13,628.89 -232.5,780.11 -279.63,151.22 -628.9,47.12 -780.11,-232.5 -151.22,-279.62 -47.12,-628.89 232.5,-780.11z"/>
  <path class="fil1" d="M831.02 1339.62c-0.1,-0.76 -0.51,-1.46 -0.91,-2.03 -3.21,6.77 -19.5,41.1 -27.05,42.16 -1.51,0.21 -3.26,-1.24 -3.47,-2.75 -1.61,-11.48 8.68,-35.88 7.47,-44.49 -0.1,-0.76 -1.1,-1.23 -1.83,-0.98l-5.88 2.06c-2.5,0.81 -6.27,22.3 -12.01,23.1 -1.51,0.21 -4.65,-6.74 -7.36,-6.37 -4.08,0.57 -10.14,11.13 -11.45,15.01 0.5,-3 4.57,-26.68 4.38,-28.04l-1.38 -1.05c-4.21,0.75 -8.13,2.38 -8.9,6.8 -0.92,5.53 -7.72,44.84 -7.34,47.56 0.11,0.76 0.79,1.28 1.55,1.17 1.96,-0.28 4.14,-1.2 6.05,-1.93 1.47,-0.51 2.07,-1.68 2.34,-3.1l2.05 -10.61c0.83,-3.97 7.72,-19.57 11.96,-20.17 2.87,-0.4 4.38,6.01 7.56,5.56 3.02,-0.42 6.56,-6.01 7.6,-8.46 -1.12,5.24 -4.69,20.38 -3.97,25.52 0.66,4.68 4.27,8.49 9.26,7.79 9.67,-1.36 32.57,-38 31.34,-46.76zm63.47 -15.71c-0.18,-0.74 -0.51,-1.45 -0.95,-1.97 -2.52,6.42 -15.46,41.74 -22.72,43.51 -1.63,0.39 -3.18,-0.8 -3.54,-2.28 -2.45,-10.08 3.19,-34.06 1.14,-42.51l-0.07 -0.29 -0.99 -0.86c-4.59,-0.77 -9.29,-0.73 -13.73,0.35 -17.2,4.18 -31.94,28.16 -27.77,45.36 1.87,7.71 7.07,14.92 15.97,12.76 9.78,-2.37 15.1,-21.24 17.49,-29.51 -0.4,4.18 -1.25,13.65 -0.27,17.65 1.15,4.75 4.47,6.77 9.21,5.61 11.12,-2.7 27.45,-42.77 26.23,-47.81zm-33.41 0.1c-1.24,8.47 -7.82,46.01 -18.5,48.61 -3.41,0.83 -5.49,-2.59 -6.18,-5.41 -2.52,-10.38 5.87,-41.14 17.43,-43.95 2.37,-0.57 5.07,-0.44 7.25,0.76zm122 -42.09c-0.26,-0.55 -0.79,-0.98 -1.19,-1.46 -1.11,5.91 -5.7,36.71 -11.64,39.5 -1.8,0.84 -3.76,0.24 -4.81,-1.28 0.64,-6.54 0.13,-13.38 -2.65,-19.32 -4.27,-9.12 -13.95,-15.03 -23.76,-10.43 -15.47,7.25 -22.63,31.51 -15.58,46.56 4.92,10.5 15.13,14.3 25.63,9.38 7.6,-3.56 11.87,-10.62 14.66,-18.33 2.09,0.87 4.34,1 6.41,0.03 7.46,-3.5 15.59,-38.99 12.93,-44.65zm-29.74 15.63c-1.4,6.72 -1.45,14.16 1.53,20.51 0.84,1.8 1.9,3.32 3.36,4.66 -0.84,6.12 -2.99,15.55 -9.2,18.47 -6.77,3.17 -11.75,-2.07 -14.47,-7.87 -4.54,-9.68 -6.61,-35.66 5.13,-41.16 5.53,-2.59 10.42,1.01 13.65,5.4zm50.96 15.26c-0.64,-1.21 -3.06,-4.77 -4.89,-4.31 -2.1,0.6 -5.43,1.16 -7.31,2.17 -1.89,1 1.21,7.13 1.78,8.21 1.5,2.83 5.6,0.13 7.48,-0.88 2.29,-1.22 4.52,-2.24 2.94,-5.19zm69.54 -160.76c-0.25,-0.39 -1.1,-1.1 -1.61,-0.76 -1.14,0.76 -8.93,16.28 -18.93,22.99 -15.2,10.2 -48.23,15.46 -65.59,27.1 -11.66,7.82 -17.16,21.25 -8.83,33.66 11.14,16.6 34.69,6.52 47.48,-2.06 0.63,-0.43 0.8,-1.27 0.38,-1.9 -0.44,-0.66 -1.29,-0.82 -1.96,-0.73 -11.02,7.39 -33.21,17.31 -42.98,2.75 -4.84,-7.22 -3.73,-15.69 3.62,-20.62 16.59,-11.13 43.88,-14.01 61.11,-25.57 12.28,-8.24 22.49,-19.86 27.66,-33.8 0.17,-0.3 -0.25,-0.93 -0.34,-1.05zm26.59 62.63c-9.02,-13.45 -22.92,-14.18 -35.72,-5.59 -4.31,2.89 -10.32,12.56 -11.31,17.64 -2.84,-11.63 -6.44,-23.57 -11.05,-34.81l-6.94 14.57c5.69,8.49 10.76,17.96 13.99,27.7 -3.47,14.27 -7.75,38.3 1.09,51.47 0.77,1.14 1.79,2.11 2.72,2.96l0.72 -0.3c6.34,-16.56 5.19,-36.91 1.73,-54.11 1.21,-5.59 5.33,-15.88 10.27,-19.2 8.61,-5.78 18.77,-4.88 24.8,4.12 6.73,10.03 13.03,36.12 0.74,44.36 -3.55,2.38 -7.57,1.04 -9.86,-2.38 -8.58,-12.79 2.24,-28.69 1.14,-30.34 -0.42,-0.63 -0.97,-0.63 -1.48,-0.29 -7.98,5.35 -13.81,24.88 -7.6,34.13 4.42,6.59 11.87,6.74 18.07,2.57 15.71,-10.54 18.89,-37.29 8.69,-52.49zm-48.89 27.07c2.92,9.28 3.79,19.35 2.04,28.79 -0.72,-0.8 -1.95,-1.81 -2.54,-2.7 -3.49,-5.2 -0.82,-20.39 0.5,-26.09zm99.27 -86.7c-0.53,-0.55 -1.17,-0.99 -1.81,-1.22 1.08,6.81 7.8,43.83 2.43,49.02 -1.21,1.16 -3.15,0.92 -4.2,-0.18 -7.21,-7.45 -14.49,-30.99 -20.54,-37.24l-0.21 -0.21 -1.29 -0.24c-4.34,1.65 -8.37,4.07 -11.66,7.25 -12.72,12.31 -13.29,40.46 -0.98,53.17 5.52,5.7 13.66,9.29 20.23,2.92 7.24,-7 2.26,-25.96 0.14,-34.31 1.77,3.81 5.83,12.4 8.7,15.36 3.4,3.51 7.28,3.57 10.79,0.17 8.22,-7.96 2.02,-50.78 -1.59,-54.51zm-28.76 17.01c3.21,7.93 16.55,43.64 8.65,51.28 -2.52,2.44 -6.05,0.55 -8.07,-1.53 -7.42,-7.67 -15.77,-38.46 -7.22,-46.73 1.76,-1.7 4.15,-2.95 6.63,-3.02zm69.53 -65.98c-0.56,-0.51 -1.33,-0.8 -1.99,-0.98 1.75,6.93 11.59,43.81 6.27,49.7 -1.02,1.13 -3.29,1.14 -4.42,0.12 -8.49,-7.68 -16.34,-33.1 -22.91,-39.04 -0.57,-0.51 -1.62,-0.02 -1.92,0.53l-2.99 5.12c-0.99,1.78 -0.23,4.12 0.51,5.81 3.69,9.11 15.37,46 8.62,53.47 -1.43,1.59 -2.85,1.33 -4.32,0 -3.73,-3.38 -4.85,-8.5 -7.96,-12.35l-1.39 0.18 -3.7 5.91c-1.69,2.79 5.25,12.16 7.18,13.9 3.85,3.48 7.75,3.72 11.33,-0.24 7.68,-8.49 0.09,-39.21 -2.33,-48.81 2.63,5.06 9.8,18.96 13.88,22.64 3.51,3.17 8.72,3.77 12.1,0.04 6.75,-7.47 0.4,-50.24 -5.94,-55.98zm38.33 -59.11c-0.62,-0.43 -1.43,-0.61 -2.11,-0.71 2.65,6.65 17.24,41.91 12.74,48.44 -0.95,1.38 -2.99,1.65 -4.37,0.7 -9.29,-6.41 -20.67,-30.75 -27.71,-35.6 -0.5,-0.35 -1.23,-0.1 -1.61,0.18 -0.47,0.42 -2.24,5.13 -2.63,5.97 -1.19,3.07 4.98,11.59 6.33,14.74 2.53,6.01 14.65,36.79 10.49,42.82 -1.04,1.51 -2.9,1.52 -4.28,0.56 -9.3,-6.41 -20.84,-31.05 -27.87,-35.9 -0.38,-0.26 -1.31,0.02 -1.57,0.39 -1.9,2.76 -4.38,7.17 -2.07,10.25l20.27 26.77c1.87,2.4 3.9,5.1 6.41,6.83 4.27,2.94 8.17,2.67 11.2,-1.73 6.85,-9.92 -4.85,-38.37 -8.72,-48.08 3.4,4.75 12.08,17.41 16.73,20.62 4.01,2.78 9.05,2.73 11.99,-1.54 5.8,-8.42 -6.32,-49.95 -13.22,-54.71zm-29.64 -61.76c-0.54,0.05 -1.5,0.21 -1.8,0.74 -1.57,3.14 -6.53,8.94 -3.12,12.23l55.7 54.96 0.95 0.17 0.87 -1.26 -0.11 -0.76c-6.35,-8.06 -48.05,-62.76 -52.49,-66.1zm66.41 71.2c-1.2,-0.66 -5.16,-2.33 -6.45,-0.96 -1.44,1.65 -3.93,3.93 -4.96,5.8 -1.04,1.87 4.89,5.33 5.96,5.92 2.8,1.56 4.77,-2.94 5.8,-4.81 1.25,-2.27 2.57,-4.33 -0.36,-5.96z"/>
  <path class="fil1" d="M41.23 772.45c10.38,-2.04 19.83,-0.07 28.36,5.91 8.37,5.93 13.65,14.48 15.83,25.63 2.19,11.15 0.52,21.05 -4.99,29.7 -5.64,8.75 -13.65,14.15 -24.03,16.18 -4.84,0.95 -9.76,0.94 -14.75,-0.01 -4.99,-0.95 -9.57,-2.92 -13.72,-5.89 -8.37,-5.94 -13.65,-14.48 -15.84,-25.63 -2.18,-11.15 -0.52,-21.05 5,-29.71 2.72,-4.32 6.21,-7.86 10.48,-10.63 4.26,-2.76 8.81,-4.62 13.65,-5.57zm-11.46 42.45c1.13,5.74 3.91,10.12 8.36,13.11 4.38,3 9.34,3.96 14.88,2.87 5.12,-1 9.11,-3.72 11.95,-8.13 2.96,-4.58 3.9,-9.68 2.79,-15.29 -1.12,-5.76 -3.87,-10.1 -8.23,-13.03 -4.53,-3.04 -9.39,-4.06 -14.58,-3.04 -5.33,1.05 -9.44,3.82 -12.36,8.32 -2.94,4.66 -3.88,9.72 -2.81,15.19zm-13.06 -91l1.45 15.15 55.49 -5.33 1.77 18.46 -55.49 5.33 1.45 15.15 -15.69 1.5 -4.68 -48.76 15.69 -1.5zm54.8 -21.91l-0.02 18.44 -71.49 -12.18 0.02 -18.33 38.18 -14.43 -38.15 -15.37 0.02 -18.55 71.51 -10.65 -0.02 18.54 -41.17 5.21 41.15 17.3 -0.01 7.4 -41.18 16.46 41.16 6.15zm-63.11 -126.5l15.59 2.27 -3.18 21.85 11.77 1.72 3.01 -20.68 15.59 2.27 -3.01 20.69 12.2 1.78 3.18 -21.85 15.59 2.28 -5.86 40.2 -70.76 -10.31 5.86 -40.2zm25.56 -50.66l-2.91 14.94 54.71 10.67 -3.55 18.2 -54.71 -10.67 -2.91 14.94 -15.47 -3.01 9.37 -48.08 15.47 3.01zm55.22 9.36l-68.56 -20.31 5.3 -17.88 26.72 7.92 2.56 -8.64c2.76,-9.32 6.91,-15.51 12.43,-18.57 4.71,-2.56 10.07,-2.94 16.1,-1.16 6.1,1.81 10.38,4.98 12.84,9.5 3.08,5.69 3.14,13.57 0.15,23.64l-7.55 25.49zm-8.48 -21.96l2.04 -6.89c1.12,-3.77 1.19,-6.54 0.23,-8.32 -0.87,-1.6 -2.4,-2.72 -4.59,-3.37 -2.19,-0.65 -4.06,-0.5 -5.62,0.46 -1.79,1.04 -3.23,3.37 -4.31,7l-2.04 6.89 14.29 4.23zm34.17 -115.16l19.96 9.2c-0.57,6.89 -1.75,12.26 -3.51,16.09 -4.66,10.12 -11.77,17 -21.31,20.63 -4.55,1.68 -9.32,2.42 -14.29,2.21 -4.98,-0.21 -9.61,-1.31 -13.9,-3.28 -4.48,-2.06 -8.41,-4.96 -11.81,-8.69 -3.39,-3.72 -5.93,-7.79 -7.61,-12.18 -3.7,-9.73 -3.31,-19.47 1.17,-29.2 2.18,-4.74 5.62,-9.3 10.31,-13.67l20.15 9.29c-6.5,1.65 -11.13,5.45 -13.88,11.43 -2.13,4.61 -2.49,9.16 -1.1,13.66 1.77,5.38 5.35,9.31 10.74,11.79 5.13,2.36 10.16,2.56 15.08,0.57 4.45,-1.81 7.79,-5.14 10.04,-10.01 2.6,-5.65 2.58,-11.6 -0.05,-17.84zm30.83 -77.98c9.13,5.33 14.92,13.06 17.37,23.18 2.36,9.98 0.68,19.89 -5.05,29.7 -5.73,9.81 -13.53,16.15 -23.38,18.99 -10.01,2.84 -19.59,1.59 -28.73,-3.73 -4.26,-2.49 -7.95,-5.74 -11.06,-9.75 -3.12,-4.01 -5.25,-8.51 -6.41,-13.49 -2.36,-9.98 -0.68,-19.89 5.05,-29.69 5.73,-9.82 13.53,-16.15 23.38,-19 4.9,-1.44 9.86,-1.79 14.89,-1.05 5.02,0.74 9.66,2.35 13.93,4.84zm-36.65 24.28c-2.95,5.06 -3.75,10.18 -2.39,15.37 1.3,5.14 4.39,9.14 9.26,11.99 4.51,2.63 9.29,3.23 14.35,1.8 5.25,-1.49 9.32,-4.7 12.2,-9.64 2.96,-5.06 3.76,-10.13 2.43,-15.22 -1.39,-5.28 -4.36,-9.25 -8.93,-11.92 -4.69,-2.74 -9.62,-3.38 -14.77,-1.92 -5.29,1.54 -9.34,4.72 -12.15,9.54zm88.93 -33.72l-17.47 24.15 -57.94 -41.91 16.21 -22.41c4.15,-5.73 8.71,-8.87 13.69,-9.41 4.33,-0.49 8.8,0.94 13.44,4.29 2.55,1.84 4.52,4.11 5.93,6.8 1.3,2.71 1.68,5.35 1.12,7.96 2.69,-3 5.76,-4.79 9.19,-5.4 4.37,-0.81 8.85,0.45 13.42,3.76 4.75,3.43 7.52,7.6 8.3,12.49 1.09,6.17 -0.87,12.73 -5.9,19.68zm-52.98 -24.43l11.29 8.17 2.01 -2.78c1.93,-2.67 2.7,-5.02 2.32,-7.05 -0.26,-1.6 -1.2,-2.98 -2.82,-4.15 -1.56,-1.13 -3.2,-1.61 -4.92,-1.43 -1.99,0.32 -3.95,1.81 -5.88,4.47l-2.01 2.78zm22.49 16.27l12.16 8.8 2.45 -3.39c3.52,-4.86 4.98,-8.53 4.38,-10.99 -0.34,-1.48 -1.29,-2.79 -2.86,-3.92 -1.79,-1.3 -3.54,-1.81 -5.24,-1.54 -2.19,0.35 -5.07,2.99 -8.63,7.91l-2.27 3.13zm22.66 -92.52l11.8 10.45 -14.65 16.53 8.9 7.89 13.86 -15.65 11.8 10.45 -13.86 15.65 9.23 8.18 14.65 -16.53 11.79 10.45 -26.94 30.41 -53.52 -47.42 26.94 -30.41zm63.17 6.06l-8.58 7.93 16.07 17.41 -13.62 12.58 -48.52 -52.53 21.74 -20.07c5.62,-5.19 11.51,-7.71 17.67,-7.57 6.16,0.15 11.72,2.9 16.67,8.25 5.24,5.67 7.71,11.46 7.42,17.36 -0.28,5.91 -3.24,11.46 -8.85,16.65zm-30.84 -16.17l12.07 13.07 4.57 -4.22c2.63,-2.42 4.03,-4.74 4.22,-6.96 0.23,-2.06 -0.66,-4.2 -2.7,-6.41 -1.94,-2.1 -3.92,-3.19 -5.94,-3.27 -2.37,-0.15 -4.89,1.02 -7.57,3.49l-4.65 4.29zm66.84 15.16l-42.98 -57.14 14.9 -11.21 33.57 44.63 14.39 -10.82 -33.57 -44.64 14.91 -11.21 33.57 44.63 14.39 -10.82 -33.57 -44.64 14.91 -11.21 42.98 57.14 -73.5 55.29zm83.87 -139.64l7.46 13.88 -19.45 10.45 5.63 10.48 18.42 -9.9 7.46 13.88 -18.41 9.9 5.84 10.86 19.45 -10.45 7.46 13.88 -35.79 19.24 -33.85 -62.98 35.79 -19.24zm27.56 -13.44l10.2 24.67 24.76 -10.25 -10.2 -24.66 17.24 -7.13 27.33 66.07 -17.24 7.13 -11.06 -26.74 -24.76 10.24 11.06 26.74 -17.14 7.09 -27.34 -66.07 17.14 -7.09zm74.05 -28.13l7.69 25.56 25.67 -7.73 -7.69 -25.56 17.86 -5.38 20.61 68.47 -17.86 5.38 -8.34 -27.71 -25.66 7.72 8.34 27.71 -17.76 5.34 -20.61 -68.47 17.76 -5.34zm141.74 6.52c1.52,10.46 -0.91,19.81 -7.3,28.03 -6.34,8.08 -15.13,12.93 -26.37,14.57 -11.24,1.63 -21.05,-0.51 -29.43,-6.45 -8.47,-6.06 -13.46,-14.33 -14.98,-24.79 -0.71,-4.88 -0.47,-9.79 0.72,-14.73 1.2,-4.94 3.39,-9.41 6.56,-13.41 6.33,-8.07 15.13,-12.93 26.37,-14.57 11.25,-1.64 21.05,0.51 29.43,6.45 4.18,2.93 7.55,6.59 10.1,10.99 2.56,4.39 4.19,9.03 4.9,13.91zm-41.83 -13.52c-5.8,0.85 -10.3,3.41 -13.51,7.71 -3.21,4.22 -4.41,9.13 -3.6,14.72 0.75,5.16 3.26,9.27 7.54,12.34 4.44,3.18 9.48,4.36 15.14,3.54 5.8,-0.84 10.27,-3.37 13.42,-7.59 3.26,-4.38 4.51,-9.18 3.76,-14.41 -0.78,-5.38 -3.35,-9.63 -7.71,-12.75 -4.51,-3.17 -9.52,-4.36 -15.03,-3.55zm55.47 -23.18l55.05 -2.61 3.38 71.42 -18.63 0.88 -2.64 -55.79 -17.99 0.85 1.23 26.02c0.54,11.42 -1.57,19.75 -6.33,24.98 -4.02,4.27 -9.49,6.57 -16.41,6.89 -2.86,0.13 -5.69,-0.05 -8.5,-0.56l-0.81 -17.13c1.52,0.43 2.96,0.61 4.32,0.55 2.57,-0.12 4.61,-0.94 6.11,-2.44 2.39,-2.4 3.43,-6.96 3.11,-13.67l-1.87 -39.41zm110.65 0.54l-0.77 15.74 -22.06 -1.08 -0.58 11.88 20.88 1.03 -0.77 15.74 -20.88 -1.03 -0.6 12.32 22.05 1.08 -0.78 15.74 -40.57 -1.99 3.51 -71.41 40.58 1.99zm55.26 23.43l-15.06 -2.2 -8.04 55.16 -18.35 -2.68 8.05 -55.16 -15.06 -2.2 2.27 -15.6 48.48 7.07 -2.28 15.59zm10.5 -14.86l18.11 4.44 -10.72 43.73 36.75 -37.35 18.43 4.52 -17.01 69.45 -18.12 -4.44 10.72 -43.73 -36.74 37.36 -18.43 -4.51 17.01 -69.45zm115.23 33.12l-5.19 14.89 -20.85 -7.27 -3.92 11.23 19.73 6.89 -5.19 14.88 -19.74 -6.89 -4.06 11.64 20.85 7.27 -5.19 14.88 -38.36 -13.38 23.56 -67.51 38.36 13.38z"/>
  <path class="fil2" d="M970.88 65.8l16.84 7.76 -20.59 44.69c-1.61,3.51 -3.29,6.24 -5.01,8.19 -1.73,1.96 -4.3,3.57 -7.71,4.83 -5.97,2.21 -12.2,1.82 -18.7,-1.18 -3.83,-1.76 -6.79,-4.31 -8.88,-7.63 -1.72,-2.76 -2.85,-5.96 -3.37,-9.58l16.2 -6.22c-0.81,2.45 -0.83,4.53 -0.04,6.24 0.61,1.22 1.51,2.11 2.67,2.65 1.11,0.51 2.25,0.6 3.42,0.27 1.68,-0.56 3.26,-2.47 4.76,-5.71l20.41 -44.3zm33.38 99.16l2.26 -12.59 -22.41 -13.08 -10.22 7.94 -16.94 -9.89 59.75 -47.91 17.5 10.22 -12.82 75.31 -17.13 -10zm-8.57 -35.29l13.71 8 4.73 -24.06 -18.43 16.05zm25.74 44.09l45.69 -12.29 2.94 -40.36 17.9 14.34 -3.31 21.11 20.21 -7.57 17.82 14.28 -39 11.48 -2.77 46.68 -17.57 -14.08 2.66 -27.67 -27.09 8.1 -17.49 -14.01z"/>
 </g>
</svg>
