<?xml version="1.0" encoding="UTF-8"?>
<!DOCTYPE svg PUBLIC "-//W3C//DTD SVG 1.1//EN" "http://www.w3.org/Graphics/SVG/1.1/DTD/svg11.dtd">
<!-- Creator: CorelDRAW 2018 (64-Bit) -->
<svg xmlns="http://www.w3.org/2000/svg" xml:space="preserve" width="34.0082mm" height="16.874mm" version="1.1" style="shape-rendering:geometricPrecision; text-rendering:geometricPrecision; image-rendering:optimizeQuality; fill-rule:evenodd; clip-rule:evenodd"
viewBox="0 0 336.38 166.9"
 xmlns:xlink="http://www.w3.org/1999/xlink">
 <defs>
  <style type="text/css">
   <![CDATA[
    .str0 {stroke:#88AA29;stroke-width:0.75;stroke-miterlimit:10}
    .fil3 {fill:none}
    .fil0 {fill:#FEFEFE}
    .fil2 {fill:#8EBD0D}
    .fil1 {fill:#C4E312}
   ]]>
  </style>
   <clipPath id="id0">
    <path d="M-0 0l336.38 0 0 166.9 -336.38 0 0 -166.9z"/>
   </clipPath>
 </defs>
 <g id="Слой_x0020_1">
  <metadata id="CorelCorpID_0Corel-Layer"/>
  <g>
  </g>
  <g style="clip-path:url(#id0)">
   <g>
    <path class="fil0" d="M337.78 2.54c-2.67,0.87 -4.54,2.67 -5.71,4.24 -9.66,-0.95 -17.28,2.06 -22.6,11.73 -6.27,-2.31 -17.5,-1.11 -23.81,8.8 -13.46,-6.52 -38.13,1.7 -42.92,14.93 -5.25,-3.3 -13.78,-1.03 -16.4,4.62 -9.36,-7.17 -23.37,-2.73 -27.79,1.51 -10.22,-12.49 -29.44,-11.15 -37.91,-3.54 -8.94,-9.04 -19.98,-9.94 -32.85,-6.24 -7.54,-20.66 -30.58,-19.45 -40.2,-11.45 -6.33,-7.11 -14.35,-5.96 -18.04,-5.82 -3.28,-16.22 -21.89,-16.55 -28.84,-13.34 -8.67,-9.17 -30.38,-9.6 -40.82,-4.82l0 166.03 337.72 0 0.16 -166.65z"/>
    <path class="fil1" d="M337.63 9.16c-1.73,0.8 -3.62,2.19 -4.61,3.81 -7.99,-1.43 -16.79,1.24 -21.47,11.48 -6.55,-2.53 -19.23,-1.8 -24.54,9.2 -19.55,-8.94 -39.12,6.53 -43.03,13.47 -4.47,-3.49 -14.36,-0.38 -16.52,5.89 -9.99,-7.37 -24.22,-4.31 -29.64,3.24 -12.55,-16.96 -32.99,-10.86 -38.28,-4.99 -8.94,-9.04 -20.74,-10.31 -33.61,-6.6 -7.79,-22.58 -28.7,-19.67 -38.32,-11.68 -8.5,-8.36 -15.19,-5.98 -19.83,-6.29 -3.62,-16.72 -20.09,-16.08 -27.04,-12.86 -13.92,-10.17 -30.37,-8.71 -40.82,-3.93l0 159.31 337.72 0 0 -160.04z"/>
    <g id="_1963843782208">
     <path class="fil2" d="M136.52 54.8l0.65 0.35 0.48 0.26 0.72 0.23 0.97 0.37 0.95 0.23c0,0 1.4,0.26 1.41,0.27 0.03,0 1.25,0.09 1.25,0.09l1.22 -0.13 1.16 -0.21 0.34 -0.11 0.14 0.03c0,0 0.12,0.13 0.1,0.16l0.1 0.25c0,0 0.05,0.13 0.05,0.16 -0,0.02 -0.01,0.14 -0.03,0.15 0.01,0.01 -0.04,0.14 -0.04,0.14 0,0 0.02,0.09 0.01,0.14 0,0.04 0.06,0.11 0.06,0.11l-0.03 0.15c0,0 -0.07,0.18 -0.09,0.2 -0,0.02 -0.12,0.18 -0.12,0.18l-0.3 0.14 -0.84 0.23 -0.35 0.03 -0.14 -0.06 -0.15 -0.1 -0.28 -0.15 -0.41 -0.08 -0.21 0.03 -0.06 0.07 -0.05 0.06 0.06 0.04 0.19 0.03 0.33 0.06 0.15 0.04 0 0.06 -0.25 -0.02 -0.24 -0.01 -0.12 0.03 -0.02 0.06 0.1 0.07 0.2 0.02 0.17 0 0 0.06 -0.17 -0 -0.13 0.01 -0.11 0.04 -0.02 0.1 0.08 0.01c0,0 0.14,0.03 0.16,0.03 0.01,0.01 0.14,0.03 0.14,0.03l-0.02 0.04 -0.25 -0.02 -0.11 0.02 -0.02 0.06 0.04 0.06 0.16 0.03 0.19 0 0.14 -0.04 0.05 0 -0.09 0.04 -0.2 0.02 -0.19 -0.03 -0.09 0.04 0.05 0.07 0.15 0.08 0.15 0.04 0.18 -0.01 0.15 -0.05 0.1 -0.06 0.13 -0.01 0.16 0.05 0.23 0.06 0.36 -0.02 0.54 -0.04 0.43 0 0.35 -0.07 0.3 -0.04c0,0 0.2,-0.05 0.23,-0.07 0.02,0 0.2,-0.17 0.2,-0.17l0.14 -0.19 0.1 -0.27 0.13 -0.42 0.03 -0.39 0.07 -0.44 -0.01 -0.32 -0.01 -0.29 0.12 0.06c0,0 0.17,-0.02 0.17,0 -0,0.03 0.19,0 0.19,0l0.26 -0 0.23 0.02 0.22 0.01 0.22 0.01 0.4 -0 0.86 -0.02c0,0 0.28,-0.04 0.33,-0.03 0.05,0 0.3,-0.04 0.3,-0.04 0,0 0.22,-0.08 0.25,-0.08 0.03,0 0.29,-0.11 0.32,-0.14 0.04,-0.01 0.25,-0.08 0.26,-0.09 0.03,0 0.21,-0.09 0.23,-0.11 0.04,-0.01 0.24,-0.16 0.24,-0.16 0,0 0.25,-0.14 0.27,-0.17 0.03,-0.02 0.14,-0.15 0.16,-0.16 0.03,-0.02 0.14,-0.19 0.14,-0.19l0.14 -0.26 0.14 -0.32 0.07 -0.22 0.07 -0.31 0.04 -0.23 0 -0.22 -0.01 -0.23 -0.04 -0.14 -0.1 -0.23 -0.36 0.64 0.07 0.4 -0.52 0.28 -0.05 0.64 -0.79 0.15 -0.66 0.5 -0.68 -0.3 -0.88 0.65 -0.51 -0.7 -1.01 0.57 -0.4 -0.65 -1.37 0.63 -0.45 -0.63 -1.74 0.67 -0.23 -1.36 -2.61 0.3 -0.16 -0.87 -1.94 0.37 -0.27 -0.55 -0.97 0.22 -1.07 -0.81 -1.5 0.21 -0.22 -0.66 -1.01 0.25 -0.82 -0.33 -0.57 0.02 -0.6 -0.17 -0.68 -0.18 -0.4 -0.19 0.21 0.18 0.31 0.19 0.39 0.18 0.81 0.23 0.64 0.18 0.55 0.14 0.29 0.1 0.35 0.15 0.27 0.16c0,0 0.14,0.13 0.14,0.15 0.02,0.03 0.1,0.2 0.1,0.2l0.01 0.14 -0.06 0.17 -0.12 0.15 -0.14 0.13 -0.51 0.13 -0.66 0.09 -0.18 -0.02 -0.14 -0.15 -0.5 -0.25 -0.21 -0.03 -0.13 -0.01 -0.07 0.1 0.01 0.08 0.15 0.08 0.38 0.1 0.08 0.05 -0.03 0.02 -0.24 -0.03 -0.32 -0.08 -0.11 0.04 -0.05 0.09 0.11 0.05 0.27 0.08 0.32 0.04 0.05 0.03 -0 0.02 -0.1 -0.01 -0.35 0.01 -0.23 -0.02 -0.07 0.06 0.05 0.09 0.11 0.05 0.23 0.02 0.28 0 0.12 -0.03 -0.03 0.05 -0.12 0.03c0,0 -0.42,0.01 -0.44,0.01 -0.03,-0 -0.15,0.03 -0.15,0.03l-0.03 0.05 0.05 0.07 0.19 0.03 0.28 -0.04 0.17 -0.02 0.05 0.03 -0.03 0.05 -0.22 0.06c0,0 -0.23,0.04 -0.24,0.05 -0.03,-0 -0.16,0.04 -0.16,0.04l-0.05 0.03 0.03 0.04 0.12 0.04 0.14 0.02 0.27 -0.01 0.22 -0.12 0.22 -0.15 0.13 0.01 0.11 0.09 0.18 0.06 0.2 0.02 0.29 0.01 0.37 0.09 0.29 0.01 0.31 0 0.23 -0 0.22 0.01c0,0 0.19,-0.06 0.23,-0.07 0.02,0 0.17,-0.12 0.18,-0.14l0.19 -0.15 0.15 -0.18 0.12 -0.18 0.18 -0.29 0.12 -0.22 0.34 0.24zm14.98 -4.53l-14.98 4.53zm14.98 -4.53l0.24 0.1 0.12 0.16 0.05 0.13 -0.01 0.18 0.03 0.17 0.08 0.11 0.45 0.25 -0.17 0.43 0.25 0.35 -0.21 0.38 0.27 0.33 -0.35 0.57 0.08 0.5 -0.5 0.31 -0.17 0.58 -0.69 0.12 -0.44 0.36 -0.69 -0.17 -0.71 0.37 -0.79 -0.42 -0.82 0.38 -0.54 -0.5 -1.19 0.39 -0.63 -0.52 -1.47 0.8 -0.39 -1.45 -2.44 0.34 -0.3 -0.83 -1.96 0.32 -0.37 -0.49 -0.83 0.15 -1.09 -0.79 -1.49 0.34 -0.31 -0.72 -1.17 0.33 -0.69 -0.47 -0.72 0.18 -0.39 -0.29 -0.48 0.02 0.06 -0.11 0.01 -0.08 -0 -0.13 -0.1 -0.03 -0.09 -0.02 -0.08 -0.01 -0.07 0.03 -0.08 0.06 -0.06 0.17 -0.39 -0.27 -0.15 0.05 -0.09 0.04 -0.28 -0.09 -0.17 -0.16 -0.01 -0.1 0.03 -0.11 0.05 -0.08 0.1 -0.08 0.15 -0.02 0.27 -0.05 0.29 -0.02 0.44 0.01 0.37 -0 0.38 0.06 0.33 0.05 0.37 0.11 0.28 0.09 0.23 0.06 0.32 0.08c0,0 0.29,0.04 0.3,0.05 0.02,0 0.28,0.02 0.28,0.02l0.44 -0.07 0.29 -0.11 0.26 -0.13 0.33 -0.16 0.48 -0.24 0.1 -0.08 0.05 -0.06 0.03 -0.11 -0.11 -0.11 -0.28 -0.15 -0.31 -0.19 -0.24 -0.16 -0.17 -0.16 -0.13 -0.05 -0.22 -0.01 -0.17 0.09 -0.19 -0 -0.15 -0.01 -0.17 -0.11 -0.07 -0.09 0.05 -0.03 0.25 0.02 0.27 0.01 0.08 -0.02 -0.04 -0.05 -0.17 -0 -0.3 -0.08 -0.1 -0.03 -0.02 -0.09 0.05 -0.08 0.13 -0.01 0.27 0.08 0.3 0.14 0.11 -0.02 0.01 -0.05 -0.16 -0.12 -0.25 -0.11 -0.19 -0.09 -0.1 -0.07 0.01 -0.08 0.06 -0.07 0.12 0.04 0.37 0.21 0.03 -0.02 0.03 -0.05 -0.15 -0.08 -0.27 -0.14 -0.06 -0.08 0.04 -0.07 0.08 -0.02 0.24 0.1 0.24 0.1 0.15 0.1 -0.01 -0.08 -0.23 -0.15 -0.12 -0.06 -0.08 -0.07 0.01 -0.05 0.09 -0.04 0.15 0.04 0.31 0.19 0.15 0.19 0.04 0.18 0.05 0.13 0.33 0.18 0.55 0.25 0.85 0.37 0.19 0.13 0.15 0.23 0.08 0.26 0.04 0.34 -0.06 0.24 -0.05 0.19 0.03 0.13 0.17 0 0.73 -0.01 0.69 0.04 0.88 -0.09 0.66 0.06 0.67 0.1 0.62 0.13 0.76 0.09 0.33 0.06 0.54 0.18 0.36 0.13 0.7 0.27 0.32 0.14 0.47 0.21 0.26 0.15 0.24 0.12 0.36 0.2 0.23 0.15 0.14 0.09 0.42 -0.29 0.31 -0.19 0.21 -0.16 0.18 -0.16 0.06 -0.05 0.02 -0.1 -0.08 -0.11 -0.08 -0.05 -0.14 -0.09 -0.23 -0.11 -0.11 -0.11 -0.1 -0.1 -0.06 -0.02 -0.13 -0.01 -0.1 0.05 -0.18 0.05 -0.1 0.03 -0.11 0.02 -0.17 0.02 -0.15 -0.04 -0.04 -0.06 -0.04 -0.08 0.03 -0.11 0.18 0.02 0.23 0.02 0.38 -0.03 0.06 -0.07 -0.11 -0.05 -0.43 0.02 -0.2 -0.02 -0.14 -0.06 0.02 -0.1 0.07 -0.03 0.31 0 0.4 0.09 0.08 0.01 -0.03 -0.07 -0.33 -0.06 -0.27 -0.08 -0.11 -0.09 0.01 -0.11 0.15 0.01 0.33 0.09 0.15 0.04 0.03 -0.05 -0.2 -0.13 -0.14 -0.09 -0.12 -0.13 0.05 -0.06 0.12 -0 0.32 0.21 0.26 0.13 -0.05 -0.13 -0.24 -0.19 -0.11 -0.09 -0.14 -0.09 0.02 -0.06 0.08 -0.06 0.36 0.22 0.35 0.36 0.43 0.26 0.58 0.23 0.55 0.32 0.11 0.11 0.08 0.26 -0 0.15 -0.03 0.18 -0.05 0.21 -0.1 0.21 -0.25 0.42 -0.22 0.36 0.06 0.11 0.21 0.1 0.78 0.12 0.79 0.14 0.83 -0.03 0.24 -0.05 0.23 -0.13 0.2 -0.17 0.13 -0.14 0.13 -0.23 0.09 -0.16 0.01 -0.14 0 -0.3 -0.01 -0.27 -0.05 -0.31 -0.06 -0.36 -0.03 -0.32 -0.1 -0.29 -0.08 -0.33 -0.06 -0.26 -0.07 -0.31 -0.05 -0.31 0.06 -0.2 0.06 -0.13 0.11 -0.02z"/>
     <path class="fil2" d="M143.04 49.72c0.13,-0.19 0.36,-0.27 0.52,-0.19 0.14,0.09 0.19,0.31 0.04,0.51 -0.12,0.2 -0.35,0.29 -0.51,0.21 -0.14,-0.09 -0.18,-0.34 -0.05,-0.53z"/>
     <path class="fil2" d="M141.75 50.13c0.12,-0.2 0.4,-0.26 0.61,-0.14 0.21,0.11 0.28,0.37 0.15,0.56 -0.13,0.19 -0.39,0.27 -0.61,0.14 -0.21,-0.11 -0.28,-0.37 -0.15,-0.56z"/>
     <path class="fil2" d="M140.45 49.76c0.1,-0.17 0.37,-0.19 0.59,-0.07 0.25,0.13 0.34,0.38 0.24,0.52 -0.11,0.15 -0.37,0.19 -0.59,0.07 -0.25,-0.13 -0.34,-0.35 -0.24,-0.52z"/>
     <path class="fil2" d="M138.96 48.88c0.09,-0.14 0.35,-0.16 0.58,-0.01 0.22,0.13 0.34,0.35 0.25,0.49 -0.1,0.12 -0.35,0.15 -0.57,0.03 -0.23,-0.14 -0.34,-0.35 -0.26,-0.5z"/>
     <path class="fil2" d="M137.65 48.03c0.12,-0.2 0.4,-0.26 0.62,-0.16 0.19,0.12 0.27,0.38 0.14,0.57 -0.13,0.19 -0.4,0.26 -0.61,0.15 -0.21,-0.11 -0.28,-0.37 -0.15,-0.56z"/>
     <path class="fil2 str0" d="M136.56 47.5c0.06,-0.09 0.17,-0.13 0.26,-0.08 0.09,0.05 0.1,0.17 0.05,0.26 -0.06,0.09 -0.18,0.12 -0.27,0.07 -0.09,-0.05 -0.11,-0.14 -0.04,-0.24z"/>
     <path class="fil2" d="M134.92 47.23c0.07,-0.1 0.26,-0.11 0.43,-0.01 0.17,0.1 0.28,0.27 0.2,0.37 -0.09,0.11 -0.28,0.12 -0.45,0.03 -0.17,-0.1 -0.25,-0.26 -0.19,-0.38z"/>
     <path class="fil2" d="M133.06 47.33c0.07,-0.1 0.26,-0.11 0.45,0 0.17,0.09 0.27,0.25 0.2,0.36 -0.09,0.11 -0.28,0.12 -0.46,0.01 -0.17,-0.09 -0.25,-0.26 -0.19,-0.38z"/>
     <path class="fil2" d="M131.34 47.37c0.06,-0.09 0.22,-0.1 0.39,-0 0.14,0.09 0.23,0.23 0.17,0.32 -0.06,0.09 -0.22,0.1 -0.39,0 -0.15,-0.09 -0.23,-0.23 -0.17,-0.32z"/>
    </g>
    <g id="_1963843848832">
     <path class="fil2" d="M175.7 51.09c0.12,0.16 0.05,0.38 -0.15,0.5 -0.18,0.13 -0.44,0.1 -0.55,-0.02 -0.12,-0.16 -0.06,-0.36 0.15,-0.5 0.18,-0.13 0.42,-0.11 0.55,0.03z"/>
     <path class="fil2" d="M182.51 52.69c0.2,0.23 0.19,0.53 -0,0.65 -0.19,0.15 -0.49,0.05 -0.68,-0.19 -0.18,-0.22 -0.17,-0.52 0,-0.65 0.2,-0.12 0.51,-0.04 0.68,0.19z"/>
     <path class="fil2" d="M177.37 49.48c0.14,0.17 0.08,0.42 -0.1,0.55 -0.2,0.12 -0.44,0.1 -0.6,-0.08 -0.12,-0.16 -0.07,-0.39 0.11,-0.52 0.21,-0.14 0.44,-0.1 0.59,0.05z"/>
     <path class="fil2" d="M179.97 51.65c0.17,0.21 0.13,0.49 -0.08,0.65 -0.21,0.14 -0.51,0.09 -0.69,-0.13 -0.17,-0.21 -0.11,-0.48 0.1,-0.64 0.21,-0.14 0.51,-0.09 0.67,0.12z"/>
     <path class="fil2" d="M177.22 51.17c0.13,0.14 0.1,0.33 -0.04,0.44 -0.16,0.1 -0.36,0.05 -0.46,-0.09 -0.13,-0.14 -0.1,-0.33 0.03,-0.43 0.16,-0.1 0.36,-0.05 0.47,0.07z"/>
     <path class="fil2" d="M182.95 54.78l-0.82 -0.46 -0.6 -0.29 -0.93 -0.31 -1.21 -0.44 -1.19 -0.29c0,0 -1.72,-0.35 -1.75,-0.34 -0.02,-0.01 -1.5,-0.16 -1.5,-0.16l-1.45 0.13 -1.37 0.22 -0.41 0.1 -0.14 -0.03c0,0 -0.17,-0.16 -0.16,-0.18 -0.01,-0.03 -0.18,-0.31 -0.18,-0.31l-0.06 -0.17c0,-0.05 -0.01,-0.17 0,-0.19 -0.01,-0.03 0.01,-0.16 0.01,-0.16 0,0 -0.02,-0.1 -0.04,-0.16 0,-0.05 -0.08,-0.14 -0.08,-0.14l0.01 -0.16c0,0 0.05,-0.23 0.06,-0.25 -0.01,-0.03 0.14,-0.2 0.14,-0.2l0.32 -0.17 0.95 -0.24 0.42 -0.02 0.18 0.08 0.2 0.14 0.36 0.18 0.51 0.1 0.25 -0.03 0.09 -0.07 0.04 -0.07 -0.07 -0.06 -0.23 -0.04 -0.4 -0.06 -0.19 -0.08 0 -0.05 0.29 0.02 0.29 0.02 0.15 -0.03 0.02 -0.08 -0.14 -0.08 -0.26 -0.03 -0.2 -0.02 0 -0.05 0.19 -0.01 0.16 -0.01 0.14 -0.06 0.01 -0.11 -0.1 -0.01c0,0 -0.18,-0.05 -0.2,-0.04 -0.02,-0.01 -0.17,-0.02 -0.17,-0.02l0.02 -0.04 0.31 0.03 0.12 -0.03 0.03 -0.05 -0.08 -0.09 -0.19 -0.03 -0.23 -0.01 -0.16 0.05 -0.09 -0.03 0.1 -0.04 0.25 -0.03 0.23 0.04 0.09 -0.02 -0.1 -0.1 -0.18 -0.1 -0.18 -0.03 -0.21 0 -0.18 0.04 -0.12 0.08 -0.15 -0.01 -0.2 -0.04 -0.31 -0.08 -0.44 0.01 -0.63 0.02 -0.51 -0 -0.4 0.08 -0.37 0.03c0,0 -0.23,0.04 -0.26,0.04 -0.01,0.02 -0.23,0.22 -0.23,0.22l-0.12 0.21 -0.08 0.33 -0.07 0.5 0.03 0.46 0.01 0.49 0.04 0.39 0.08 0.32 -0.15 -0.06c0,0 -0.22,0.02 -0.22,-0.03 0.01,-0.02 -0.22,0.02 -0.22,0.02l-0.32 -0.02 -0.26 -0.03 -0.26 -0.03 -0.25 -0 -0.51 -0 -1.02 -0.01c0,0 -0.32,0.03 -0.37,0.03 -0.08,0 -0.36,0.05 -0.36,0.05 0,0 -0.27,0.08 -0.3,0.09 -0.02,-0.01 -0.31,0.1 -0.35,0.13 -0.03,0.01 -0.29,0.1 -0.3,0.09 -0.03,0.01 -0.23,0.13 -0.26,0.14 -0.04,0.02 -0.25,0.17 -0.25,0.17 0,0 -0.26,0.18 -0.29,0.19 -0.04,0.02 -0.15,0.17 -0.19,0.2l-0.12 0.21 -0.14 0.3 -0.08 0.37 -0.07 0.26 -0.02 0.36 -0.02 0.27 0.06 0.27 0.04 0.25 0.07 0.15 0.16 0.3 0.34 -0.75 -0.16 -0.49 0.58 -0.31 -0.05 -0.78 0.92 -0.14 0.7 -0.57 0.89 0.38 0.93 -0.74 0.74 0.83 1.12 -0.64 0.59 0.77 1.54 -0.71 0.65 0.76 1.97 -0.75 0.49 1.6 3.09 -0.27 0.34 1.03 2.29 -0.4 0.4 0.66 1.15 -0.23 1.4 0.97 1.77 -0.2 0.36 0.78 1.2 -0.27 1.04 0.39 0.68 0.01 0.75 0.21 0.84 0.23 0.54 0.23 -0.31 -0.22 -0.4 -0.25 -0.49 -0.22 -1.02 -0.29 -0.8 -0.21 -0.71 -0.19 -0.36 -0.13 -0.43 -0.19 -0.35 -0.19c0,0 -0.19,-0.16 -0.2,-0.18 -0.01,-0.03 -0.16,-0.23 -0.16,-0.23l-0.05 -0.19 0.05 -0.18 0.1 -0.18 0.16 -0.15 0.59 -0.14 0.79 -0.09 0.22 0.03 0.18 0.17 0.64 0.31 0.25 0.05 0.18 0 0.06 -0.11 -0.03 -0.09 -0.2 -0.09 -0.46 -0.14 -0.13 -0.05 0.05 -0.04 0.29 0.07 0.38 0.1 0.15 -0.04 0.04 -0.12 -0.15 -0.06 -0.33 -0.09 -0.38 -0.05 -0.08 -0.04 0.04 -0.02 0.1 0.01 0.42 0.02 0.29 0.02 0.06 -0.06 -0.06 -0.13 -0.15 -0.06 -0.26 -0.03 -0.36 0.01 -0.13 -0 0.02 -0.04 0.16 -0.05c0,0 0.51,0 0.53,0.01 0.02,0.01 0.17,-0.02 0.17,-0.02l0.03 -0.05 -0.08 -0.09 -0.23 -0.01 -0.33 0 -0.2 0.03 -0.06 -0.03 0.03 -0.05 0.27 -0.06c0,0 0.26,-0.05 0.28,-0.05 0.01,-0.02 0.18,-0.04 0.18,-0.04l0.05 -0.04 -0.05 -0.05 -0.15 -0.06 -0.18 -0 -0.33 0 -0.25 0.12 -0.22 0.16 -0.16 0.01 -0.17 -0.12 -0.21 -0.07 -0.26 -0.03 -0.37 -0.02 -0.45 -0.11 -0.37 -0.02 -0.36 -0.04 -0.27 0.03 -0.26 -0.03c0,0 -0.22,0.07 -0.25,0.07 -0.03,0.01 -0.21,0.14 -0.22,0.16 -0.01,0.02 -0.2,0.17 -0.2,0.17l-0.16 0.19 -0.12 0.21 -0.16 0.33 -0.12 0.26 -0.46 -0.28zm-17.22 4.91l17.22 -4.91zm-17.22 4.91l-0.31 -0.13 -0.17 -0.21 -0.07 -0.15 -0.04 -0.21 -0.07 -0.2 -0.11 -0.13 -0.6 -0.29 0.13 -0.51 -0.33 -0.42 0.16 -0.42 -0.39 -0.4 0.34 -0.65 -0.17 -0.61 0.52 -0.34 0.13 -0.7 0.78 -0.12 0.47 -0.39 0.86 0.2 0.79 -0.4 1.03 0.53 0.91 -0.45 0.74 0.6 1.38 -0.42 0.84 0.61 1.64 -0.88 0.72 1.73 2.87 -0.34 0.48 0.97 2.3 -0.33 0.53 0.6 0.97 -0.14 1.44 0.94 1.76 -0.35 0.5 0.84 1.34 -0.35 0.93 0.59 0.8 -0.21 0.53 0.34 0.58 0.02 -0.06 0.11 -0.01 0.11 0.05 0.14 0.11 0.04 0.11 0.04 0.1 0.01 0.07 -0.03 0.08 -0.1 0.04 -0.16 0.52 0.31 0.19 -0.06 0.11 -0.06 0.34 0.12 0.21 0.17 0.03 0.13 -0.02 0.13 -0.04 0.12 -0.13 0.09 -0.19 0.01 -0.28 0.05 -0.36 0.01 -0.51 -0 -0.45 -0.02 -0.47 -0.07 -0.4 -0.06 -0.48 -0.15 -0.34 -0.12 -0.29 -0.07 -0.4 -0.11c0,0 -0.33,-0.04 -0.37,-0.07 -0.02,-0.01 -0.31,-0.03 -0.31,-0.03l-0.55 0.07 -0.32 0.12 -0.28 0.14 -0.37 0.17 -0.51 0.27 -0.13 0.09 -0.05 0.09 -0.02 0.13 0.15 0.1 0.35 0.19 0.43 0.24 0.31 0.22 0.21 0.17 0.19 0.08 0.26 -0.02 0.2 -0.08 0.23 0.01 0.18 0.03 0.21 0.12 0.1 0.1 -0.03 0.05 -0.31 -0.03 -0.31 -0.03 -0.1 0.04 0.07 0.06 0.2 0.02 0.36 0.08 0.13 0.05 0.04 0.11 -0.05 0.09 -0.16 0.01 -0.33 -0.09 -0.39 -0.17 -0.13 -0 0.01 0.08 0.18 0.13 0.35 0.15 0.23 0.13 0.15 0.06 -0 0.09 -0.07 0.08 -0.16 -0.04 -0.5 -0.25 -0.01 0.02 -0.04 0.07 0.19 0.11 0.32 0.16 0.1 0.1 -0.02 0.08 -0.11 0.01 -0.29 -0.12 -0.29 -0.12 -0.21 -0.12 0.02 0.06 0.32 0.2 0.14 0.08 0.11 0.08 -0.01 0.06 -0.07 0.03 -0.21 -0.03 -0.4 -0.25 -0.2 -0.23 -0.06 -0.22 -0.12 -0.16 -0.42 -0.21 -0.71 -0.33 -1.06 -0.47 -0.27 -0.15 -0.21 -0.26 -0.15 -0.32 -0.11 -0.39 0.03 -0.29 0.04 -0.21 -0.07 -0.15 -0.23 -0.01 -0.84 -0 -0.83 -0.07 -1.04 0.08 -0.81 -0.1 -0.82 -0.13 -0.75 -0.16 -0.94 -0.15 -0.4 -0.06 -0.66 -0.23 -0.47 -0.17 -0.89 -0.33 -0.41 -0.18 -0.59 -0.23 -0.34 -0.21 -0.3 -0.15 -0.48 -0.24 -0.28 -0.18 -0.2 -0.09 -0.44 0.34 -0.34 0.21 -0.22 0.16 -0.19 0.2 -0.06 0.06 -0.03 0.1 0.13 0.14 0.1 0.05 0.19 0.11 0.3 0.15 0.15 0.1 0.14 0.12 0.08 0.04 0.15 0.01 0.14 -0.06 0.18 -0.04 0.12 -0.03 0.12 -0.03 0.2 -0.03 0.2 0.06 0.07 0.06 0.05 0.1 -0.02 0.13 -0.22 -0.03 -0.29 -0.02 -0.45 0.03 -0.04 0.07 0.12 0.07 0.53 -0.03 0.23 0.04 0.19 0.08 -0.01 0.11 -0.08 0.05 -0.37 -0.02 -0.48 -0.1 -0.09 -0.03 0.03 0.09 0.39 0.08 0.35 0.1 0.15 0.1 0.01 0.12 -0.2 -0.02 -0.41 -0.13 -0.17 -0.02 -0.04 0.02 0.26 0.17 0.17 0.12 0.15 0.15 -0.02 0.08 -0.15 -0.01 -0.42 -0.26 -0.33 -0.14 0.1 0.15 0.3 0.24 0.16 0.09 0.18 0.13 -0.04 0.07 -0.07 0.03 -0.47 -0.26 -0.48 -0.43 -0.57 -0.31 -0.73 -0.29 -0.72 -0.4 -0.17 -0.11 -0.13 -0.31 -0.02 -0.2 0.01 -0.2 0.03 -0.24 0.09 -0.25 0.22 -0.48 0.21 -0.42 -0.09 -0.12 -0.27 -0.11 -0.95 -0.18 -0.97 -0.19 -1.03 0.01 -0.27 0.06 -0.25 0.17 -0.23 0.18 -0.12 0.17 -0.15 0.27 -0.05 0.18 -0.02 0.18 0.07 0.34 0.08 0.32 0.09 0.35 0.16 0.44 0.1 0.38 0.16 0.35 0.14 0.38 0.12 0.3 0.14 0.38 0.09 0.35 -0.03 0.24 -0.06 0.15 -0.12 0.03z"/>
    </g>
    <g id="_1963843842336">
     <path class="fil2" d="M236.36 57.97c0.04,0.12 -0.01,0.26 -0.12,0.29 -0.11,0.04 -0.24,-0.03 -0.28,-0.15 -0.05,-0.11 0.01,-0.24 0.12,-0.28 0.11,-0.05 0.24,0.02 0.28,0.14z"/>
     <path class="fil2" d="M236.38 56.84c0.03,0.1 -0.02,0.2 -0.12,0.23 -0.1,0.04 -0.21,-0.01 -0.24,-0.1 -0.04,-0.1 0.02,-0.21 0.12,-0.25 0.1,-0.04 0.21,0.01 0.25,0.11z"/>
     <path class="fil2" d="M237.25 57.66c0.05,0.18 0.01,0.37 -0.11,0.41 -0.12,0.04 -0.27,-0.07 -0.34,-0.25 -0.06,-0.18 -0.02,-0.36 0.1,-0.41 0.12,-0.04 0.28,0.07 0.35,0.25z"/>
     <path class="fil2" d="M237.03 58.97c0.02,0.08 -0.01,0.17 -0.09,0.2 -0.08,0.03 -0.17,-0.02 -0.2,-0.1 -0.03,-0.09 0.01,-0.18 0.08,-0.21 0.08,-0.02 0.17,0.02 0.2,0.11z"/>
     <path class="fil2" d="M238.4 58.78c0.05,0.15 -0.05,0.31 -0.21,0.38 -0.17,0.05 -0.35,-0.01 -0.39,-0.16 -0.05,-0.15 0.04,-0.31 0.21,-0.36 0.16,-0.06 0.33,0.01 0.39,0.15z"/>
     <path class="fil2" d="M238 59.83c0.05,0.16 0.02,0.31 -0.08,0.35 -0.1,0.04 -0.22,-0.06 -0.28,-0.21 -0.05,-0.16 -0.02,-0.31 0.09,-0.35 0.09,-0.03 0.22,0.06 0.27,0.21z"/>
     <path class="fil2" d="M236.9 60.17c0.05,0.15 -0.01,0.29 -0.11,0.34 -0.11,0.03 -0.24,-0.05 -0.3,-0.19 -0.04,-0.14 -0,-0.29 0.11,-0.34 0.11,-0.04 0.24,0.05 0.3,0.19z"/>
     <path class="fil2" d="M237.74 61.04c0.03,0.09 -0.01,0.2 -0.1,0.23 -0.09,0.03 -0.19,-0.01 -0.23,-0.12 -0.03,-0.09 0.02,-0.2 0.1,-0.23 0.09,-0.03 0.19,0.01 0.23,0.12z"/>
     <path class="fil2" d="M236.24 59.06c0.02,0.05 -0,0.12 -0.05,0.15 -0.06,0.01 -0.12,-0.01 -0.14,-0.08 -0.02,-0.06 0,-0.13 0.05,-0.15 0.06,-0.03 0.12,0.01 0.14,0.08z"/>
     <path class="fil2" d="M236.74 61.53c0.04,0.12 0.01,0.27 -0.07,0.3 -0.09,0.03 -0.2,-0.05 -0.25,-0.18 -0.04,-0.13 -0.01,-0.26 0.08,-0.3 0.09,-0.03 0.2,0.04 0.24,0.18z"/>
     <path class="fil2" d="M236.76 62.88c0.04,0.11 -0.01,0.23 -0.11,0.27 -0.1,0.04 -0.21,-0.02 -0.24,-0.14 -0.05,-0.11 0.01,-0.22 0.11,-0.26 0.1,-0.05 0.21,0.01 0.25,0.12z"/>
     <path class="fil2" d="M237.36 62.81c0.01,0.03 -0,0.07 -0.03,0.09 -0.04,0.01 -0.08,-0 -0.09,-0.05 -0.01,-0.03 0,-0.07 0.04,-0.08 0.04,-0.02 0.08,0.01 0.09,0.04z"/>
     <path class="fil2" d="M237.6 61.8c0.03,0.09 -0.04,0.19 -0.17,0.23 -0.12,0.04 -0.25,0.01 -0.27,-0.07 -0.03,-0.09 0.04,-0.19 0.17,-0.23 0.12,-0.05 0.24,-0.02 0.27,0.07z"/>
     <path class="fil2" d="M238.08 57.6c0.03,0.09 -0.03,0.19 -0.15,0.23 -0.11,0.04 -0.23,0.01 -0.25,-0.07 -0.03,-0.09 0.03,-0.19 0.15,-0.23 0.11,-0.05 0.22,-0 0.25,0.07z"/>
     <path class="fil2" d="M237.26 56.68c0.03,0.09 0.01,0.18 -0.06,0.2 -0.07,0.03 -0.15,-0.01 -0.18,-0.1 -0.03,-0.08 0,-0.17 0.07,-0.2 0.06,-0.03 0.15,0.03 0.17,0.11z"/>
     <path class="fil2" d="M236.41 55.5c0.03,0.1 0.01,0.2 -0.06,0.22 -0.07,0.03 -0.15,-0.02 -0.18,-0.13 -0.04,-0.1 -0,-0.19 0.07,-0.22 0.06,-0.03 0.14,0.04 0.17,0.13z"/>
     <path class="fil2" d="M232.7 53.04c0.08,-0.03 0.34,-0.14 0.55,-0.25 0.22,-0.11 0.45,-0.23 0.59,-0.3 0.14,-0.08 0.44,-0.24 0.44,-0.24 0,0 0.31,-0.19 0.38,-0.23 0.08,-0.04 0.32,-0.21 0.32,-0.21l0.35 -0.25 0.05 -0.24 0.13 -0.1 0.24 -0.06c0.08,0 0.41,0.01 0.41,0.01 0,0 0.38,-0.16 0.45,-0.2 0.08,-0.04 0.45,-0.28 0.59,-0.31 0.13,-0.03 0.64,-0.3 0.74,-0.34 0.09,-0.05 0.31,-0.13 0.4,-0.18 0.1,-0.05 0.45,-0.23 0.45,-0.23l0.48 -0.22 -0.05 -0.34 -0.05 -0.18 0.13 -0.15c0,0 0.16,-0.04 0.26,-0.03 0.09,0.03 0.68,0.15 0.68,0.15l1.31 -0.28 0.42 -0.14 0.12 0.15 -0.38 0.33 -0.84 0.48c0,0 -0.57,0.36 -0.65,0.42 -0.09,0.05 -0.58,0.33 -0.58,0.33l-0.24 -0.2 -0.31 -0.1 -1.27 0.59 -0.84 0.37 -0.47 0.32 -0.23 0.31 0.19 0.51 0.04 0.6 0.17 0.49 0.09 0.42c0,0 -0.02,0.2 0.08,0.3 0.1,0.09 0.07,0.14 0.23,0.17 0.15,0.02 0.23,0.13 0.39,0.09 0.15,-0.05 0.56,-0.18 0.56,-0.18l0.22 -0.15 0.13 -0.36 -0.13 -0.51 0.14 -0.34 0.23 -0.23 0.25 -0.1 0.23 0.07 0.21 0.18 0.13 0.28 0.04 0.27 0.01 0.47 0.06 0.36c0,0 0.31,0.24 0.49,0.22 0.16,-0.01 0.26,-0.06 0.43,-0.08 0.17,-0.02 0.54,-0.1 0.54,-0.1 0,0 0.32,0.2 0.45,0.21 0.11,0.01 0.64,0.2 0.64,0.2l0.48 0.15 0.35 0.11 0.28 0.1 0.05 0.23c0,0 -0.09,0.12 -0.16,0.16 -0.07,0.04 -0.52,0.01 -0.52,0.01l-0.61 -0.23 -0.59 -0.16c0,0 -0.36,0.05 -0.53,0.06 -0.17,0.02 -0.38,0.13 -0.38,0.13l-0.07 0.39c0,0 -0.08,1.81 -0.06,1.92 0.01,0.11 -0.09,0.42 -0.09,0.42 0,0 0.01,0.42 -0.12,0.57 -0.14,0.14 -0.07,0.33 -0.07,0.33l-0.46 0.08 -0.53 0.18 -0.09 -0.16c0,0 -0.33,-1.33 -0.37,-1.42 -0.03,-0.09 -0.59,-1.45 -0.63,-1.54 -0.04,-0.09 -0.47,-0.69 -0.47,-0.69l-0.47 -0.26 -0.54 -0.26 -0.33 -0.52 -0.13 -0.44 -0.08 -0.61 -0.09 -0.61 -0.18 -0.38 -0.25 -0.16 -0.49 0.44c0,0 -0.38,0.19 -0.49,0.25 -0.12,0.06 -0.7,0.37 -0.7,0.37l-0.86 0.41 -0.24 -0.02 0 0 0.01 -0.34zm7.44 6.16l-7.44 -6.16 7.44 6.16zm0 0l0.13 0.04c0,0 0.11,0.17 0.14,0.22 0.02,0.05 0.1,0.22 0.14,0.29 0.04,0.08 0.16,0.16 0.2,0.26 0.05,0.1 0.17,0.31 0.17,0.31l0.15 0.31c0,0 -0.05,0.27 -0.04,0.36 0.02,0.08 -0.14,0.5 -0.14,0.5 0,0 -0.15,0.31 -0.14,0.43 -0,0.12 0.1,0.33 0.1,0.33l0.12 0.07 0.34 -0.03 0.14 0.1 -0.04 0.16c0,0 -0.2,0.16 -0.28,0.15 -0.09,-0 -0.43,0.03 -0.43,0.03 0,0 -0.31,0.07 -0.37,-0.05 -0.06,-0.12 -0.2,-0.47 -0.2,-0.47 0,0 0.21,-0.67 0.18,-0.72 -0.03,-0.07 0.04,-0.48 0.04,-0.48 0,0 -0.1,-0.32 -0.14,-0.39 -0.03,-0.08 -0.36,-0.58 -0.36,-0.58l-0.14 -0.12c0,0 -0.26,0.24 -0.31,0.34 -0.04,0.1 -0.34,0.57 -0.38,0.67 -0.03,0.12 -0.08,0.38 -0.1,0.53 -0.02,0.16 -0.15,0.42 -0.15,0.54 -0,0.12 0.01,0.3 0.06,0.42 0.03,0.14 0.24,0.27 0.24,0.27l0.35 -0.12 0.2 0.17 0.04 0.28 -0.39 0.09 -0.58 0.08 -0.43 -0.17 -0.11 -0.47c0,0 0.16,-0.61 0.17,-0.68 0.02,-0.09 0.17,-0.45 0.16,-0.55 -0.01,-0.09 0.07,-0.53 0.07,-0.53 0,0 0.02,-0.44 0.03,-0.54 0.01,-0.1 -0.02,-0.31 0.04,-0.36 0.07,-0.05 0.15,-0.29 0.15,-0.29l0.4 -0.27 0.59 -0.24 0.21 -0.04 0.15 0.12z"/>
    </g>
    <g id="_1963843838880">
     <path class="fil2" d="M266.66 39.85c0.19,0.12 0.2,0.37 0.05,0.58 -0.13,0.21 -0.42,0.29 -0.58,0.2 -0.19,-0.12 -0.2,-0.35 -0.05,-0.59 0.13,-0.21 0.39,-0.29 0.58,-0.2z"/>
     <path class="fil2" d="M274.43 38.75c0.31,0.16 0.42,0.47 0.26,0.68 -0.13,0.24 -0.49,0.26 -0.79,0.08 -0.28,-0.15 -0.39,-0.47 -0.26,-0.68 0.16,-0.21 0.52,-0.25 0.79,-0.08z"/>
     <path class="fil2" d="M267.75 37.48c0.21,0.12 0.25,0.4 0.12,0.62 -0.16,0.21 -0.42,0.29 -0.65,0.16 -0.19,-0.12 -0.23,-0.38 -0.1,-0.59 0.16,-0.23 0.42,-0.29 0.63,-0.19z"/>
     <path class="fil2" d="M271.35 38.69c0.26,0.15 0.34,0.46 0.18,0.72 -0.16,0.23 -0.5,0.3 -0.78,0.15 -0.26,-0.15 -0.32,-0.46 -0.15,-0.72 0.16,-0.23 0.5,-0.3 0.75,-0.15z"/>
     <path class="fil2" d="M268.28 39.31c0.19,0.1 0.24,0.31 0.14,0.48 -0.12,0.17 -0.36,0.21 -0.52,0.09 -0.19,-0.09 -0.24,-0.31 -0.14,-0.46 0.12,-0.17 0.36,-0.21 0.52,-0.11z"/>
     <path class="fil2" d="M275.75 40.76l-1.04 -0.14 -0.75 -0.06 -1.1 0.06 -1.45 0.03 -1.37 0.18c0,0 -1.94,0.33 -1.97,0.35 -0.02,-0 -1.63,0.45 -1.63,0.45l-1.47 0.72 -1.35 0.79 -0.39 0.27 -0.16 0.02c0,0 -0.24,-0.1 -0.24,-0.12 -0.02,-0.03 -0.32,-0.25 -0.32,-0.25l-0.13 -0.16c-0.02,-0.05 -0.08,-0.17 -0.07,-0.19 -0.02,-0.03 -0.05,-0.17 -0.05,-0.17 0,0 -0.06,-0.1 -0.1,-0.15 -0.02,-0.05 -0.14,-0.11 -0.14,-0.11l-0.05 -0.17c0,0 -0.04,-0.26 -0.04,-0.28 -0.02,-0.03 0.06,-0.27 0.06,-0.27l0.27 -0.31 0.9 -0.64 0.43 -0.2 0.23 0.01 0.27 0.06 0.45 0.04 0.57 -0.11 0.25 -0.13 0.07 -0.11 0.01 -0.09 -0.1 -0.04 -0.26 0.06 -0.44 0.1 -0.23 -0.01 -0.02 -0.05 0.32 -0.09 0.32 -0.09 0.14 -0.1 -0.01 -0.09 -0.17 -0.02 -0.29 0.08 -0.21 0.06 -0.02 -0.05 0.19 -0.09 0.16 -0.07 0.12 -0.12 -0.03 -0.12 -0.11 0.03c0,0 -0.2,0.02 -0.23,0.04 -0.02,-0 -0.18,0.04 -0.18,0.04l0.01 -0.04 0.34 -0.09 0.11 -0.08 0.01 -0.07 -0.12 -0.06 -0.21 0.04 -0.24 0.08 -0.14 0.12 -0.1 0.01 0.09 -0.08 0.25 -0.13 0.26 -0.06 0.08 -0.06 -0.14 -0.07 -0.22 -0.03 -0.21 0.04 -0.21 0.09 -0.17 0.12 -0.09 0.13 -0.16 0.05 -0.23 0.04 -0.36 0.04 -0.46 0.19 -0.65 0.28 -0.53 0.2 -0.39 0.25 -0.38 0.18c0,0 -0.22,0.13 -0.25,0.15 -0,0.02 -0.15,0.33 -0.15,0.33l-0.04 0.27 0.05 0.38 0.13 0.55 0.21 0.47 0.21 0.51 0.2 0.4 0.21 0.31 -0.18 -0c0,0 -0.22,0.11 -0.24,0.06 0,-0.02 -0.22,0.11 -0.22,0.11l-0.34 0.11 -0.29 0.08 -0.29 0.08 -0.27 0.1 -0.54 0.2 -1.07 0.41c0,0 -0.33,0.16 -0.38,0.18 -0.08,0.03 -0.36,0.2 -0.36,0.2 0,0 -0.25,0.2 -0.28,0.22 -0.03,-0 -0.29,0.24 -0.32,0.28 -0.03,0.02 -0.26,0.22 -0.28,0.22 -0.03,0.02 -0.18,0.23 -0.21,0.25 -0.03,0.04 -0.19,0.27 -0.19,0.27 0,0 -0.19,0.3 -0.22,0.32 -0.03,0.04 -0.08,0.24 -0.11,0.28l-0.04 0.27 -0.03 0.37 0.07 0.43 0.03 0.31 0.12 0.39 0.09 0.29 0.17 0.25 0.14 0.25 0.13 0.13 0.29 0.25 0.05 -0.92 -0.37 -0.44 0.48 -0.56 -0.37 -0.79 0.91 -0.52 0.5 -0.88 1.08 0.03 0.67 -1.16 1.11 0.57 0.91 -1.12 0.93 0.57 1.33 -1.37 0.99 0.53 1.76 -1.58 1.16 1.48 3.12 -1.54 0.78 0.94 2.24 -1.36 0.69 0.53 1.11 -0.7 1.86 0.44 1.77 -0.94 0.69 0.67 1.14 -0.77 1.24 -0.01 0.72 -0.27 0.87 -0.09 0.98 -0.1 0.66 0.02 -0.42 -0.1 -0.52 -0.09 -0.6 -0.04 -1.18 0.11 -0.93 0.1 -0.82 0.09 -0.43 0.01 -0.53 -0.03 -0.45 -0.06c0,0 -0.27,-0.08 -0.29,-0.11 -0.02,-0.03 -0.25,-0.17 -0.25,-0.17l-0.13 -0.18 -0.02 -0.21 0.03 -0.23 0.11 -0.22 0.56 -0.39 0.79 -0.42 0.24 -0.06 0.26 0.11 0.8 0.07 0.29 -0.05 0.19 -0.07 0.02 -0.14 -0.06 -0.08 -0.25 -0.01 -0.54 0.04 -0.15 0 0.03 -0.07 0.34 -0.05 0.44 -0.06 0.14 -0.1 -0.01 -0.14 -0.18 -0 -0.38 0.04 -0.42 0.1 -0.1 -0.01 0.03 -0.04 0.11 -0.03 0.45 -0.15 0.32 -0.09 0.04 -0.09 -0.11 -0.11 -0.18 -0 -0.29 0.08 -0.38 0.16 -0.13 0.05 0.01 -0.05 0.14 -0.12c0,0 0.53,-0.2 0.56,-0.2 0.03,0 0.17,-0.09 0.17,-0.09l0.01 -0.07 -0.12 -0.06 -0.24 0.08 -0.35 0.14 -0.19 0.11 -0.08 -0.01 0.01 -0.07 0.25 -0.17c0,0 0.25,-0.15 0.28,-0.17 0,-0.02 0.17,-0.12 0.17,-0.12l0.03 -0.06 -0.07 -0.03 -0.18 -0 -0.19 0.07 -0.35 0.14 -0.21 0.23 -0.16 0.26 -0.16 0.07 -0.22 -0.05 -0.26 0.01 -0.29 0.08 -0.4 0.13 -0.52 0.07 -0.4 0.13 -0.39 0.11 -0.27 0.15 -0.29 0.08c0,0 -0.2,0.16 -0.23,0.18 -0.03,0.02 -0.16,0.23 -0.16,0.26 -0,0.02 -0.14,0.26 -0.14,0.26l-0.09 0.27 -0.04 0.27 -0.03 0.41 -0.02 0.32 -0.59 -0.1zm-16.03 12.15l16.03 -12.15zm-16.03 12.15l-0.38 -0 -0.26 -0.15 -0.13 -0.13 -0.12 -0.2 -0.15 -0.18 -0.17 -0.09 -0.75 -0.06 -0.07 -0.59 -0.52 -0.3 -0 -0.51 -0.57 -0.26 0.09 -0.82 -0.43 -0.57 0.41 -0.57 -0.15 -0.78 0.77 -0.45 0.34 -0.6 0.98 -0.14 0.66 -0.74 1.3 0.13 0.77 -0.84 1.02 0.33 1.28 -1 1.12 0.29 1.36 -1.59 1.46 1.52 2.87 -1.52 0.9 0.82 2.28 -1.28 0.8 0.41 0.96 -0.54 1.89 0.4 1.69 -1.09 0.87 0.67 1.27 -0.91 1.21 0.24 0.76 -0.54 0.69 0.14 0.61 -0.22 -0.02 0.14 0.03 0.12 0.11 0.13 0.13 -0.01 0.13 -0.01 0.11 -0.03 0.06 -0.06 0.04 -0.13 -0.02 -0.19 0.67 0.11 0.17 -0.14 0.09 -0.1 0.41 -0.01 0.29 0.09 0.08 0.13 0.03 0.14 0.01 0.14 -0.1 0.15 -0.19 0.09 -0.28 0.17 -0.38 0.16 -0.54 0.2 -0.48 0.17 -0.52 0.11 -0.44 0.1 -0.56 0.04 -0.41 0.01 -0.34 0.05 -0.46 0.05c0,0 -0.37,0.09 -0.42,0.08 -0.02,-0 -0.34,0.09 -0.34,0.09l-0.55 0.29 -0.29 0.26 -0.24 0.27 -0.32 0.33 -0.42 0.5 -0.1 0.15 -0.01 0.11 0.03 0.14 0.19 0.05 0.45 0.06 0.55 0.08 0.42 0.1 0.29 0.09 0.23 0.01 0.27 -0.12 0.17 -0.16 0.24 -0.08 0.21 -0.04 0.27 0.04 0.14 0.07 -0.01 0.07 -0.34 0.09 -0.34 0.09 -0.09 0.08 0.1 0.04 0.21 -0.06 0.41 -0.06 0.15 -0 0.09 0.1 -0.02 0.11 -0.16 0.07 -0.38 0.04 -0.48 -0.02 -0.13 0.05 0.04 0.08 0.25 0.06 0.43 0.01 0.3 0.04 0.18 0 0.04 0.1 -0.04 0.11 -0.18 0.02 -0.62 -0.06 -0 0.02 -0.01 0.09 0.25 0.03 0.4 0.03 0.14 0.07 0.01 0.09 -0.11 0.05 -0.35 -0 -0.35 -0 -0.27 -0.04 0.04 0.05 0.42 0.08 0.17 0.02 0.15 0.04 0.01 0.07 -0.06 0.06 -0.24 0.06 -0.52 -0.09 -0.31 -0.16 -0.15 -0.21 -0.19 -0.12 -0.53 -0.05 -0.88 -0.05 -1.31 -0.06 -0.35 -0.05 -0.33 -0.18 -0.29 -0.27 -0.28 -0.36 -0.08 -0.31 -0.04 -0.24 -0.13 -0.13 -0.24 0.08 -0.88 0.34 -0.9 0.27 -1.06 0.5 -0.89 0.22 -0.91 0.2 -0.85 0.14 -1.04 0.23 -0.44 0.1 -0.79 0.03 -0.56 0.02 -1.07 0.01 -0.5 -0.02 -0.71 -0 -0.44 -0.09 -0.38 -0.03 -0.6 -0.06 -0.37 -0.07 -0.25 -0.01 -0.33 0.53 -0.28 0.36 -0.16 0.26 -0.11 0.28 -0.04 0.09 0.01 0.12 0.19 0.09 0.12 0.02 0.25 0.03 0.38 0.03 0.2 0.05 0.19 0.07 0.1 0.01 0.16 -0.05 0.12 -0.12 0.17 -0.12 0.11 -0.08 0.11 -0.08 0.19 -0.11 0.23 -0.01 0.1 0.04 0.09 0.08 0.03 0.14 -0.24 0.06 -0.32 0.1 -0.46 0.21 -0.01 0.09 0.15 0.02 0.54 -0.25 0.26 -0.06 0.23 0.01 0.03 0.12 -0.06 0.08 -0.4 0.13 -0.54 0.09 -0.1 0.01 0.06 0.08 0.44 -0.08 0.41 -0.04 0.2 0.05 0.06 0.12 -0.21 0.06 -0.48 0.03 -0.18 0.04 -0.03 0.04 0.34 0.07 0.22 0.05 0.21 0.1 0.01 0.09 -0.16 0.05 -0.54 -0.1 -0.4 -0.01 0.16 0.11 0.41 0.13 0.2 0.03 0.25 0.06 -0.01 0.09 -0.06 0.06 -0.6 -0.08 -0.67 -0.26 -0.72 -0.1 -0.88 -0.01 -0.92 -0.13 -0.22 -0.05 -0.27 -0.27 -0.1 -0.2 -0.07 -0.22 -0.06 -0.26 -0.01 -0.3 0.03 -0.6 0.05 -0.53 -0.14 -0.09 -0.33 0 -1.07 0.2 -1.09 0.2 -1.07 0.43 -0.25 0.17 -0.19 0.27 -0.16 0.28 -0.06 0.22 -0.05 0.34 0.02 0.21 0.05 0.19 0.21 0.33 0.21 0.31 0.23 0.33 0.35 0.4 0.25 0.36 0.31 0.3 0.31 0.34 0.24 0.27 0.31 0.34 0.23 0.33 0.06 0.26 0 0.18 -0.11 0.08z"/>
    </g>
    <g id="_1963843836672">
     <path class="fil2" d="M108.51 37.84c-0.2,0.13 -0.22,0.41 -0.05,0.63 0.14,0.23 0.45,0.32 0.63,0.22 0.2,-0.13 0.22,-0.38 0.05,-0.63 -0.14,-0.23 -0.43,-0.32 -0.63,-0.22z"/>
     <path class="fil2 str0" d="M100.1 36.6c-0.33,0.17 -0.45,0.51 -0.29,0.74 0.14,0.26 0.53,0.28 0.86,0.09 0.31,-0.17 0.43,-0.51 0.29,-0.74 -0.17,-0.23 -0.56,-0.28 -0.86,-0.09z"/>
     <path class="fil2" d="M107.35 35.26c-0.23,0.13 -0.27,0.44 -0.13,0.67 0.17,0.23 0.45,0.32 0.71,0.18 0.2,-0.13 0.25,-0.41 0.11,-0.64 -0.17,-0.25 -0.45,-0.32 -0.69,-0.21z"/>
     <path class="fil2" d="M103.44 36.56c-0.28,0.16 -0.37,0.5 -0.2,0.78 0.17,0.25 0.54,0.33 0.84,0.16 0.28,-0.16 0.35,-0.5 0.17,-0.77 -0.17,-0.25 -0.54,-0.33 -0.82,-0.17z"/>
     <path class="fil2" d="M106.76 37.24c-0.21,0.1 -0.26,0.33 -0.15,0.52 0.13,0.18 0.39,0.23 0.56,0.1 0.21,-0.1 0.26,-0.34 0.15,-0.5 -0.13,-0.18 -0.39,-0.22 -0.56,-0.13z"/>
     <path class="fil2" d="M98.66 38.77l1.13 -0.15 0.81 -0.06 1.19 0.07 1.57 0.04 1.48 0.2c0,0 2.11,0.37 2.14,0.39 0.03,-0 1.77,0.49 1.77,0.49l1.59 0.79 1.46 0.86 0.42 0.29 0.17 0.03c0,0 0.26,-0.11 0.26,-0.13 0.02,-0.03 0.35,-0.27 0.35,-0.27l0.14 -0.17c0.02,-0.05 0.09,-0.19 0.08,-0.21 0.02,-0.03 0.06,-0.18 0.06,-0.18 0,0 0.07,-0.11 0.12,-0.17 0.02,-0.05 0.15,-0.12 0.15,-0.12l0.06 -0.18c0,0 0.05,-0.28 0.04,-0.31 0.02,-0.03 -0.07,-0.29 -0.07,-0.29l-0.29 -0.34 -0.97 -0.7 -0.47 -0.21 -0.25 0.01 -0.29 0.06 -0.49 0.04 -0.62 -0.12 -0.27 -0.14 -0.07 -0.12 -0.01 -0.1 0.1 -0.04 0.28 0.06 0.48 0.11 0.25 -0.01 0.02 -0.05 -0.34 -0.1 -0.34 -0.1 -0.15 -0.11 0.01 -0.1 0.19 -0.02 0.31 0.08 0.23 0.07 0.02 -0.05 -0.21 -0.1 -0.17 -0.08 -0.13 -0.13 0.04 -0.13 0.11 0.03c0,0 0.22,0.02 0.25,0.04 0.03,-0 0.2,0.05 0.2,0.05l-0.01 -0.05 -0.37 -0.1 -0.12 -0.08 -0.01 -0.07 0.13 -0.07 0.23 0.05 0.26 0.09 0.15 0.13 0.11 0.01 -0.09 -0.09 -0.27 -0.14 -0.28 -0.06 -0.09 -0.06 0.15 -0.07 0.24 -0.03 0.23 0.05 0.23 0.09 0.18 0.13 0.1 0.14 0.17 0.05 0.25 0.04 0.39 0.05 0.49 0.21 0.7 0.31 0.58 0.22 0.42 0.27 0.41 0.2c0,0 0.24,0.14 0.27,0.17 0,0.02 0.16,0.36 0.16,0.36l0.04 0.29 -0.06 0.41 -0.14 0.6 -0.23 0.51 -0.23 0.56 -0.22 0.43 -0.23 0.33 0.19 0c0,0 0.23,0.12 0.26,0.07 -0,-0.02 0.24,0.12 0.24,0.12l0.37 0.13 0.31 0.08 0.31 0.08 0.29 0.11 0.58 0.22 1.16 0.45c0,0 0.35,0.18 0.41,0.2 0.09,0.04 0.39,0.22 0.39,0.22 0,0 0.27,0.21 0.3,0.24 0.03,-0 0.31,0.26 0.34,0.31 0.03,0.02 0.28,0.24 0.31,0.24 0.03,0.02 0.2,0.25 0.23,0.27 0.03,0.05 0.2,0.3 0.2,0.3 0,0 0.21,0.32 0.24,0.35 0.03,0.05 0.09,0.26 0.12,0.31l0.04 0.29 0.02 0.4 -0.08 0.46 -0.04 0.33 -0.14 0.42 -0.1 0.31 -0.18 0.27 -0.16 0.27 -0.15 0.14 -0.32 0.27 -0.05 -1 0.4 -0.48 -0.52 -0.61 0.41 -0.86 -0.98 -0.57 -0.54 -0.96 -1.18 0.03 -0.72 -1.26 -1.21 0.61 -0.98 -1.22 -1.02 0.61 -1.43 -1.49 -1.08 0.57 -1.9 -1.73 -1.27 1.6 -3.38 -1.68 -0.85 1.01 -2.42 -1.48 -0.75 0.58 -1.2 -0.77 -2.02 0.47 -1.92 -1.02 -0.75 0.73 -1.24 -0.84 -1.35 -0.02 -0.78 -0.3 -0.95 -0.1 -1.06 -0.11 -0.71 0.02 0.45 -0.11 0.56 -0.1 0.65 -0.04 1.28 0.13 1 0.12 0.89 0.11 0.47 0.01 0.57 -0.03 0.48 -0.06c0,0 0.29,-0.09 0.31,-0.12 0.02,-0.03 0.28,-0.19 0.28,-0.19l0.14 -0.19 0.02 -0.23 -0.03 -0.25 -0.11 -0.24 -0.6 -0.42 -0.86 -0.46 -0.26 -0.07 -0.29 0.11 -0.87 0.06 -0.31 -0.06 -0.2 -0.07 -0.02 -0.15 0.07 -0.09 0.27 -0.01 0.58 0.05 0.17 0 -0.04 -0.07 -0.36 -0.05 -0.47 -0.06 -0.15 -0.1 0.01 -0.15 0.19 -0 0.42 0.05 0.45 0.11 0.11 -0.01 -0.03 -0.05 -0.11 -0.04 -0.49 -0.16 -0.34 -0.11 -0.04 -0.09 0.12 -0.12 0.19 0 0.31 0.08 0.41 0.17 0.14 0.06 -0.01 -0.05 -0.15 -0.13c0,0 -0.58,-0.22 -0.61,-0.22 -0.03,0 -0.18,-0.1 -0.18,-0.1l-0.01 -0.07 0.13 -0.07 0.26 0.09 0.38 0.15 0.21 0.12 0.08 -0.01 -0.01 -0.07 -0.27 -0.19c0,0 -0.27,-0.17 -0.3,-0.19 -0,-0.02 -0.18,-0.13 -0.18,-0.13l-0.04 -0.07 0.08 -0.03 0.19 -0 0.2 0.07 0.38 0.15 0.22 0.25 0.17 0.28 0.18 0.08 0.24 -0.06 0.28 0.01 0.31 0.08 0.43 0.14 0.56 0.08 0.43 0.14 0.43 0.12 0.29 0.16 0.31 0.08c0,0 0.21,0.17 0.25,0.19 0.03,0.02 0.17,0.25 0.17,0.28 0,0.02 0.15,0.28 0.15,0.28l0.09 0.29 0.04 0.3 0.03 0.45 0.02 0.35 0.64 -0.11zm17.3 13.27l-17.3 -13.27zm17.3 13.27l0.41 -0 0.28 -0.16 0.15 -0.14 0.14 -0.22 0.17 -0.2 0.18 -0.1 0.82 -0.06 0.08 -0.64 0.56 -0.33 0.01 -0.55 0.62 -0.28 -0.09 -0.89 0.47 -0.61 -0.44 -0.62 0.16 -0.85 -0.83 -0.49 -0.36 -0.65 -1.06 -0.16 -0.71 -0.81 -1.41 0.14 -0.83 -0.92 -1.11 0.35 -1.38 -1.09 -1.22 0.31 -1.46 -1.74 -1.59 1.64 -3.1 -1.67 -0.98 0.88 -2.46 -1.4 -0.87 0.44 -1.04 -0.59 -2.05 0.42 -1.83 -1.19 -0.95 0.73 -1.37 -1 -1.31 0.25 -0.82 -0.59 -0.75 0.15 -0.66 -0.24 0.02 0.15 -0.04 0.13 -0.12 0.14 -0.14 -0.01 -0.14 -0.01 -0.11 -0.03 -0.06 -0.07 -0.05 -0.14 0.03 -0.2 -0.73 0.12 -0.18 -0.15 -0.1 -0.11 -0.44 -0.02 -0.32 0.09 -0.09 0.14 -0.03 0.15 -0.01 0.15 0.1 0.16 0.2 0.1 0.3 0.19 0.41 0.17 0.58 0.22 0.52 0.18 0.56 0.13 0.48 0.11 0.61 0.04 0.44 0.02 0.36 0.05 0.5 0.06c0,0 0.4,0.1 0.45,0.09 0.03,-0 0.37,0.1 0.37,0.1l0.59 0.32 0.31 0.28 0.26 0.29 0.35 0.36 0.45 0.54 0.1 0.16 0.02 0.12 -0.03 0.16 -0.21 0.05 -0.48 0.06 -0.59 0.08 -0.45 0.11 -0.32 0.09 -0.25 0.01 -0.29 -0.14 -0.19 -0.18 -0.26 -0.09 -0.22 -0.05 -0.3 0.04 -0.16 0.07 0.01 0.07 0.37 0.1 0.37 0.1 0.09 0.09 -0.1 0.04 -0.23 -0.07 -0.45 -0.07 -0.17 -0 -0.09 0.11 0.02 0.12 0.17 0.08 0.42 0.04 0.52 -0.02 0.14 0.06 -0.04 0.08 -0.27 0.06 -0.46 0.01 -0.32 0.04 -0.19 0 -0.04 0.1 0.04 0.12 0.2 0.02 0.68 -0.06 0 0.02 0.01 0.1 -0.27 0.04 -0.43 0.03 -0.16 0.07 -0.01 0.1 0.12 0.06 0.38 0 0.38 -0 0.3 -0.04 -0.05 0.06 -0.45 0.09 -0.19 0.02 -0.16 0.05 -0.02 0.08 0.06 0.07 0.26 0.07 0.56 -0.1 0.33 -0.17 0.16 -0.22 0.2 -0.13 0.57 -0.05 0.95 -0.05 1.42 -0.06 0.38 -0.05 0.36 -0.2 0.32 -0.29 0.3 -0.39 0.09 -0.34 0.05 -0.26 0.15 -0.14 0.26 0.09 0.95 0.37 0.97 0.3 1.14 0.55 0.97 0.25 0.99 0.22 0.92 0.15 1.13 0.25 0.48 0.11 0.85 0.04 0.61 0.02 1.15 0.02 0.55 -0.02 0.77 -0 0.48 -0.09 0.41 -0.03 0.65 -0.06 0.4 -0.08 0.27 -0.01 0.35 0.58 0.3 0.39 0.17 0.28 0.12 0.31 0.04 0.09 -0.01 0.13 -0.21 0.1 -0.13 0.02 -0.27 0.04 -0.41 0.03 -0.21 0.05 -0.21 0.08 -0.11 0.01 -0.17 -0.05 -0.13 -0.13 -0.18 -0.13 -0.12 -0.08 -0.12 -0.08 -0.21 -0.12 -0.25 -0.02 -0.1 0.04 -0.1 0.09 -0.03 0.16 0.26 0.07 0.34 0.1 0.5 0.24 0.01 0.1 -0.16 0.02 -0.58 -0.27 -0.28 -0.06 -0.25 0.01 -0.04 0.13 0.07 0.09 0.43 0.14 0.59 0.1 0.11 0.01 -0.07 0.08 -0.48 -0.09 -0.44 -0.04 -0.21 0.05 -0.06 0.13 0.23 0.07 0.53 0.03 0.2 0.05 0.03 0.05 -0.37 0.07 -0.24 0.06 -0.23 0.11 -0.01 0.1 0.17 0.05 0.59 -0.1 0.44 -0.01 -0.18 0.12 -0.45 0.13 -0.22 0.03 -0.27 0.06 0.01 0.1 0.06 0.07 0.65 -0.09 0.73 -0.27 0.78 -0.1 0.96 -0 1 -0.13 0.24 -0.06 0.29 -0.29 0.11 -0.21 0.08 -0.24 0.07 -0.29 0.01 -0.33 -0.03 -0.65 -0.05 -0.57 0.15 -0.1 0.36 0 1.15 0.22 1.18 0.22 1.16 0.47 0.27 0.19 0.2 0.3 0.18 0.3 0.06 0.24 0.05 0.37 -0.02 0.23 -0.05 0.21 -0.23 0.36 -0.23 0.33 -0.25 0.36 -0.38 0.43 -0.28 0.39 -0.34 0.32 -0.33 0.37 -0.26 0.28 -0.34 0.37 -0.25 0.36 -0.07 0.28 -0 0.2 0.12 0.08z"/>
    </g>
    <g id="_1963843826464">
     <path class="fil2" d="M32.42 12.55c0.15,0.18 0.09,0.3 0.11,0.48 -0.33,0.45 -0.76,0.5 -1.13,0.76 -0.54,0.37 -1.38,0.79 -1.84,1.19 -0.36,0.53 -0.84,0.87 -1.17,1.38 -0.37,0.35 -0.87,0.92 -1.32,1.09 -0.2,0.09 -0.55,0.09 -0.77,0.06 -0.24,-0.06 -0.45,-0.3 -0.64,-0.31 -0.35,-0.07 -0.98,0.52 -1.3,0.75 -0.28,0.21 -0.79,0.4 -1.1,0.61 -0.37,0.23 -0.61,0.61 -1.02,0.76 -0.13,0.29 0.08,0.55 0.2,0.81 0.07,0.7 0.47,1.27 0.4,1.99 -0.01,0.22 -0.72,1.7 -1.04,1.96 -0.17,0.17 -0.51,0.34 -0.68,0.51 -0.37,0.3 -0.67,0.76 -0.94,1.14 -0.54,0.42 -1,0.86 -1.59,1.13 -0.22,-0.01 -0.27,-0.04 -0.37,-0.2 0.04,-0.22 0.41,-0.57 0.43,-0.8 0.04,-0.27 -0.2,-0.38 -0.29,-0.61 -0.05,-0.05 -0.08,-0.1 -0.1,-0.18 -0.2,-0.38 -0.33,-0.82 -0.45,-1.25 -0.11,-0.06 -0.19,-0.06 -0.27,-0.09 -0.54,0.87 -0.62,1.76 -0.86,2.59 -0.1,0.34 -0.54,0.86 -0.77,1.08 -0.29,0.28 -0.45,0.72 -0.76,0.98 -0.09,0.09 -0.28,0.13 -0.39,0.2 -0.37,0.25 -0.77,0.68 -1.06,0.91 -0.13,-0.03 -0.16,-0.06 -0.24,-0.06 -0.18,-0.18 0.06,-0.49 -0.07,-0.7 -0.02,-0.05 -0.08,-0.08 -0.1,-0.13 -0.1,-0.08 -0.16,-0.13 -0.23,-0.21 -0.15,-0.16 -0.33,-0.34 -0.51,-0.55 -0.21,-0.19 -0.39,-0.4 -0.51,-0.6 0.22,-0.54 1,-1.83 0.92,-2.26 -0.08,-0.08 -0.93,-0.38 -1.19,-0.67 -0.05,-0.03 -0.08,-0.08 -0.1,-0.11 -0.13,-0.18 -0.23,-0.31 -0.49,-0.5 -0.21,-0.21 -0.38,-0.54 -0.53,-0.78 -0.31,-0.24 -0.18,-0.26 -0.24,-0.59 0.44,-0.62 2,-1.08 2.62,-0.99 0.12,-0.12 0.4,-0.33 0.39,-0.55 0.03,-0.02 0.03,-0.05 0.06,-0.07 -0.67,-0.24 -0.71,-0.39 -0.87,-0.9 0.48,-0.74 1.48,-0.64 2.08,-0.15 0.16,0.13 0.28,0.27 0.36,0.42 -0.07,0.19 -0.25,0.51 -0.42,0.65 0.05,0.08 0.1,0.18 0.12,0.28 0.4,0.2 0.69,0.34 1.07,0.29 0.24,-0.33 0.19,-0.54 0.29,-0.8 0.07,-0.22 0.38,-0.45 0.37,-0.68 0.53,-0.77 -0.18,-1.2 -0.52,-1.77 -0.03,-0.03 -0.08,-0.08 -0.1,-0.13 -0.1,-0.18 -0.19,-0.38 -0.27,-0.51 -0.12,-0.21 -0.11,-0.53 -0.2,-0.73 -0.27,-0.49 -0.6,-1.03 -0.64,-1.58 -0.45,-0.25 -0.77,-0.29 -1.17,-0.42 -0.62,-0.18 -0.86,-0.65 -1.06,-0.96 0.07,-0.25 0.11,-0.54 0.42,-0.65 0.17,-0.04 0.35,-0 0.52,-0.05 0.24,0.14 0.32,0.19 0.33,0.34 0.27,0.11 0.3,0.04 0.46,0.08 0.37,0.15 0.38,0.07 0.76,0.09 0.52,0 1.08,0.11 1.6,0.17 0.35,0.05 1.2,0.37 1.68,0.57 0.08,0.03 0.13,0.06 0.19,0.06 0.18,0.14 0.34,0.24 0.5,0.38 0.53,0.33 1.17,0.56 1.52,0.96 0.03,0.03 0.08,0.05 0.1,0.11 0.26,0.31 0.43,0.6 0.63,0.91 0.15,0.18 0.28,0.36 0.51,0.53 0.04,0.2 0.06,0.43 0.1,0.63 0.1,0.2 0.28,0.34 0.32,0.57 0.4,0.2 0.36,-0.13 0.67,-0.28 0.06,-0.05 0.11,-0.07 0.17,-0.11 0.53,-0.27 1.12,-0.46 1.5,-0.91 0.17,-0.09 0.63,-0.11 0.62,-0.39 0.01,-0.17 -0.2,-0.31 -0.27,-0.44 -0.07,-0.15 -0.01,-0.3 -0.03,-0.45 0.42,-0.6 1.44,-0.49 1.99,-0.96 0.36,-0.15 0.55,-0.17 0.87,-0.42 0.67,-0.24 1.13,-0.21 1.67,-0.67 0.95,-0.42 1.91,-0.96 2.88,-1.33 0.11,0.06 0.19,0.09 0.21,0.14zm-19.53 10.95l19.53 -10.95zm-19.53 10.95c-0.14,-0.01 -0.4,-0.1 -0.62,-0.18 -0.13,-0.06 -0.21,-0.09 -0.29,-0.12 -0.07,-0.2 -0.23,-0.26 -0.08,-0.5 0.24,0.04 0.46,0 0.7,0.07 0.11,0.03 0.19,0.09 0.29,0.14 0.02,0.15 0.13,0.53 -0.01,0.6zm4.94 -5.42l-4.94 5.42zm4.94 -5.42c-0.17,0.11 -0.21,0.34 -0.43,0.32 -0.16,-0.01 -0.39,-0.35 -0.49,-0.5 -0.17,-0.28 -0,-0.45 -0.28,-0.74 -0.05,-0.1 -0.07,-0.18 -0.09,-0.28 -0.24,-0.56 -0.7,-1.16 -0.48,-1.64 0.27,0.01 0.78,0.19 1.28,0.42 0.56,0.26 1.14,0.56 1.51,0.76 0.17,0.31 0.73,0.54 0.68,0.91 -0,0.02 -0.03,0.05 -0.03,0.07l-0.03 -0c-0.36,0.05 -1.34,0.52 -1.65,0.68zm2.1 1.89l-2.1 -1.89zm2.1 1.89c0.28,-0.16 0.43,-0.42 0.71,-0.53 0.24,-0.43 -0.22,-0.91 -0.36,-1.27 -0.03,-0 -0.03,-0 -0.05,-0.03l-0.14 -0.01c-0.19,-0.04 -0.94,0.22 -1.14,0.36 -0.26,0.18 -0.39,0.57 -0.62,0.81 -0.06,0.02 -0.11,0.07 -0.17,0.09 -0.06,0.05 -0.12,0.12 -0.18,0.21l-0 0.05c-0.1,0.29 -0.05,0.42 -0.23,0.73 -0.06,0.15 -0.05,0.35 -0.05,0.47 -0.06,0.1 -0.12,0.24 -0.21,0.34 -0.01,0.17 0.02,0.57 0.17,0.81 0.08,0.08 0.13,0.13 0.24,0.14 0.35,0.05 0.32,-0.4 0.21,-0.78 -0.09,-0.28 -0.21,-0.54 -0.24,-0.61 0.26,-0.21 0.44,-0.02 0.78,-0.35 0.03,-0.02 0.06,-0.02 0.11,-0.02 0.3,-0.08 1.03,-0.34 1.17,-0.41zm1.16 2.61l-1.16 -2.61zm1.16 2.61c-0.1,0.37 -0.51,0.84 -0.61,1.16 -0.03,0.12 -0.85,1.12 -0.97,1.21 -0.09,0.07 -0.14,0.07 -0.27,0.03 -0.06,-0.3 -0.21,-0.54 -0.36,-0.82 -0.1,-0.16 -0.17,-0.31 -0.22,-0.46 -0.05,-0.15 -0.03,-0.35 -0.08,-0.53 -0.05,-0.1 -0.1,-0.23 -0.14,-0.36 0.21,-0.31 0.42,-0.62 0.63,-0.93 0.85,-0.17 0.41,-0.57 0.88,-1.02 0.28,-0.23 0.71,-0.48 1.02,-0.69 0.08,0 0.14,0.01 0.24,0.04 0.02,0.13 0.04,0.23 0.06,0.35 0.13,0.65 0.1,1.15 -0.17,2.01zm-8.53 7.1l8.53 -7.1zm-8.53 7.1c-0.05,-0.08 -0.1,-0.13 -0.1,-0.23 -0.01,-0.22 0.19,-0.51 0.15,-0.71 -0.02,-0.13 -0.15,-0.23 -0.17,-0.36 -0.08,-0.03 -0.13,-0.06 -0.21,-0.09 -0.05,-0.03 -0.11,-0.06 -0.13,-0.06 -0.27,-0.07 -0.42,0.13 -0.66,0.11 -0.35,0 -0.65,-0.04 -0.98,0.07 -0.17,0.07 -0.71,0.11 -0.9,0.1 -0.24,-0.01 -0.52,0.02 -0.79,0.05 -0.11,0.02 -0.22,0.04 -0.33,0.03 -0.3,0.01 -0.66,0.06 -1.02,0.14 -0.5,0.1 -0.71,0.01 -1.22,-0.02 -0.33,-0.02 -0.71,0.08 -1.04,0.09 -0.27,-0.02 -0.5,-0.23 -0.75,-0.14 -0.8,0.2 -1.36,1.81 -0.98,2.28 0.05,0.05 0.04,0.18 0.18,0.21 0.16,0.01 0.3,-0.03 0.47,-0.07 0.42,-0.18 0.25,-0.98 0.88,-1.17 0.22,-0.09 0.49,0 0.73,-0.01 0.14,-0.02 0.28,-0.13 0.42,-0.15 0.38,-0.05 1.09,-0.09 1.45,-0.07 0.19,-0.01 0.33,-0.01 0.46,0 0.19,0.01 0.38,-0.03 0.71,-0.08 0.25,-0.04 0.55,-0.02 0.88,-0.07 0.03,0 1,0.08 1,0.13 0.02,0.05 0.15,0.18 0.07,0.23 -0.09,0.09 -0.18,0.24 -0.29,0.33 -0.14,0.09 -0.31,0.11 -0.45,0.17 -0.25,0.11 -0.25,0.13 -0.59,0.24 -0.92,0.32 -1.75,0.67 -2.62,1.02 -0.17,0.07 -0.33,0.11 -0.47,0.17 -0.25,0.09 -0.49,0.02 -0.79,0.03 -0.14,0.02 -0.53,0.17 -0.78,0.23 -0.25,0.06 -0.25,0.09 -0.53,0.17 -0.17,0.04 -0.26,0.23 -0.24,0.38 -0.02,0.32 -0.18,0.74 0.05,1.02 0.1,0.13 0.34,0.17 0.47,0.33 0.23,0.24 -0.13,0.34 0.35,0.57 0.03,0 0.08,0.03 0.13,0.06 0.13,0.03 0.2,-0.11 0.37,-0.25 0.2,-0.19 0.11,-0.44 0.09,-0.62 0,-0.02 -0.02,-0.05 0.01,-0.1 0.01,-0.25 0.28,-0.58 0.51,-0.77 0.09,-0.07 0.14,-0.12 0.23,-0.14 0.2,-0.09 0.74,-0.08 0.96,-0.17 0.7,-0.28 1.06,-0.41 1.86,-0.61 0.39,-0.08 0.7,-0.28 1.08,-0.36l0.03 -0.02c0.33,-0.08 0.39,-0.18 0.67,-0.31 0.17,-0.07 0.41,-0.05 0.61,-0.14 0.08,-0.02 0.22,-0.09 0.39,-0.18 0.42,-0.22 1.02,-0.64 0.98,-0.99 -0.02,-0.1 -0.1,-0.18 -0.15,-0.28z"/>
     <path class="fil2" d="M8.6 26.46c0.01,0.35 -0.23,0.66 -0.55,0.66 -0.36,0 -0.61,-0.26 -0.65,-0.61 -0.01,-0.35 0.23,-0.66 0.56,-0.66 0.33,-0.01 0.61,0.26 0.65,0.61z"/>
     <path class="fil2" d="M7.71 24.02c0.01,0.32 -0.28,0.61 -0.66,0.63 -0.38,0 -0.72,-0.24 -0.73,-0.56 -0.01,-0.32 0.28,-0.61 0.66,-0.61 0.38,-0.03 0.72,0.22 0.73,0.54z"/>
     <path class="fil2" d="M7.91 21.89c-0.01,0.1 -0.12,0.19 -0.26,0.21 -0.16,-0.01 -0.27,-0.09 -0.29,-0.19 0.01,-0.12 0.12,-0.19 0.26,-0.21 0.16,0.01 0.3,0.07 0.29,0.19z"/>
     <path class="fil2" d="M9.53 24.05c0.02,0.18 -0.15,0.31 -0.37,0.33 -0.19,-0.01 -0.37,-0.12 -0.39,-0.3 0.01,-0.15 0.15,-0.29 0.37,-0.3 0.19,-0.01 0.37,0.12 0.39,0.27z"/>
     <path class="fil2" d="M6.62 25.52c0.02,0.18 -0.1,0.29 -0.26,0.31 -0.14,-0.01 -0.27,-0.12 -0.28,-0.29 -0.02,-0.15 0.1,-0.29 0.26,-0.31 0.14,0.01 0.26,0.14 0.28,0.29z"/>
     <path class="fil2" d="M5.84 22.94c0.01,0.27 -0.25,0.48 -0.57,0.51 -0.33,-0.02 -0.62,-0.21 -0.63,-0.48 -0.01,-0.25 0.25,-0.51 0.57,-0.51 0.33,-0.01 0.62,0.21 0.63,0.48z"/>
     <path class="fil2" d="M5.99 20.26c0.02,0.13 -0.12,0.24 -0.29,0.26 -0.19,-0.01 -0.35,-0.09 -0.34,-0.24 -0.02,-0.13 0.12,-0.24 0.29,-0.26 0.19,-0.01 0.35,0.09 0.34,0.24z"/>
     <path class="fil2" d="M6.83 21.83c0.01,0.22 -0.13,0.39 -0.35,0.4 -0.22,0.01 -0.4,-0.15 -0.39,-0.37 -0.01,-0.22 0.13,-0.42 0.35,-0.4 0.19,-0.01 0.37,0.15 0.39,0.37z"/>
     <path class="fil2" d="M4.58 21.67c0.03,0.4 -0.29,0.73 -0.7,0.76 -0.44,0 -0.8,-0.29 -0.8,-0.69 -0.03,-0.43 0.29,-0.75 0.7,-0.76 0.44,-0.02 0.8,0.29 0.81,0.69z"/>
     <path class="fil2" d="M7.6 20.2c0.02,0.18 -0.13,0.34 -0.29,0.36 -0.19,-0.01 -0.35,-0.14 -0.36,-0.34 0.01,-0.2 0.13,-0.34 0.32,-0.36 0.16,-0.01 0.32,0.14 0.33,0.34z"/>
     <path class="fil2" d="M11.99 25.86c0.01,0.25 -0.19,0.46 -0.46,0.47 -0.27,-0.01 -0.51,-0.18 -0.49,-0.43 -0.01,-0.25 0.16,-0.46 0.44,-0.47 0.27,-0.01 0.51,0.18 0.52,0.43z"/>
     <path class="fil2" d="M10.08 26.32c0.01,0.25 -0.05,0.45 -0.13,0.44 -0.11,-0.01 -0.18,-0.18 -0.19,-0.43 -0.01,-0.25 0.05,-0.45 0.13,-0.44 0.11,0.01 0.18,0.18 0.19,0.43z"/>
     <path class="fil2" d="M7.34 27.21c0.02,0.18 -0.16,0.34 -0.4,0.35 -0.24,-0.01 -0.43,-0.15 -0.45,-0.32 -0.01,-0.2 0.16,-0.34 0.4,-0.37 0.24,0.01 0.45,0.15 0.44,0.35z"/>
     <path class="fil2" d="M5 27.17c0.02,0.15 -0.12,0.27 -0.31,0.26 -0.19,0.01 -0.32,-0.09 -0.34,-0.22 0.01,-0.12 0.12,-0.27 0.31,-0.26 0.19,-0.01 0.32,0.09 0.34,0.22z"/>
     <path class="fil2" d="M5.21 25.32c0.01,0.35 -0.26,0.66 -0.61,0.66 -0.35,0 -0.67,-0.24 -0.67,-0.61 -0.03,-0.35 0.25,-0.63 0.61,-0.66 0.35,-0 0.67,0.26 0.67,0.61z"/>
     <path class="fil2" d="M25.25 21.22c0.03,0.38 -0.34,0.7 -0.83,0.72 -0.46,-0 -0.86,-0.27 -0.89,-0.67 -0.01,-0.35 0.34,-0.68 0.83,-0.7 0.46,-0.02 0.88,0.27 0.89,0.65z"/>
     <path class="fil2" d="M24.94 19.48c0.02,0.1 -0.09,0.19 -0.26,0.21 -0.14,-0.01 -0.27,-0.09 -0.29,-0.19 0.01,-0.1 0.12,-0.19 0.26,-0.21 0.16,0.01 0.29,0.09 0.29,0.19z"/>
     <path class="fil2" d="M26.71 18.49c0.01,0.25 -0.16,0.46 -0.41,0.47 -0.24,-0.01 -0.45,-0.2 -0.46,-0.45 0.01,-0.22 0.19,-0.44 0.41,-0.45 0.25,-0.01 0.45,0.18 0.47,0.43z"/>
     <path class="fil2" d="M27.03 20.53c0.04,0.3 -0.19,0.54 -0.5,0.57 -0.3,-0.02 -0.56,-0.23 -0.57,-0.53 -0.01,-0.3 0.19,-0.54 0.49,-0.54 0.3,-0.01 0.56,0.21 0.57,0.51z"/>
     <path class="fil2" d="M28.69 19.55c0.02,0.15 -0.1,0.29 -0.26,0.28 -0.14,0.02 -0.27,-0.11 -0.28,-0.27 0.01,-0.17 0.1,-0.32 0.26,-0.31 0.14,-0.02 0.27,0.11 0.28,0.29z"/>
     <path class="fil2" d="M30.51 21.52c0.02,0.2 -0.16,0.39 -0.4,0.4 -0.24,-0.01 -0.43,-0.17 -0.44,-0.37 -0.01,-0.22 0.16,-0.41 0.41,-0.42 0.24,0.01 0.43,0.15 0.44,0.4z"/>
     <path class="fil2" d="M28.58 21.09c-0.01,0.17 -0.15,0.31 -0.37,0.33 -0.19,-0.01 -0.4,-0.12 -0.39,-0.3 -0.02,-0.15 0.15,-0.29 0.37,-0.3 0.19,-0.01 0.37,0.12 0.39,0.27z"/>
    </g>
    <g id="_1963843822976">
     <path class="fil2" d="M50.63 32.48l-0.71 0.54 -0.53 0.4 -0.82 0.4 -1.09 0.61 -1.1 0.44c0,0 -1.63,0.56 -1.64,0.57 -0.03,0.01 -1.48,0.33 -1.48,0.33l-1.49 0.06 -1.43 -0.05 -0.43 -0.07 -0.16 0.05c0,0 -0.12,0.17 -0.09,0.21l-0.07 0.32c0,0 -0.04,0.17 -0.03,0.2 0.01,0.03 0.04,0.16 0.06,0.18 -0.01,0.02 0.07,0.16 0.07,0.16 0,0 -0.01,0.11 0.01,0.17 0,0.05 -0.05,0.14 -0.05,0.14l0.06 0.18c0,0 0.12,0.21 0.14,0.22 0.01,0.03 0.18,0.19 0.18,0.19l0.38 0.11 1.05 0.12 0.43 -0.03 0.16 -0.1 0.16 -0.15 0.31 -0.23 0.48 -0.16 0.26 -0 0.09 0.07 0.07 0.06 -0.06 0.06 -0.22 0.07 -0.38 0.12 -0.17 0.07 0.01 0.08 0.3 -0.07 0.29 -0.05 0.15 0.01 0.04 0.07 -0.11 0.11 -0.24 0.06 -0.2 0.03 0.01 0.08 0.2 -0.03 0.16 -0.01 0.14 0.03 0.04 0.12 -0.09 0.02c0,0 -0.16,0.05 -0.19,0.06 -0.01,0.02 -0.16,0.05 -0.16,0.05l0.03 0.04 0.3 -0.07 0.13 0 0.04 0.07 -0.04 0.07 -0.19 0.06 -0.23 0.04 -0.17 -0.02 -0.06 0.01 0.11 0.04 0.24 -0.01 0.22 -0.07 0.11 0.04 -0.05 0.09 -0.17 0.12 -0.17 0.07 -0.22 0.02 -0.19 -0.03 -0.13 -0.05 -0.16 0.01 -0.18 0.09 -0.27 0.11 -0.44 0.04 -0.65 0.05 -0.51 0.08 -0.43 -0.02 -0.37 0.01c0,0 -0.25,-0.02 -0.29,-0.04 -0.03,0.01 -0.27,-0.17 -0.27,-0.17l-0.2 -0.2 -0.17 -0.31 -0.23 -0.48 -0.11 -0.46 -0.16 -0.52 -0.05 -0.38 -0.04 -0.35 -0.13 0.09c0,0 -0.21,0 -0.2,0.03 0.01,0.03 -0.23,0.04 -0.23,0.04l-0.31 0.04 -0.27 0.07 -0.26 0.05 -0.26 0.05 -0.48 0.07 -1.03 0.12c0,0 -0.34,0 -0.4,0.02 -0.06,0.01 -0.37,0.01 -0.37,0.01 0,0 -0.28,-0.06 -0.31,-0.05 -0.03,0.01 -0.37,-0.08 -0.41,-0.11 -0.05,-0 -0.31,-0.05 -0.33,-0.06 -0.03,0.01 -0.27,-0.08 -0.29,-0.09 -0.05,-0 -0.31,-0.15 -0.31,-0.15 0,0 -0.32,-0.13 -0.36,-0.15 -0.04,-0.02 -0.2,-0.16 -0.22,-0.17 -0.04,-0.02 -0.2,-0.2 -0.2,-0.2l-0.21 -0.28 -0.22 -0.36 -0.12 -0.26 -0.14 -0.36 -0.09 -0.26 -0.04 -0.26 -0.03 -0.28 0.02 -0.18 0.08 -0.29 0.55 0.7 -0.01 0.49 0.67 0.25 0.18 0.76 0.97 0.03 0.88 0.48 0.76 -0.49 1.17 0.62 0.48 -0.92 1.31 0.5 0.36 -0.85 1.75 0.51 0.43 -0.83 2.2 0.49 0.03 -1.67 3.18 -0.11 0.04 -1.07 2.39 0.1 0.23 -0.71 1.2 0.09 1.13 -1.16 1.83 -0.02 0.14 -0.82 1.26 0.12 0.92 -0.54 0.69 -0.07 0.69 -0.31 0.78 -0.33 0.45 -0.3 -0.22 0.26 -0.34 0.29 -0.44 0.28 -0.93 0.42 -0.73 0.34 -0.64 0.27 -0.33 0.18 -0.39 0.24 -0.29 0.24c0,0 -0.15,0.18 -0.14,0.21 -0.02,0.04 -0.09,0.26 -0.09,0.26l0.01 0.17 0.1 0.2 0.17 0.16 0.19 0.13 0.64 0.07 0.81 -0.01 0.21 -0.05 0.14 -0.21 0.55 -0.39 0.25 -0.08 0.15 -0.04 0.1 0.1 0 0.09 -0.17 0.12 -0.44 0.19 -0.09 0.07 0.04 0.02 0.28 -0.08 0.37 -0.15 0.14 0.03 0.08 0.09 -0.12 0.08 -0.31 0.14 -0.37 0.11 -0.05 0.04 0.01 0.03 0.12 -0.03 0.42 -0.06 0.27 -0.07 0.1 0.06 -0.04 0.12 -0.12 0.08 -0.27 0.07 -0.34 0.05 -0.15 -0.01 0.05 0.05 0.15 0.01c0,0 0.5,-0.06 0.53,-0.07 0.03,-0.01 0.18,0 0.18,0l0.05 0.05 -0.05 0.09 -0.22 0.07 -0.34 0 -0.21 0 -0.05 0.04 0.05 0.05 0.27 0.03c0,0 0.28,0.01 0.3,0.02 0.03,-0.01 0.2,0.01 0.2,0.01l0.06 0.03 -0.03 0.05 -0.14 0.07 -0.16 0.05 -0.33 0.03 -0.28 -0.11 -0.29 -0.13 -0.15 0.04 -0.12 0.12 -0.21 0.1 -0.24 0.06 -0.35 0.07 -0.43 0.17 -0.35 0.07 -0.37 0.06 -0.28 0.04 -0.26 0.05c0,0 -0.24,-0.04 -0.29,-0.04 -0.03,0.01 -0.22,-0.12 -0.24,-0.13l-0.26 -0.14 -0.21 -0.19 -0.18 -0.19 -0.27 -0.31 -0.18 -0.24 -0.37 0.34zm-18.74 -2.74l18.74 2.74zm-18.74 -2.74l-0.27 0.16 -0.12 0.22 -0.04 0.17 0.04 0.21 -0.01 0.21 -0.08 0.15 -0.49 0.37 0.28 0.49 -0.23 0.47 0.32 0.41 -0.27 0.45 0.52 0.62 0 0.62 0.65 0.28 0.31 0.67 0.85 0.01 0.59 0.35 0.8 -0.32 0.92 0.31 0.87 -0.64 1.05 0.31 0.56 -0.69 1.5 0.25 0.66 -0.73 1.91 0.69 0.21 -1.81 2.98 -0.03 0.21 -1.05 2.4 0.03 0.36 -0.66 1.02 0.04 1.17 -1.14 1.85 0.13 0.24 -0.91 1.46 0.18 0.74 -0.69 0.89 0.08 0.41 -0.42 0.58 -0.06 -0.09 -0.12 -0.03 -0.09 -0.02 -0.15 0.11 -0.06 0.1 -0.04 0.09 -0.02 0.09 0.03 0.1 0.05 0.1 0.2 0.42 -0.39 0.19 0.03 0.11 0.04 0.32 -0.16 0.17 -0.22 -0.01 -0.12 -0.06 -0.13 -0.08 -0.09 -0.14 -0.08 -0.18 -0 -0.33 -0.01 -0.35 0.02 -0.52 0.1 -0.45 0.06 -0.44 0.14 -0.38 0.12 -0.42 0.2 -0.32 0.16 -0.27 0.11 -0.37 0.15c0,0 -0.34,0.1 -0.35,0.12 -0.03,0.01 -0.33,0.08 -0.33,0.08l-0.54 -0.01 -0.37 -0.08 -0.33 -0.11 -0.42 -0.13 -0.62 -0.2 -0.14 -0.08 -0.07 -0.06 -0.06 -0.13 0.11 -0.15 0.31 -0.23 0.34 -0.29 0.26 -0.24 0.17 -0.22 0.15 -0.08 0.26 -0.05 0.22 0.07 0.23 -0.04 0.18 -0.04 0.19 -0.16 0.07 -0.13 -0.06 -0.03 -0.3 0.07 -0.32 0.06 -0.1 -0.01 0.04 -0.07 0.2 -0.03 0.34 -0.15 0.11 -0.06 0.01 -0.11 -0.08 -0.09 -0.16 0.01 -0.31 0.14 -0.33 0.22 -0.13 0 -0.02 -0.06 0.17 -0.17 0.28 -0.18 0.21 -0.15 0.11 -0.11 -0.03 -0.09 -0.09 -0.07 -0.14 0.07 -0.41 0.32 -0.04 -0.02 -0.05 -0.05 0.17 -0.12 0.3 -0.22 0.06 -0.11 -0.06 -0.08 -0.1 -0.01 -0.27 0.16 -0.27 0.16 -0.16 0.15 0 -0.09 0.25 -0.22 0.13 -0.09 0.08 -0.1 -0.02 -0.06 -0.11 -0.04 -0.17 0.07 -0.34 0.29 -0.14 0.26 -0.02 0.23 -0.04 0.17 -0.36 0.28 -0.61 0.4 -0.95 0.6 -0.21 0.19 -0.14 0.3 -0.05 0.33 0.01 0.41 0.11 0.27 0.09 0.22 -0.01 0.16 -0.2 0.03 -0.87 0.12 -0.82 0.17 -1.07 0.06 -0.78 0.19 -0.78 0.24 -0.72 0.27 -0.89 0.25 -0.38 0.12 -0.61 0.31 -0.41 0.23 -0.79 0.45 -0.36 0.23 -0.52 0.33 -0.28 0.23 -0.26 0.19 -0.4 0.3 -0.25 0.22 -0.15 0.13 -0.55 -0.28 -0.4 -0.17 -0.28 -0.15 -0.25 -0.16 -0.08 -0.04 -0.04 -0.12 0.08 -0.15 0.09 -0.07 0.15 -0.13 0.25 -0.17 0.11 -0.15 0.1 -0.13 0.07 -0.03 0.15 -0.04 0.13 0.05 0.22 0.03 0.12 0.02 0.13 0 0.21 -0 0.17 -0.07 0.04 -0.07 0.03 -0.1 -0.06 -0.13 -0.21 0.05 -0.27 0.07 -0.46 0.03 -0.09 -0.07 0.12 -0.08 0.52 -0.05 0.24 -0.06 0.16 -0.1 -0.04 -0.12 -0.09 -0.02 -0.37 0.06 -0.46 0.18 -0.09 0.02 0.02 -0.08 0.38 -0.12 0.31 -0.14 0.12 -0.12 -0.03 -0.14 -0.18 0.04 -0.38 0.17 -0.17 0.07 -0.05 -0.05 0.21 -0.19 0.15 -0.13 0.12 -0.17 -0.07 -0.06 -0.14 0.02 -0.35 0.31 -0.29 0.2 0.04 -0.17 0.25 -0.27 0.12 -0.12 0.15 -0.13 -0.04 -0.07 -0.1 -0.05 -0.39 0.33 -0.35 0.5 -0.47 0.38 -0.65 0.38 -0.6 0.48 -0.11 0.15 -0.05 0.33 0.03 0.18 0.07 0.2 0.1 0.24 0.16 0.23 0.37 0.46 0.33 0.39 -0.05 0.14 -0.24 0.15 -0.91 0.28 -0.92 0.3 -1 0.12 -0.3 -0.02 -0.3 -0.12 -0.27 -0.17 -0.18 -0.15 -0.2 -0.25 -0.14 -0.17 -0.04 -0.16 -0.06 -0.36 -0.03 -0.33 0 -0.38 0.01 -0.45 -0.02 -0.39 0.07 -0.36 0.04 -0.41 0.02 -0.32 0.03 -0.39 0 -0.38 -0.11 -0.23 -0.1 -0.15 -0.13 0z"/>
     <path class="fil2" d="M41.91 27.56c-0.19,-0.2 -0.48,-0.26 -0.66,-0.14 -0.16,0.14 -0.17,0.41 0.04,0.62 0.18,0.22 0.47,0.28 0.65,0.16 0.16,-0.14 0.16,-0.44 -0.03,-0.64z"/>
     <path class="fil2" d="M43.53 27.82c-0.18,-0.22 -0.52,-0.24 -0.75,-0.07 -0.23,0.17 -0.27,0.5 -0.08,0.7 0.19,0.2 0.51,0.26 0.75,0.07 0.23,-0.17 0.27,-0.5 0.08,-0.7z"/>
     <path class="fil2" d="M45.02 27.15c-0.15,-0.18 -0.48,-0.16 -0.72,0.03 -0.27,0.2 -0.34,0.51 -0.2,0.66 0.16,0.16 0.48,0.16 0.72,-0.03 0.27,-0.2 0.35,-0.48 0.2,-0.66z"/>
     <path class="fil2" d="M46.64 25.82c-0.14,-0.15 -0.45,-0.12 -0.7,0.09 -0.24,0.19 -0.35,0.48 -0.21,0.63 0.15,0.13 0.45,0.12 0.69,-0.07 0.25,-0.21 0.35,-0.48 0.22,-0.65z"/>
     <path class="fil2" d="M48.06 24.57c-0.18,-0.22 -0.52,-0.24 -0.77,-0.08 -0.21,0.18 -0.25,0.51 -0.06,0.71 0.19,0.2 0.52,0.24 0.75,0.07 0.23,-0.17 0.27,-0.5 0.08,-0.7z"/>
     <path class="fil2" d="M49.28 23.74c-0.08,-0.09 -0.23,-0.13 -0.32,-0.05 -0.09,0.07 -0.09,0.22 -0.01,0.32 0.08,0.09 0.24,0.11 0.33,0.03 0.09,-0.07 0.1,-0.19 0,-0.3z"/>
     <path class="fil2" d="M51.19 23.12c-0.1,-0.11 -0.33,-0.08 -0.52,0.06 -0.19,0.15 -0.28,0.37 -0.18,0.47 0.13,0.12 0.36,0.1 0.54,-0.05 0.19,-0.15 0.25,-0.36 0.16,-0.49z"/>
     <path class="fil2" d="M53.43 22.91c-0.1,-0.11 -0.33,-0.08 -0.53,0.08 -0.19,0.14 -0.27,0.35 -0.18,0.47 0.13,0.12 0.36,0.09 0.55,-0.07 0.19,-0.15 0.25,-0.36 0.16,-0.49z"/>
     <path class="fil2" d="M55.5 22.65c-0.08,-0.1 -0.28,-0.08 -0.47,0.07 -0.16,0.14 -0.23,0.32 -0.15,0.42 0.08,0.09 0.28,0.08 0.47,-0.07 0.16,-0.14 0.23,-0.32 0.15,-0.42z"/>
    </g>
    <g id="_1963843820032">
     <path class="fil2" d="M298.45 30.27c0.09,0.04 0.12,0.16 0.06,0.26 -0.05,0.11 -0.17,0.16 -0.25,0.13 -0.09,-0.04 -0.12,-0.15 -0.06,-0.26 0.05,-0.11 0.16,-0.16 0.25,-0.13z"/>
     <path class="fil2" d="M301.93 29.27c0.15,0.05 0.22,0.19 0.16,0.3 -0.05,0.12 -0.21,0.15 -0.36,0.09 -0.14,-0.05 -0.21,-0.19 -0.16,-0.3 0.06,-0.11 0.22,-0.15 0.36,-0.09z"/>
     <path class="fil2" d="M298.79 29.11c0.1,0.04 0.14,0.17 0.09,0.27 -0.06,0.11 -0.17,0.16 -0.29,0.12 -0.09,-0.04 -0.13,-0.16 -0.08,-0.26 0.06,-0.12 0.17,-0.16 0.28,-0.13z"/>
     <path class="fil2" d="M300.52 29.44c0.13,0.05 0.19,0.19 0.13,0.32 -0.06,0.12 -0.21,0.17 -0.35,0.12 -0.13,-0.05 -0.17,-0.19 -0.12,-0.32 0.06,-0.12 0.21,-0.17 0.34,-0.12z"/>
     <path class="fil2" d="M299.15 29.92c0.09,0.03 0.13,0.13 0.09,0.21 -0.05,0.08 -0.15,0.12 -0.23,0.07 -0.09,-0.03 -0.13,-0.13 -0.09,-0.2 0.05,-0.09 0.15,-0.12 0.23,-0.09z"/>
     <path class="fil2" d="M302.66 30.11l-0.49 0 -0.35 0.02 -0.5 0.09 -0.66 0.11 -0.61 0.17c0,0 -0.87,0.27 -0.88,0.28 -0.01,0 -0.72,0.31 -0.72,0.31l-0.62 0.42 -0.57 0.44 -0.16 0.15 -0.07 0.02c0,0 -0.12,-0.03 -0.12,-0.04 -0.01,-0.01 -0.16,-0.09 -0.16,-0.09l-0.07 -0.06c-0.01,-0.02 -0.05,-0.07 -0.05,-0.09 -0.01,-0.01 -0.03,-0.07 -0.03,-0.07 0,0 -0.03,-0.04 -0.06,-0.06 -0.01,-0.02 -0.07,-0.04 -0.07,-0.04l-0.03 -0.07c0,0 -0.03,-0.12 -0.03,-0.13 -0.01,-0.01 0.01,-0.13 0.01,-0.13l0.1 -0.16 0.37 -0.35 0.18 -0.12 0.1 -0.01 0.13 0.01 0.21 -0.01 0.25 -0.09 0.1 -0.07 0.02 -0.05 0 -0.04 -0.05 -0.01 -0.12 0.04 -0.2 0.07 -0.1 0.01 -0.01 -0.02 0.14 -0.06 0.14 -0.06 0.06 -0.05 -0.01 -0.04 -0.08 0 -0.13 0.05 -0.09 0.04 -0.01 -0.02 0.08 -0.05 0.07 -0.04 0.05 -0.06 -0.02 -0.05 -0.05 0.02c0,0 -0.09,0.02 -0.1,0.03 -0.01,0 -0.08,0.03 -0.08,0.03l0 -0.02 0.15 -0.06 0.05 -0.04 0 -0.03 -0.06 -0.02 -0.09 0.03 -0.1 0.05 -0.06 0.06 -0.05 0.01 0.03 -0.04 0.1 -0.07 0.12 -0.04 0.03 -0.03 -0.07 -0.02 -0.1 0 -0.09 0.03 -0.09 0.05 -0.07 0.06 -0.04 0.06 -0.07 0.03 -0.1 0.03 -0.16 0.04 -0.2 0.12 -0.28 0.17 -0.23 0.13 -0.16 0.14 -0.16 0.11c0,0 -0.09,0.07 -0.1,0.08 0,0.01 -0.05,0.16 -0.05,0.16l0 0.13 0.05 0.17 0.09 0.24 0.13 0.2 0.13 0.22 0.12 0.17 0.12 0.13 -0.08 0.01c0,0 -0.09,0.06 -0.1,0.04 0,-0.01 -0.09,0.06 -0.09,0.06l-0.15 0.07 -0.13 0.05 -0.13 0.05 -0.12 0.06 -0.23 0.13 -0.46 0.25c0,0 -0.14,0.09 -0.16,0.11 -0.03,0.02 -0.15,0.12 -0.15,0.12 0,0 -0.1,0.11 -0.12,0.12 -0.01,0 -0.12,0.13 -0.13,0.15 -0.01,0.01 -0.1,0.12 -0.12,0.12 -0.01,0.01 -0.07,0.12 -0.08,0.13 -0.01,0.02 -0.07,0.14 -0.07,0.14 0,0 -0.07,0.15 -0.08,0.16 -0.01,0.02 -0.02,0.12 -0.03,0.14l0 0.13 0.01 0.17 0.06 0.19 0.03 0.14 0.08 0.17 0.06 0.13 0.09 0.11 0.08 0.11 0.07 0.05 0.15 0.09 -0.03 -0.42 -0.2 -0.18 0.18 -0.28 -0.22 -0.34 0.38 -0.3 0.17 -0.43 0.5 -0.05 0.23 -0.57 0.54 0.19 0.35 -0.57 0.46 0.2 0.52 -0.71 0.49 0.18 0.71 -0.84 0.63 0.6 1.33 -0.9 0.42 0.38 0.94 -0.76 0.35 0.2 0.46 -0.39 0.88 0.08 0.75 -0.54 0.36 0.27 0.47 -0.42 0.57 -0.09 0.31 -0.17 0.39 -0.1 0.44 -0.11 0.3 -0.03 -0.2 -0.02 -0.24 -0.01 -0.28 0.02 -0.53 0.13 -0.42 0.11 -0.37 0.09 -0.2 0.03 -0.24 0.02 -0.21 0c0,0 -0.13,-0.02 -0.14,-0.03 -0.01,-0.01 -0.13,-0.06 -0.13,-0.06l-0.07 -0.07 -0.02 -0.09 0 -0.11 0.03 -0.11 0.23 -0.21 0.34 -0.24 0.1 -0.04 0.13 0.03 0.37 -0.02 0.13 -0.04 0.08 -0.04 0 -0.06 -0.03 -0.03 -0.12 0.01 -0.24 0.05 -0.07 0.01 0.01 -0.03 0.15 -0.04 0.2 -0.05 0.06 -0.05 -0.01 -0.06 -0.08 0.01 -0.17 0.04 -0.18 0.07 -0.05 0 0.01 -0.02 0.05 -0.02 0.2 -0.09 0.14 -0.06 0.01 -0.04 -0.06 -0.04 -0.08 0.01 -0.13 0.05 -0.16 0.09 -0.06 0.03 0 -0.02 0.06 -0.06c0,0 0.23,-0.13 0.24,-0.13 0.01,0 0.07,-0.05 0.07,-0.05l0 -0.03 -0.06 -0.02 -0.1 0.05 -0.15 0.09 -0.08 0.06 -0.03 0 0 -0.03 0.1 -0.1c0,0 0.1,-0.08 0.12,-0.09 0,-0.01 0.07,-0.06 0.07,-0.06l0.01 -0.03 -0.03 -0.01 -0.08 0.01 -0.08 0.04 -0.15 0.08 -0.08 0.12 -0.06 0.13 -0.07 0.04 -0.1 -0.01 -0.11 0.02 -0.13 0.05 -0.17 0.08 -0.23 0.06 -0.17 0.08 -0.17 0.07 -0.12 0.08 -0.13 0.05c0,0 -0.08,0.08 -0.09,0.09 -0.01,0.01 -0.06,0.12 -0.06,0.13 0,0.01 -0.05,0.13 -0.05,0.13l-0.02 0.13 0 0.13 0.01 0.19 0.01 0.15 -0.28 -0.01zm-6.56 6.56l6.56 -6.56zm-6.56 6.56l-0.17 0.02 -0.13 -0.05 -0.07 -0.05 -0.07 -0.09 -0.08 -0.07 -0.08 -0.03 -0.35 0.02 -0.07 -0.26 -0.26 -0.11 -0.03 -0.23 -0.28 -0.09 -0.01 -0.38 -0.23 -0.23 0.15 -0.28 -0.12 -0.35 0.32 -0.25 0.12 -0.3 0.44 -0.13 0.25 -0.38 0.6 -0.02 0.3 -0.43 0.49 0.08 0.52 -0.54 0.53 0.06 0.52 -0.81 0.76 0.6 1.21 -0.88 0.46 0.32 0.96 -0.73 0.39 0.14 0.4 -0.31 0.89 0.06 0.71 -0.6 0.44 0.25 0.52 -0.5 0.57 0.03 0.31 -0.3 0.32 0.02 0.27 -0.14 0 0.06 0.02 0.05 0.06 0.05 0.06 -0.01 0.06 -0.01 0.05 -0.02 0.02 -0.03 0.01 -0.06 -0.02 -0.08 0.31 0.01 0.07 -0.07 0.03 -0.05 0.18 -0.03 0.14 0.02 0.05 0.05 0.02 0.06 0.01 0.06 -0.03 0.07 -0.08 0.05 -0.12 0.09 -0.16 0.1 -0.23 0.13 -0.21 0.11 -0.23 0.08 -0.2 0.07 -0.25 0.05 -0.18 0.03 -0.15 0.04 -0.21 0.05c0,0 -0.16,0.06 -0.19,0.06 -0.01,0 -0.15,0.06 -0.15,0.06l-0.23 0.17 -0.12 0.14 -0.09 0.14 -0.13 0.17 -0.16 0.25 -0.03 0.07 0 0.05 0.02 0.06 0.09 0.01 0.21 0 0.25 0 0.2 0.02 0.14 0.02 0.1 -0.01 0.12 -0.07 0.07 -0.09 0.1 -0.05 0.09 -0.03 0.13 0 0.07 0.02 0 0.03 -0.15 0.06 -0.15 0.06 -0.03 0.04 0.05 0.01 0.09 -0.04 0.18 -0.05 0.07 -0.01 0.05 0.04 0 0.05 -0.07 0.04 -0.17 0.04 -0.22 0.02 -0.06 0.03 0.02 0.03 0.12 0.01 0.2 -0.02 0.14 0 0.08 -0.01 0.02 0.04 -0.01 0.05 -0.08 0.02 -0.29 0.01 0 0.01 0 0.04 0.12 0 0.18 -0.01 0.07 0.02 0.01 0.04 -0.05 0.03 -0.16 0.02 -0.16 0.02 -0.13 0 0.02 0.02 0.2 0.01 0.08 0 0.07 0.01 0.01 0.03 -0.02 0.03 -0.1 0.04 -0.24 -0.01 -0.15 -0.05 -0.08 -0.08 -0.09 -0.04 -0.24 0.01 -0.4 0.03 -0.6 0.05 -0.16 0 -0.16 -0.06 -0.15 -0.11 -0.15 -0.15 -0.06 -0.14 -0.03 -0.11 -0.07 -0.05 -0.1 0.05 -0.38 0.21 -0.39 0.18 -0.45 0.3 -0.39 0.16 -0.4 0.15 -0.38 0.12 -0.46 0.17 -0.2 0.07 -0.36 0.06 -0.25 0.04 -0.49 0.07 -0.23 0.02 -0.32 0.04 -0.21 -0.01 -0.17 0.01 -0.28 0.01 -0.17 -0.01 -0.12 0.01 -0.12 0.26 -0.1 0.18 -0.06 0.13 -0.03 0.14 -0.01 0.04 0.01 0.05 0.09 0.03 0.06 0 0.12 0 0.17 -0.01 0.09 0.01 0.09 0.02 0.05 0 0.07 -0.03 0.05 -0.06 0.07 -0.06 0.05 -0.04 0.05 -0.04 0.08 -0.06 0.1 -0.02 0.05 0.01 0.05 0.03 0.02 0.06 -0.1 0.04 -0.14 0.06 -0.2 0.13 0 0.04 0.07 0 0.23 -0.15 0.12 -0.04 0.1 -0.01 0.02 0.05 -0.02 0.04 -0.17 0.09 -0.24 0.07 -0.05 0.01 0.03 0.03 0.2 -0.06 0.18 -0.04 0.09 0.01 0.04 0.05 -0.09 0.04 -0.22 0.04 -0.08 0.03 -0.01 0.02 0.16 0.01 0.1 0.01 0.1 0.03 0.01 0.04 -0.07 0.03 -0.25 -0.01 -0.18 0.02 0.08 0.04 0.2 0.03 0.09 0 0.12 0.01 0 0.04 -0.02 0.03 -0.28 0 -0.32 -0.07 -0.34 0 -0.4 0.05 -0.43 0 -0.1 -0.01 -0.14 -0.11 -0.06 -0.08 -0.05 -0.1 -0.05 -0.12 -0.02 -0.14 -0.02 -0.27 -0.01 -0.24 -0.07 -0.03 -0.15 0.02 -0.47 0.16 -0.49 0.16 -0.46 0.26 -0.1 0.09 -0.07 0.14 -0.06 0.14 -0.01 0.11 0 0.16 0.02 0.09 0.03 0.08 0.12 0.14 0.12 0.13 0.13 0.14 0.18 0.16 0.14 0.15 0.16 0.12 0.16 0.14 0.13 0.11 0.16 0.14 0.13 0.14 0.05 0.12 0.01 0.09 -0.05 0.04z"/>
    </g>
    <g id="_1963843815712">
     <path class="fil2" d="M210.58 61.11l0.67 0.13 0.5 0.1 0.7 0 0.96 0.06 0.91 -0.06c0,0 1.31,-0.16 1.32,-0.15 0.02,-0 1.13,-0.27 1.13,-0.27l1.05 -0.46 0.97 -0.51 0.27 -0.19 0.13 -0.02c0,0 0.14,0.08 0.13,0.12l0.15 0.2c0,0 0.08,0.1 0.09,0.13 0,0.02 0.03,0.13 0.02,0.14 0.01,0.01 0,0.13 0,0.13 0,0 0.04,0.07 0.05,0.12 0.02,0.03 0.08,0.08 0.08,0.08l0.02 0.14c0,0 -0.01,0.18 -0.02,0.2 0,0.02 -0.06,0.19 -0.06,0.19l-0.22 0.21 -0.68 0.44 -0.3 0.13 -0.14 -0.02 -0.16 -0.05 -0.29 -0.06 -0.39 0.05 -0.18 0.09 -0.04 0.08 -0.03 0.07 0.06 0.02 0.17 -0.03 0.3 -0.04 0.14 -0.01 0.02 0.06 -0.23 0.05 -0.22 0.06 -0.1 0.06 -0 0.06 0.11 0.04 0.18 -0.04 0.15 -0.04 0.02 0.06 -0.15 0.04 -0.11 0.05 -0.09 0.07 0.01 0.09 0.07 -0.02c0,0 0.13,-0.02 0.15,-0.02 0.01,0.01 0.13,-0.02 0.13,-0.02l-0.01 0.04 -0.23 0.05 -0.09 0.04 -0 0.06 0.05 0.04 0.15 -0.02 0.17 -0.05 0.11 -0.07 0.05 -0.01 -0.06 0.06 -0.17 0.07 -0.18 0.03 -0.06 0.06 0.07 0.05 0.16 0.03 0.14 -0.01 0.16 -0.06 0.12 -0.09 0.07 -0.08 0.11 -0.05 0.15 0 0.22 -0.01 0.32 -0.12 0.46 -0.18 0.38 -0.12 0.29 -0.16 0.26 -0.12c0,0 0.17,-0.1 0.19,-0.12 0.02,-0 0.13,-0.21 0.13,-0.21l0.07 -0.21 0.01 -0.27 -0 -0.41 -0.08 -0.36 -0.06 -0.41 -0.09 -0.28 -0.09 -0.26 0.12 0.02c0,0 0.15,-0.07 0.15,-0.04 0,0.02 0.17,-0.05 0.17,-0.05l0.23 -0.07 0.21 -0.04 0.19 -0.05 0.19 -0.05 0.35 -0.11 0.75 -0.26c0,0 0.24,-0.11 0.28,-0.12 0.05,-0.01 0.26,-0.12 0.26,-0.12 0,0 0.17,-0.13 0.2,-0.14 0.02,-0 0.23,-0.18 0.25,-0.21 0.03,-0.02 0.2,-0.14 0.21,-0.15 0.02,-0 0.16,-0.14 0.17,-0.16 0.03,-0.02 0.16,-0.2 0.16,-0.2 0,0 0.18,-0.19 0.2,-0.22 0.02,-0.03 0.09,-0.18 0.1,-0.19 0.02,-0.03 0.07,-0.21 0.07,-0.21l0.05 -0.26 0.03 -0.32 -0 -0.22 -0.02 -0.3 -0.03 -0.21 -0.06 -0.19 -0.07 -0.2 -0.07 -0.12 -0.15 -0.17 -0.14 0.67 0.17 0.34 -0.38 0.4 0.13 0.59 -0.66 0.35 -0.44 0.63 -0.69 -0.08 -0.6 0.82 -0.64 -0.47 -0.73 0.79 -0.53 -0.46 -1.03 0.94 -0.57 -0.43 -1.35 1.08 -0.58 -1.14 -2.23 0.99 -0.39 -0.72 -1.61 0.87 -0.4 -0.41 -0.8 0.46 -1.17 -0.42 -1.27 0.6 -0.37 -0.52 -0.83 0.5 -0.82 -0.06 -0.5 0.18 -0.58 0.02 -0.65 0.03 -0.41 -0.06 0.24 0.1 0.33 0.09 0.4 0.05 0.78 -0.02 0.61 -0.01 0.53 -0.03 0.29 0.01 0.35 0.03 0.28 0.07c0,0 0.16,0.07 0.17,0.1 0.03,0.02 0.15,0.15 0.15,0.15l0.05 0.12 -0 0.17 -0.06 0.17 -0.09 0.15 -0.42 0.26 -0.56 0.27 -0.16 0.03 -0.17 -0.1 -0.51 -0.08 -0.2 0.03 -0.11 0.02 -0.03 0.1 0.03 0.07 0.16 0.03 0.37 -0.02 0.09 0.02 -0.02 0.03 -0.22 0.04 -0.31 0.02 -0.09 0.07 -0.02 0.09 0.11 0.01 0.26 -0.01 0.29 -0.05 0.05 0.01 0 0.02 -0.09 0.02 -0.31 0.1 -0.21 0.04 -0.05 0.07 0.07 0.07 0.11 0.01 0.21 -0.04 0.25 -0.08 0.1 -0.06 -0.02 0.05 -0.1 0.06c0,0 -0.36,0.13 -0.39,0.13 -0.02,0 -0.12,0.06 -0.12,0.06l-0.02 0.05 0.06 0.05 0.18 -0.03 0.24 -0.11 0.15 -0.07 0.05 0.01 -0.02 0.05 -0.18 0.11c0,0 -0.19,0.1 -0.2,0.12 -0.02,0 -0.13,0.08 -0.13,0.08l-0.03 0.04 0.04 0.03 0.12 -0 0.13 -0.02 0.24 -0.09 0.16 -0.17 0.15 -0.19 0.12 -0.02 0.12 0.04 0.18 -0 0.18 -0.04 0.26 -0.07 0.35 -0.03 0.27 -0.07 0.27 -0.08 0.2 -0.07 0.19 -0.05c0,0 0.15,-0.1 0.19,-0.12 0.02,-0 0.11,-0.16 0.12,-0.17l0.13 -0.18 0.08 -0.2 0.06 -0.19 0.08 -0.31 0.04 -0.23 0.37 0.11zm11.98 -8.17l-11.98 8.17zm11.98 -8.17l0.24 0.02 0.16 0.11 0.08 0.1 0.04 0.16 0.08 0.14 0.1 0.07 0.46 0.09 -0.03 0.43 0.32 0.24 -0.08 0.39 0.34 0.22 -0.15 0.6 0.21 0.43 -0.35 0.41 0.01 0.56 -0.58 0.29 -0.29 0.44 -0.66 0.05 -0.53 0.52 -0.81 -0.15 -0.62 0.57 -0.62 -0.29 -0.95 0.68 -0.7 -0.28 -1.08 1.11 -0.75 -1.17 -2.06 0.98 -0.5 -0.65 -1.64 0.83 -0.47 -0.33 -0.69 0.37 -1.19 -0.39 -1.23 0.71 -0.47 -0.55 -0.94 0.61 -0.74 -0.22 -0.58 0.36 -0.42 -0.15 -0.42 0.15 0.02 -0.11 -0.01 -0.07 -0.04 -0.11 -0.1 -0 -0.08 0.01 -0.07 0.02 -0.05 0.05 -0.05 0.07 -0 0.17 -0.42 -0.13 -0.12 0.09 -0.06 0.06 -0.27 -0 -0.19 -0.09 -0.03 -0.09 -0 -0.11 0.02 -0.09 0.07 -0.1 0.12 -0.06 0.22 -0.12 0.25 -0.1 0.39 -0.11 0.33 -0.11 0.35 -0.05 0.3 -0.04 0.36 -0 0.27 0 0.22 -0.01 0.31 -0.02c0,0 0.27,-0.05 0.28,-0.04 0.02,-0 0.25,-0.06 0.25,-0.06l0.37 -0.19 0.23 -0.18 0.19 -0.19 0.24 -0.23 0.36 -0.34 0.07 -0.1 0.03 -0.07 -0 -0.11 -0.13 -0.07 -0.29 -0.06 -0.33 -0.09 -0.26 -0.08 -0.19 -0.09 -0.13 -0.01 -0.2 0.05 -0.13 0.12 -0.17 0.05 -0.14 0.03 -0.18 -0.04 -0.09 -0.06 0.03 -0.04 0.23 -0.05 0.24 -0.06 0.07 -0.04 -0.05 -0.04 -0.15 0.04 -0.28 0.01 -0.09 -0 -0.05 -0.08 0.02 -0.09 0.11 -0.05 0.26 -0.01 0.3 0.04 0.09 -0.04 -0.01 -0.05 -0.17 -0.06 -0.25 -0.03 -0.19 -0.03 -0.11 -0.04 -0.01 -0.07 0.04 -0.08 0.12 -0 0.39 0.08 0.02 -0.03 0.02 -0.05 -0.16 -0.03 -0.28 -0.05 -0.08 -0.06 0.01 -0.08 0.07 -0.04 0.24 0.02 0.24 0.02 0.16 0.05 -0.03 -0.07 -0.25 -0.07 -0.12 -0.02 -0.09 -0.04 -0.01 -0.05 0.06 -0.06 0.14 -0.01 0.33 0.09 0.18 0.13 0.09 0.15 0.08 0.1 0.34 0.07 0.55 0.07 0.85 0.09 0.21 0.06 0.2 0.16 0.14 0.21 0.13 0.28 0.02 0.23 0.01 0.18 0.06 0.11 0.15 -0.04 0.64 -0.21 0.62 -0.16 0.76 -0.32 0.6 -0.13 0.62 -0.1 0.59 -0.06 0.7 -0.13 0.3 -0.04 0.52 0.01 0.36 0.02 0.69 0.04 0.33 0.04 0.47 0.06 0.27 0.06 0.24 0.04 0.38 0.07 0.25 0.07 0.15 0.04 0.28 -0.38 0.22 -0.25 0.14 -0.2 0.12 -0.19 0.04 -0.06 -0.01 -0.09 -0.1 -0.07 -0.09 -0.02 -0.15 -0.04 -0.23 -0.03 -0.13 -0.07 -0.11 -0.06 -0.06 0 -0.12 0.03 -0.07 0.08 -0.14 0.09 -0.08 0.05 -0.09 0.04 -0.15 0.07 -0.14 0.01 -0.05 -0.04 -0.06 -0.06 -0 -0.11 0.16 -0.04 0.21 -0.04 0.33 -0.13 0.04 -0.08 -0.11 -0.01 -0.37 0.14 -0.18 0.04 -0.14 -0.02 -0.01 -0.09 0.05 -0.05 0.27 -0.08 0.38 -0.03 0.07 -0.01 -0.04 -0.05 -0.3 0.04 -0.26 0.01 -0.12 -0.05 -0.02 -0.1 0.14 -0.03 0.32 -0.01 0.14 -0.01 0.02 -0.05 -0.21 -0.06 -0.15 -0.04 -0.14 -0.08 0.03 -0.07 0.1 -0.03 0.34 0.09 0.27 0.04 -0.08 -0.1 -0.26 -0.1 -0.12 -0.05 -0.15 -0.04 0 -0.06 0.05 -0.07 0.38 0.1 0.41 0.22 0.45 0.11 0.57 0.04 0.57 0.13 0.13 0.07 0.14 0.21 0.04 0.14 0.02 0.16 0.01 0.2 -0.03 0.21 -0.1 0.44 -0.09 0.38 0.08 0.08 0.22 0.02 0.72 -0.11 0.73 -0.1 0.73 -0.25 0.2 -0.12 0.17 -0.18 0.13 -0.21 0.08 -0.16 0.05 -0.24 0.04 -0.17 -0.03 -0.13 -0.08 -0.27 -0.09 -0.23 -0.13 -0.26 -0.16 -0.3 -0.12 -0.28 -0.17 -0.23 -0.16 -0.27 -0.12 -0.21 -0.15 -0.26 -0.13 -0.26 -0 -0.19 0.02 -0.14 0.09 -0.04z"/>
     <path class="fil2" d="M214.93 54.8c0.06,-0.2 0.24,-0.34 0.41,-0.32 0.15,0.04 0.25,0.22 0.18,0.44 -0.05,0.21 -0.23,0.35 -0.39,0.33 -0.15,-0.04 -0.25,-0.25 -0.19,-0.45z"/>
     <path class="fil2" d="M213.9 55.53c0.05,-0.21 0.28,-0.34 0.5,-0.3 0.22,0.04 0.35,0.25 0.29,0.45 -0.06,0.2 -0.27,0.35 -0.5,0.3 -0.22,-0.04 -0.35,-0.25 -0.29,-0.45z"/>
     <path class="fil2" d="M212.65 55.56c0.04,-0.17 0.28,-0.27 0.51,-0.22 0.25,0.05 0.4,0.24 0.36,0.39 -0.05,0.16 -0.28,0.27 -0.51,0.22 -0.25,-0.05 -0.4,-0.22 -0.36,-0.39z"/>
     <path class="fil2" d="M211.09 55.19c0.04,-0.15 0.27,-0.23 0.51,-0.17 0.23,0.05 0.4,0.22 0.36,0.36 -0.06,0.14 -0.27,0.23 -0.5,0.18 -0.24,-0.06 -0.4,-0.22 -0.37,-0.37z"/>
     <path class="fil2 str0" d="M209.69 54.8c0.05,-0.21 0.28,-0.34 0.51,-0.31 0.2,0.06 0.34,0.27 0.28,0.47 -0.06,0.2 -0.28,0.34 -0.5,0.3 -0.22,-0.04 -0.35,-0.25 -0.29,-0.45z"/>
     <path class="fil2" d="M208.58 54.64c0.03,-0.09 0.12,-0.16 0.21,-0.15 0.09,0.02 0.14,0.12 0.11,0.21 -0.03,0.09 -0.13,0.15 -0.22,0.14 -0.09,-0.02 -0.14,-0.1 -0.1,-0.2z"/>
     <path class="fil2" d="M207.06 54.86c0.04,-0.11 0.2,-0.17 0.38,-0.13 0.18,0.04 0.32,0.16 0.28,0.27 -0.05,0.12 -0.21,0.18 -0.39,0.15 -0.18,-0.04 -0.29,-0.16 -0.27,-0.28z"/>
     <path class="fil2" d="M205.44 55.46c0.04,-0.11 0.2,-0.17 0.39,-0.12 0.18,0.04 0.3,0.15 0.28,0.27 -0.05,0.12 -0.21,0.18 -0.4,0.14 -0.18,-0.04 -0.29,-0.16 -0.27,-0.28z"/>
     <path class="fil2" d="M203.93 55.98c0.03,-0.09 0.17,-0.15 0.35,-0.11 0.15,0.04 0.27,0.14 0.24,0.24 -0.03,0.09 -0.17,0.15 -0.35,0.11 -0.15,-0.04 -0.27,-0.14 -0.24,-0.24z"/>
    </g>
    <g id="_1963843810144">
     <path class="fil2" d="M68.89 38.97l0.56 0.11 0.42 0.08 0.59 0 0.8 0.05 0.76 -0.05c0,0 1.1,-0.14 1.11,-0.13 0.02,-0 0.95,-0.23 0.95,-0.23l0.88 -0.38 0.81 -0.43 0.23 -0.16 0.11 -0.01c0,0 0.12,0.07 0.11,0.1l0.13 0.16c0,0 0.07,0.09 0.07,0.11 0,0.02 0.02,0.11 0.01,0.12 0.01,0.01 0,0.11 0,0.11 0,0 0.04,0.06 0.04,0.1 0.01,0.03 0.07,0.07 0.07,0.07l0.01 0.12c0,0 -0.01,0.15 -0.02,0.17 0,0.02 -0.05,0.16 -0.05,0.16l-0.19 0.17 -0.57 0.37 -0.26 0.11 -0.12 -0.01 -0.14 -0.04 -0.25 -0.05 -0.32 0.04 -0.15 0.07 -0.03 0.07 -0.02 0.06 0.05 0.02 0.15 -0.02 0.25 -0.04 0.12 -0.01 0.02 0.05 -0.19 0.04 -0.18 0.05 -0.08 0.05 -0 0.05 0.09 0.03 0.16 -0.03 0.12 -0.04 0.02 0.05 -0.12 0.04 -0.09 0.04 -0.07 0.06 0.01 0.08 0.06 -0.01c0,0 0.11,-0.01 0.13,-0.02 0.01,0.01 0.11,-0.01 0.11,-0.01l-0.01 0.03 -0.19 0.04 -0.08 0.04 -0 0.05 0.04 0.03 0.13 -0.02 0.14 -0.04 0.09 -0.06 0.04 -0.01 -0.05 0.05 -0.14 0.06 -0.15 0.02 -0.05 0.05 0.05 0.04 0.13 0.02 0.12 -0.01 0.13 -0.05 0.1 -0.07 0.06 -0.06 0.09 -0.04 0.13 0 0.19 -0.01 0.27 -0.1 0.39 -0.16 0.32 -0.1 0.24 -0.13 0.22 -0.1c0,0 0.14,-0.08 0.16,-0.1 0.02,-0 0.11,-0.18 0.11,-0.18l0.06 -0.17 0.01 -0.23 -0 -0.34 -0.07 -0.3 -0.05 -0.34 -0.08 -0.24 -0.08 -0.22 0.1 0.02c0,0 0.12,-0.06 0.13,-0.04 0,0.02 0.14,-0.04 0.14,-0.04l0.19 -0.06 0.18 -0.04 0.16 -0.05 0.16 -0.05 0.3 -0.09 0.63 -0.22c0,0 0.2,-0.09 0.24,-0.1 0.04,-0.01 0.22,-0.1 0.22,-0.1 0,0 0.15,-0.11 0.17,-0.12 0.02,-0 0.19,-0.15 0.21,-0.18 0.03,-0.02 0.17,-0.12 0.17,-0.13 0.02,-0 0.13,-0.12 0.14,-0.13 0.03,-0.02 0.14,-0.17 0.14,-0.17 0,0 0.15,-0.16 0.17,-0.19 0.02,-0.02 0.07,-0.15 0.08,-0.16 0.02,-0.02 0.06,-0.18 0.06,-0.18l0.04 -0.22 0.03 -0.27 -0 -0.18 -0.02 -0.25 -0.02 -0.18 -0.05 -0.16 -0.06 -0.17 -0.06 -0.1 -0.13 -0.14 -0.12 0.56 0.14 0.28 -0.32 0.33 0.11 0.49 -0.55 0.29 -0.37 0.53 -0.58 -0.07 -0.5 0.69 -0.54 -0.4 -0.62 0.66 -0.45 -0.39 -0.87 0.79 -0.48 -0.36 -1.13 0.9 -0.49 -0.96 -1.87 0.83 -0.33 -0.61 -1.36 0.73 -0.33 -0.34 -0.67 0.39 -0.98 -0.35 -1.06 0.5 -0.31 -0.44 -0.7 0.42 -0.69 -0.05 -0.42 0.15 -0.49 0.01 -0.55 0.03 -0.35 -0.05 0.2 0.09 0.28 0.07 0.33 0.04 0.66 -0.02 0.52 -0.01 0.45 -0.03 0.24 0.01 0.29 0.03 0.24 0.06c0,0 0.14,0.06 0.14,0.08 0.02,0.02 0.13,0.12 0.13,0.12l0.04 0.1 -0 0.14 -0.05 0.14 -0.07 0.13 -0.35 0.22 -0.47 0.22 -0.14 0.03 -0.14 -0.08 -0.43 -0.07 -0.17 0.03 -0.1 0.02 -0.03 0.09 0.03 0.05 0.13 0.02 0.31 -0.02 0.07 0.01 -0.02 0.02 -0.18 0.03 -0.26 0.02 -0.07 0.06 -0.02 0.08 0.09 0.01 0.22 -0.01 0.24 -0.04 0.04 0.01 0 0.02 -0.08 0.02 -0.26 0.09 -0.18 0.04 -0.04 0.06 0.06 0.06 0.09 0.01 0.17 -0.04 0.21 -0.07 0.08 -0.05 -0.01 0.04 -0.08 0.05c0,0 -0.31,0.11 -0.33,0.11 -0.02,0 -0.1,0.05 -0.1,0.05l-0.01 0.04 0.06 0.04 0.15 -0.02 0.2 -0.09 0.12 -0.06 0.04 0.01 -0.01 0.04 -0.15 0.09c0,0 -0.16,0.09 -0.17,0.1 -0.02,0 -0.11,0.07 -0.11,0.07l-0.02 0.04 0.03 0.02 0.1 -0 0.11 -0.01 0.2 -0.07 0.13 -0.14 0.13 -0.16 0.1 -0.02 0.1 0.04 0.15 -0 0.16 -0.03 0.22 -0.06 0.3 -0.02 0.22 -0.06 0.23 -0.07 0.17 -0.06 0.16 -0.05c0,0 0.13,-0.09 0.16,-0.1 0.02,-0 0.09,-0.13 0.1,-0.14l0.11 -0.16 0.07 -0.17 0.05 -0.16 0.07 -0.26 0.04 -0.19 0.31 0.09zm10.07 -6.87l-10.07 6.87zm10.07 -6.87l0.2 0.02 0.13 0.09 0.07 0.09 0.04 0.13 0.06 0.12 0.09 0.06 0.39 0.08 -0.02 0.36 0.27 0.21 -0.07 0.33 0.28 0.18 -0.13 0.5 0.17 0.36 -0.3 0.35 0.01 0.47 -0.49 0.25 -0.24 0.37 -0.55 0.04 -0.44 0.44 -0.68 -0.12 -0.52 0.48 -0.52 -0.24 -0.8 0.57 -0.59 -0.24 -0.91 0.94 -0.63 -0.99 -1.73 0.82 -0.42 -0.55 -1.38 0.69 -0.39 -0.28 -0.58 0.31 -1 -0.33 -1.03 0.6 -0.4 -0.46 -0.79 0.52 -0.62 -0.19 -0.49 0.3 -0.36 -0.13 -0.35 0.13 0.02 -0.09 -0.01 -0.06 -0.03 -0.09 -0.08 -0 -0.07 0 -0.06 0.01 -0.04 0.04 -0.04 0.06 -0 0.14 -0.35 -0.11 -0.1 0.07 -0.05 0.05 -0.23 -0 -0.16 -0.08 -0.03 -0.08 -0 -0.09 0.02 -0.08 0.06 -0.08 0.1 -0.05 0.19 -0.1 0.21 -0.09 0.33 -0.09 0.28 -0.09 0.29 -0.04 0.26 -0.04 0.3 -0 0.23 0 0.19 -0.01 0.26 -0.01c0,0 0.22,-0.04 0.24,-0.03 0.02,-0 0.21,-0.05 0.21,-0.05l0.31 -0.16 0.19 -0.15 0.16 -0.16 0.2 -0.2 0.3 -0.29 0.06 -0.08 0.02 -0.06 -0 -0.09 -0.11 -0.06 -0.25 -0.05 -0.28 -0.07 -0.22 -0.06 -0.16 -0.08 -0.11 -0.01 -0.16 0.05 -0.11 0.1 -0.14 0.04 -0.12 0.02 -0.15 -0.04 -0.08 -0.05 0.03 -0.04 0.19 -0.04 0.2 -0.05 0.06 -0.03 -0.04 -0.03 -0.12 0.04 -0.24 0.01 -0.08 -0 -0.04 -0.06 0.02 -0.08 0.09 -0.04 0.22 -0.01 0.25 0.04 0.08 -0.04 -0 -0.04 -0.15 -0.05 -0.21 -0.02 -0.16 -0.03 -0.09 -0.03 -0.01 -0.06 0.03 -0.07 0.1 -0 0.33 0.07 0.02 -0.02 0.01 -0.04 -0.13 -0.02 -0.24 -0.04 -0.07 -0.05 0.01 -0.06 0.06 -0.03 0.2 0.02 0.2 0.02 0.14 0.04 -0.03 -0.06 -0.21 -0.06 -0.1 -0.02 -0.07 -0.03 -0 -0.04 0.05 -0.05 0.12 -0 0.28 0.07 0.15 0.11 0.08 0.13 0.07 0.09 0.29 0.06 0.47 0.06 0.72 0.08 0.18 0.05 0.17 0.14 0.12 0.18 0.11 0.24 0.01 0.19 0.01 0.15 0.05 0.09 0.12 -0.04 0.54 -0.18 0.52 -0.13 0.64 -0.27 0.5 -0.11 0.52 -0.08 0.49 -0.05 0.59 -0.11 0.25 -0.04 0.44 0.01 0.3 0.02 0.58 0.04 0.27 0.03 0.39 0.05 0.23 0.05 0.2 0.04 0.32 0.06 0.21 0.06 0.12 0.03 0.24 -0.32 0.18 -0.21 0.12 -0.17 0.1 -0.16 0.03 -0.05 -0.01 -0.08 -0.09 -0.06 -0.07 -0.01 -0.12 -0.03 -0.19 -0.03 -0.11 -0.06 -0.1 -0.05 -0.05 0 -0.1 0.02 -0.06 0.06 -0.12 0.08 -0.06 0.04 -0.08 0.04 -0.12 0.06 -0.12 0.01 -0.04 -0.03 -0.05 -0.05 -0 -0.09 0.14 -0.03 0.18 -0.04 0.27 -0.11 0.03 -0.07 -0.09 -0.01 -0.31 0.12 -0.16 0.03 -0.12 -0.01 -0.01 -0.08 0.05 -0.04 0.23 -0.07 0.32 -0.03 0.06 -0.01 -0.04 -0.04 -0.26 0.04 -0.22 0.01 -0.1 -0.04 -0.02 -0.09 0.12 -0.03 0.27 -0.01 0.12 -0 0.01 -0.04 -0.18 -0.05 -0.12 -0.03 -0.12 -0.07 0.02 -0.06 0.09 -0.03 0.29 0.08 0.22 0.03 -0.07 -0.09 -0.22 -0.08 -0.1 -0.04 -0.12 -0.03 0 -0.05 0.04 -0.06 0.32 0.08 0.34 0.19 0.38 0.09 0.48 0.04 0.48 0.11 0.11 0.06 0.12 0.18 0.03 0.11 0.02 0.14 0.01 0.17 -0.03 0.18 -0.08 0.37 -0.08 0.32 0.07 0.07 0.18 0.02 0.61 -0.09 0.62 -0.08 0.61 -0.21 0.17 -0.1 0.14 -0.15 0.11 -0.18 0.06 -0.14 0.04 -0.2 0.03 -0.14 -0.02 -0.11 -0.07 -0.23 -0.07 -0.2 -0.11 -0.22 -0.13 -0.25 -0.1 -0.23 -0.14 -0.19 -0.14 -0.22 -0.1 -0.18 -0.13 -0.22 -0.11 -0.22 0 -0.16 0.01 -0.11 0.08 -0.04z"/>
     <path class="fil2" d="M72.55 33.67c0.05,-0.17 0.2,-0.29 0.34,-0.27 0.13,0.04 0.21,0.19 0.15,0.37 -0.04,0.18 -0.19,0.3 -0.33,0.27 -0.13,-0.04 -0.21,-0.21 -0.16,-0.38z"/>
     <path class="fil2" d="M71.69 34.28c0.04,-0.18 0.24,-0.28 0.42,-0.25 0.18,0.03 0.3,0.21 0.25,0.38 -0.05,0.17 -0.22,0.29 -0.42,0.25 -0.18,-0.03 -0.3,-0.21 -0.25,-0.38z"/>
     <path class="fil2" d="M70.63 34.31c0.03,-0.14 0.23,-0.23 0.43,-0.19 0.21,0.04 0.34,0.2 0.3,0.33 -0.05,0.14 -0.23,0.23 -0.43,0.19 -0.21,-0.04 -0.34,-0.18 -0.3,-0.33z"/>
     <path class="fil2" d="M69.32 34c0.04,-0.12 0.23,-0.2 0.43,-0.15 0.19,0.04 0.34,0.18 0.3,0.31 -0.05,0.12 -0.23,0.2 -0.42,0.15 -0.2,-0.05 -0.34,-0.18 -0.31,-0.31z"/>
     <path class="fil2 str0" d="M68.15 33.67c0.04,-0.18 0.24,-0.28 0.43,-0.26 0.17,0.05 0.29,0.22 0.24,0.39 -0.05,0.17 -0.24,0.28 -0.42,0.25 -0.18,-0.03 -0.3,-0.21 -0.25,-0.38z"/>
     <path class="fil2" d="M67.21 33.54c0.02,-0.08 0.1,-0.14 0.17,-0.12 0.08,0.02 0.12,0.1 0.1,0.18 -0.02,0.08 -0.11,0.13 -0.18,0.11 -0.08,-0.02 -0.11,-0.08 -0.08,-0.17z"/>
     <path class="fil2" d="M65.93 33.72c0.03,-0.09 0.17,-0.14 0.32,-0.11 0.15,0.03 0.27,0.13 0.24,0.22 -0.04,0.1 -0.18,0.16 -0.33,0.12 -0.15,-0.03 -0.25,-0.14 -0.23,-0.24z"/>
     <path class="fil2" d="M64.57 34.23c0.03,-0.09 0.17,-0.14 0.33,-0.1 0.15,0.03 0.26,0.12 0.24,0.22 -0.04,0.1 -0.18,0.16 -0.34,0.12 -0.15,-0.03 -0.25,-0.14 -0.23,-0.24z"/>
     <path class="fil2" d="M63.3 34.66c0.02,-0.08 0.14,-0.13 0.29,-0.09 0.13,0.04 0.22,0.12 0.2,0.2 -0.02,0.08 -0.14,0.13 -0.29,0.09 -0.13,-0.04 -0.22,-0.12 -0.2,-0.2z"/>
    </g>
    <g id="_1963843809056">
     <path class="fil2" d="M320.36 21.86c0.16,0.03 0.24,0.21 0.19,0.4 -0.03,0.19 -0.22,0.32 -0.36,0.3 -0.16,-0.03 -0.24,-0.19 -0.19,-0.4 0.03,-0.19 0.2,-0.31 0.36,-0.3z"/>
     <path class="fil2" d="M325.56 18.96c0.26,0.03 0.42,0.22 0.37,0.41 -0.03,0.2 -0.28,0.31 -0.54,0.27 -0.24,-0.03 -0.4,-0.23 -0.37,-0.41 0.05,-0.19 0.3,-0.32 0.54,-0.27z"/>
     <path class="fil2" d="M320.49 19.88c0.18,0.03 0.29,0.22 0.25,0.41 -0.05,0.19 -0.22,0.32 -0.42,0.29 -0.16,-0.03 -0.26,-0.21 -0.23,-0.39 0.05,-0.21 0.22,-0.32 0.4,-0.31z"/>
     <path class="fil2" d="M323.37 19.76c0.22,0.04 0.37,0.24 0.32,0.46 -0.05,0.21 -0.27,0.35 -0.51,0.32 -0.22,-0.04 -0.35,-0.24 -0.3,-0.46 0.05,-0.21 0.27,-0.35 0.49,-0.31z"/>
     <path class="fil2" d="M321.36 21.03c0.16,0.02 0.25,0.16 0.23,0.3 -0.04,0.15 -0.2,0.24 -0.34,0.21 -0.16,-0.02 -0.25,-0.16 -0.22,-0.29 0.04,-0.15 0.2,-0.24 0.34,-0.22z"/>
     <path class="fil2" d="M327.04 20.03l-0.78 0.18 -0.55 0.16 -0.76 0.34 -1.02 0.42 -0.92 0.5c0,0 -1.28,0.76 -1.3,0.79 -0.02,0 -1.03,0.76 -1.03,0.76l-0.84 0.91 -0.74 0.92 -0.2 0.3 -0.1 0.06c0,0 -0.2,-0.01 -0.2,-0.02 -0.02,-0.01 -0.29,-0.09 -0.29,-0.09l-0.14 -0.08c-0.03,-0.03 -0.1,-0.1 -0.1,-0.12 -0.02,-0.01 -0.08,-0.11 -0.08,-0.11 0,0 -0.07,-0.05 -0.12,-0.08 -0.03,-0.03 -0.13,-0.04 -0.13,-0.04l-0.08 -0.1c0,0 -0.1,-0.17 -0.1,-0.19 -0.02,-0.01 -0.03,-0.21 -0.03,-0.21l0.11 -0.29 0.46 -0.7 0.25 -0.26 0.16 -0.06 0.21 -0.03 0.33 -0.09 0.38 -0.23 0.14 -0.16 0.02 -0.09 -0.02 -0.07 -0.08 0 -0.17 0.11 -0.29 0.19 -0.16 0.06 -0.03 -0.03 0.2 -0.15 0.2 -0.15 0.07 -0.11 -0.03 -0.06 -0.13 0.03 -0.18 0.13 -0.13 0.1 -0.03 -0.03 0.11 -0.11 0.09 -0.09 0.05 -0.12 -0.06 -0.08 -0.07 0.05c0,0 -0.14,0.07 -0.15,0.09 -0.02,0 -0.12,0.08 -0.12,0.08l-0.01 -0.03 0.22 -0.16 0.06 -0.09 -0.01 -0.05 -0.1 -0.01 -0.14 0.09 -0.15 0.12 -0.07 0.12 -0.07 0.03 0.04 -0.08 0.14 -0.16 0.17 -0.11 0.04 -0.06 -0.12 -0.01 -0.17 0.04 -0.14 0.09 -0.13 0.12 -0.09 0.13 -0.03 0.11 -0.1 0.08 -0.16 0.09 -0.24 0.13 -0.27 0.26 -0.38 0.37 -0.32 0.29 -0.21 0.28 -0.22 0.23c0,0 -0.12,0.15 -0.13,0.17 0,0.02 -0.01,0.27 -0.01,0.27l0.05 0.2 0.14 0.25 0.24 0.36 0.28 0.27 0.29 0.31 0.25 0.23 0.23 0.16 -0.13 0.05c0,0 -0.12,0.14 -0.15,0.11 -0,-0.02 -0.12,0.14 -0.12,0.14l-0.21 0.18 -0.18 0.13 -0.18 0.13 -0.16 0.14 -0.32 0.29 -0.64 0.58c0,0 -0.19,0.2 -0.22,0.23 -0.05,0.05 -0.2,0.24 -0.2,0.24 0,0 -0.13,0.21 -0.14,0.23 -0.02,0 -0.14,0.25 -0.15,0.28 -0.01,0.02 -0.12,0.23 -0.14,0.23 -0.01,0.02 -0.07,0.21 -0.08,0.23 -0.01,0.04 -0.06,0.25 -0.06,0.25 0,0 -0.06,0.26 -0.07,0.28 -0.01,0.04 0.01,0.19 -0,0.23l0.05 0.2 0.08 0.27 0.16 0.28 0.11 0.21 0.19 0.24 0.14 0.18 0.19 0.13 0.17 0.14 0.13 0.06 0.28 0.1 -0.21 -0.66 -0.38 -0.21 0.19 -0.53 -0.48 -0.46 0.5 -0.62 0.12 -0.76 0.78 -0.27 0.16 -1 0.94 0.1 0.34 -1.04 0.82 0.15 0.57 -1.33 0.84 0.11 0.82 -1.6 1.23 0.73 1.79 -1.94 0.81 0.45 1.21 -1.57 0.63 0.19 0.59 -0.8 1.44 -0.19 1 -1.14 0.67 0.29 0.6 -0.85 0.88 -0.35 0.44 -0.39 0.59 -0.3 0.66 -0.33 0.47 -0.16 -0.32 0.04 -0.39 0.07 -0.44 0.14 -0.8 0.4 -0.63 0.32 -0.56 0.29 -0.3 0.12 -0.38 0.12 -0.33 0.08c0,0 -0.21,0.01 -0.23,0 -0.02,-0.01 -0.23,-0.05 -0.23,-0.05l-0.14 -0.09 -0.07 -0.14 -0.04 -0.17 0.02 -0.18 0.29 -0.43 0.45 -0.51 0.15 -0.11 0.22 0 0.58 -0.17 0.19 -0.12 0.11 -0.1 -0.02 -0.1 -0.07 -0.04 -0.18 0.06 -0.37 0.18 -0.11 0.04 0.01 -0.05 0.22 -0.12 0.29 -0.16 0.07 -0.11 -0.04 -0.1 -0.13 0.05 -0.26 0.13 -0.27 0.19 -0.07 0.02 0.01 -0.04 0.07 -0.05 0.28 -0.23 0.2 -0.15 0 -0.07 -0.11 -0.05 -0.13 0.05 -0.18 0.13 -0.22 0.21 -0.08 0.07 -0.01 -0.03 0.07 -0.12c0,0 0.32,-0.29 0.34,-0.29 0.02,-0 0.09,-0.11 0.09,-0.11l-0.01 -0.05 -0.1 -0.01 -0.15 0.12 -0.21 0.19 -0.11 0.13 -0.06 0.01 -0.01 -0.05 0.13 -0.19c0,0 0.13,-0.17 0.15,-0.2 -0,-0.02 0.09,-0.13 0.09,-0.13l0.01 -0.05 -0.06 -0 -0.13 0.05 -0.11 0.1 -0.21 0.19 -0.09 0.22 -0.05 0.22 -0.09 0.09 -0.17 0.02 -0.18 0.08 -0.18 0.13 -0.25 0.2 -0.35 0.19 -0.25 0.2 -0.25 0.18 -0.15 0.18 -0.18 0.13c0,0 -0.1,0.17 -0.11,0.19 -0.01,0.02 -0.05,0.21 -0.05,0.23 0,0.02 -0.03,0.22 -0.03,0.22l0.01 0.21 0.05 0.2 0.09 0.3 0.07 0.23 -0.45 0.09zm-8.03 12.96l8.03 -12.96zm-8.03 12.96l-0.27 0.1 -0.22 -0.04 -0.13 -0.06 -0.14 -0.11 -0.16 -0.09 -0.14 -0.02 -0.55 0.16 -0.21 -0.4 -0.45 -0.07 -0.14 -0.36 -0.48 -0.03 -0.16 -0.6 -0.46 -0.28 0.13 -0.51 -0.32 -0.52 0.42 -0.53 0.07 -0.52 0.66 -0.37 0.27 -0.7 0.95 -0.26 0.32 -0.81 0.81 -0.05 0.63 -1.06 0.88 -0.1 0.53 -1.5 1.45 0.68 1.62 -1.86 0.86 0.33 1.26 -1.53 0.68 0.07 0.53 -0.64 1.45 -0.23 0.9 -1.23 0.8 0.24 0.65 -0.99 0.92 -0.16 0.39 -0.59 0.53 -0.09 0.37 -0.32 0.02 0.1 0.06 0.08 0.11 0.06 0.09 -0.04 0.09 -0.04 0.07 -0.05 0.02 -0.06 -0 -0.11 -0.07 -0.13 0.5 -0.1 0.08 -0.14 0.04 -0.1 0.28 -0.12 0.23 -0.02 0.09 0.07 0.06 0.09 0.04 0.1 -0.03 0.13 -0.11 0.11 -0.15 0.19 -0.22 0.21 -0.32 0.29 -0.29 0.25 -0.34 0.22 -0.29 0.19 -0.39 0.18 -0.28 0.12 -0.23 0.12 -0.31 0.16c0,0 -0.24,0.16 -0.27,0.17 -0.02,0 -0.22,0.16 -0.22,0.16l-0.31 0.36 -0.13 0.26 -0.1 0.25 -0.14 0.32 -0.16 0.47 -0.03 0.13 0.02 0.09 0.06 0.09 0.15 -0.02 0.33 -0.08 0.41 -0.09 0.32 -0.04 0.23 -0.02 0.16 -0.06 0.16 -0.16 0.08 -0.16 0.15 -0.12 0.14 -0.09 0.2 -0.05 0.12 0.01 0.01 0.05 -0.22 0.16 -0.22 0.16 -0.04 0.08 0.08 -0 0.13 -0.1 0.28 -0.15 0.11 -0.04 0.09 0.05 0.02 0.08 -0.09 0.09 -0.26 0.13 -0.34 0.12 -0.08 0.07 0.05 0.04 0.19 -0.03 0.31 -0.11 0.22 -0.05 0.13 -0.05 0.05 0.06 0 0.09 -0.12 0.06 -0.46 0.12 0 0.02 0.02 0.07 0.18 -0.04 0.29 -0.09 0.12 0.01 0.03 0.06 -0.06 0.07 -0.25 0.09 -0.25 0.09 -0.2 0.05 0.04 0.02 0.32 -0.06 0.13 -0.03 0.12 -0.01 0.03 0.05 -0.02 0.06 -0.15 0.11 -0.39 0.07 -0.26 -0.03 -0.16 -0.1 -0.16 -0.03 -0.38 0.11 -0.64 0.2 -0.94 0.31 -0.26 0.06 -0.28 -0.04 -0.28 -0.11 -0.3 -0.18 -0.14 -0.2 -0.09 -0.16 -0.13 -0.06 -0.15 0.12 -0.53 0.48 -0.56 0.43 -0.61 0.64 -0.57 0.4 -0.59 0.39 -0.57 0.33 -0.68 0.44 -0.29 0.19 -0.55 0.24 -0.39 0.16 -0.75 0.3 -0.36 0.12 -0.5 0.19 -0.34 0.06 -0.27 0.08 -0.44 0.12 -0.28 0.05 -0.18 0.06 -0.09 0.47 -0.1 0.33 -0.04 0.22 -0 0.23 -0 0.07 0.04 0.08 0.16 0.02 0.09 -0.02 0.18 -0.04 0.27 -0.08 0.15 -0.02 0.16 0 0.07 -0.02 0.1 -0.08 0.05 -0.12 0.09 -0.13 0.06 -0.09 0.06 -0.08 0.11 -0.13 0.16 -0.07 0.08 -0 0.09 0.03 0.06 0.09 -0.15 0.11 -0.2 0.15 -0.27 0.28 0.02 0.07 0.11 -0.03 0.31 -0.32 0.17 -0.11 0.16 -0.06 0.06 0.08 -0.02 0.08 -0.25 0.2 -0.36 0.21 -0.07 0.03 0.07 0.04 0.29 -0.18 0.28 -0.14 0.15 -0.02 0.08 0.07 -0.13 0.1 -0.34 0.15 -0.12 0.08 -0.01 0.04 0.26 -0.04 0.17 -0.02 0.18 0.01 0.03 0.06 -0.1 0.08 -0.41 0.08 -0.29 0.1 0.15 0.04 0.33 -0.02 0.15 -0.03 0.19 -0.03 0.02 0.07 -0.02 0.06 -0.44 0.1 -0.55 0 -0.54 0.13 -0.63 0.24 -0.69 0.16 -0.17 0.02 -0.26 -0.12 -0.12 -0.11 -0.11 -0.14 -0.12 -0.17 -0.09 -0.21 -0.14 -0.43 -0.11 -0.38 -0.12 -0.03 -0.23 0.09 -0.7 0.43 -0.72 0.44 -0.64 0.6 -0.13 0.19 -0.06 0.25 -0.04 0.24 0.02 0.17 0.06 0.25 0.07 0.14 0.09 0.12 0.24 0.18 0.23 0.16 0.25 0.17 0.36 0.18 0.28 0.18 0.3 0.12 0.31 0.16 0.24 0.12 0.31 0.16 0.26 0.17 0.12 0.17 0.05 0.13 -0.06 0.08z"/>
    </g>
   </g>
  </g>
  <polygon class="fil3" points="-0,0 336.38,0 336.38,166.9 -0,166.9 "/>
 </g>
</svg>
