<?xml version="1.0" encoding="UTF-8"?>
<!DOCTYPE svg PUBLIC "-//W3C//DTD SVG 1.1//EN" "http://www.w3.org/Graphics/SVG/1.1/DTD/svg11.dtd">
<!-- Creator: CorelDRAW 2018 (64-Bit) -->
<svg xmlns="http://www.w3.org/2000/svg" xml:space="preserve" width="406.625mm" height="102.37mm" version="1.1" style="shape-rendering:geometricPrecision; text-rendering:geometricPrecision; image-rendering:optimizeQuality; fill-rule:evenodd; clip-rule:evenodd"
viewBox="0 0 41679.64 10493.12"
 xmlns:xlink="http://www.w3.org/1999/xlink">
 <defs>
  <style type="text/css">
   <![CDATA[
    .fil0 {fill:url(#id0)}
   ]]>
  </style>
  <linearGradient id="id0" gradientUnits="userSpaceOnUse" x1="-29.78" y1="10493.12" x2="-29.78" y2="274.38">
   <stop offset="0" style="stop-opacity:1; stop-color:#086109"/>
   <stop offset="0.768627" style="stop-opacity:1; stop-color:#579321"/>
   <stop offset="1" style="stop-opacity:1; stop-color:#A7C639"/>
  </linearGradient>
 </defs>
 <g id="Слой_x0020_1">
  <metadata id="CorelCorpID_0Corel-Layer"/>
  <path class="fil0" d="M41679.64 1.25c-1701.34,-32.81 -2285.65,589.12 -3880.58,1298.44 -1447.22,643.63 -3236.93,1065.74 -4707.46,1017.29 -1812.86,-59.74 -2451.31,-1061.35 -4225.31,-1339.57 -1245.28,-195.31 -2304.36,30.49 -3168.07,331.53 -1789.26,623.62 -2668.9,1304.83 -4736,1090.73 -1668.08,-172.76 -2728.81,-620.94 -4291.53,-1112.32 -1534.03,-482.35 -2999.71,-557.24 -4512.12,5.05 -1258.64,467.93 -2605.14,988.19 -4549.1,1173.3 -2957.91,281.69 -5612.87,-2464.54 -7609.47,-2464.54l0 10491.95 41679.64 0 0 -10491.87z"/>
 </g>
</svg>
