<?xml version="1.0" encoding="UTF-8"?>
<!DOCTYPE svg PUBLIC "-//W3C//DTD SVG 1.1//EN" "http://www.w3.org/Graphics/SVG/1.1/DTD/svg11.dtd">
<!-- Creator: CorelDRAW 2018 (64-Bit) -->
<svg xmlns="http://www.w3.org/2000/svg" xml:space="preserve" width="50.5879mm" height="11.4107mm" version="1.1" style="shape-rendering:geometricPrecision; text-rendering:geometricPrecision; image-rendering:optimizeQuality; fill-rule:evenodd; clip-rule:evenodd"
viewBox="0 0 729.9 164.64"
 xmlns:xlink="http://www.w3.org/1999/xlink">
 <defs>
  <style type="text/css">
   <![CDATA[
    .str0 {stroke:#009846;stroke-width:2.89;stroke-miterlimit:22.9256}
    .fil1 {fill:#B0CB1F;fill-rule:nonzero}
    .fil0 {fill:#009846;fill-rule:nonzero}
   ]]>
  </style>
 </defs>
 <g id="Слой_x0020_1">
  <metadata id="CorelCorpID_0Corel-Layer"/>
  <path class="fil0 str0" d="M173.18 1.53l-167.84 0c-1.43,0 -2.37,1.18 -2.61,2.38l0 155.49c0.24,1.19 1.18,2.38 2.61,2.38l167.84 0c1.19,0 2.38,-0.95 2.61,-2.14 0.47,-1.18 0,-2.37 -0.95,-3.08l-73.59 -52.94 70.75 33.47c0.24,0 0.72,0.24 1.19,0.24 0.48,0 0.95,-0.24 1.43,-0.48 0.95,-0.71 1.43,-1.42 1.43,-2.61l0 -20.18c0,-1.42 -0.95,-2.37 -2.14,-2.85l-72.87 -20.89 71.93 4.99 0.23 0c0.71,0 1.43,-0.24 1.9,-0.72 0.71,-0.71 0.95,-1.43 0.95,-2.13l0 -19.71c0,-0.95 -0.24,-1.66 -0.95,-2.13 -0.48,-0.47 -1.19,-0.72 -1.9,-0.72l-0.23 0 -71.22 8.07 72.41 -23.98c1.18,-0.24 1.9,-1.42 1.9,-2.61l0 -22.31c0,-0.95 -0.48,-1.9 -1.43,-2.37 -0.47,-0.48 -0.95,-0.48 -1.43,-0.48 -0.47,0 -0.95,0 -1.42,0.24l-69.32 37.27 72.4 -56.02c0.72,-0.71 1.19,-1.66 1.19,-2.38l0 -0.95c0,-1.42 -1.19,-2.85 -2.85,-2.85zm126.54 140.78l5.22 -8.31c0.24,-0.24 0.24,-0.24 0.48,-0.48l3.56 -10.2c0.23,-0.24 0.23,-0.24 0.23,-0.48l4.99 -25.41 10.68 -71.45 2.61 -7.36 3.8 -4.98 4.98 -3.33 5.94 -1.9c1.43,-0.24 2.13,-1.42 2.13,-2.61l0 -1.43c0,-1.42 -1.18,-2.85 -2.84,-2.85l-63.63 0 -0.23 0 -9.73 0.95 -0.71 0 -3.33 0.95c-0.23,0 -0.47,0.24 -0.71,0.48l-2.85 1.66c-0.24,0 -0.48,0.48 -0.95,0.71l-3.56 6.41c-0.24,0.23 -0.48,0.47 -0.48,0.71l-2.61 11.4 0 0.24 -7.36 58.63 -3.79 21.61 -2.85 6.41 -1.19 1.42 -0.48 0.48 -0.23 0 -7.12 0.71 -5.7 -2.14 -0.47 -0.71 -1.42 -1.67c-0.48,-0.71 -1.43,-1.18 -2.14,-1.18l-0.71 0c-0.95,0 -1.9,0.48 -2.38,1.42l-22.08 33.71c-0.71,1.18 -0.47,2.61 0.24,3.56l5.94 5.46c0.24,0 0.47,0.24 0.71,0.47l10.92 4.99c0,0 0.24,0.23 0.48,0.23l12.34 3.33 0.48 0 13.29 1.42 2.61 0 11.39 -0.24 0.48 0 13.3 -2.13 0.24 0 12.34 -3.8c0.24,-0.24 0.48,-0.24 0.48,-0.24l10.45 -5.93c0.23,0 0.48,0 0.71,-0.24l8.07 -7.6c0.23,-0.23 0.47,-0.47 0.47,-0.71zm130.33 -43.44l-23.26 0 11.63 -41.31 11.63 41.31zm13.3 40.83l5.46 17.57c0.47,1.19 1.66,1.9 2.85,1.9l138.4 0c0.95,0 1.9,-0.48 2.37,-1.19l26.83 -43.44 26.82 43.44c0.48,0.71 1.43,1.19 2.38,1.19l77.15 0c1.18,0 2.14,-0.48 2.61,-1.43 0.24,-0.47 0.24,-0.95 0.24,-1.18l0 -0.24c0,-0.48 -0.24,-1.19 -0.71,-1.66l-66.47 -78.82 59.35 -69.55c0.71,-0.71 0.95,-1.9 0.47,-3.09 -0.47,-0.95 -1.42,-1.67 -2.61,-1.67l-77.16 0 -0.23 0c-0.95,0 -1.9,0.71 -2.37,1.43l-19.47 33 -18.04 -33c-0.72,-0.71 -1.67,-1.43 -2.62,-1.43l-77.87 0c-0.95,0 -2.13,0.71 -2.61,1.67 -0.48,1.19 -0.24,2.13 0.48,3.09l57.92 69.08 -54.13 64.1 -61.49 -136.27c-0.48,-0.95 -1.43,-1.67 -2.61,-1.67l-77.4 0c-1.18,0 -2.13,0.71 -2.61,1.67l-68.85 151.93c-0.48,0.95 -0.24,2.14 0.23,2.85 0.48,0.71 1.43,1.19 2.38,1.19l73.84 0c1.42,0 2.37,-0.71 2.85,-1.9l5.94 -17.57 48.67 0z"/>
  <path class="fil1" d="M170.45 -0l-167.84 0c-1.43,0 -2.37,1.18 -2.61,2.38l0 155.49c0.24,1.19 1.18,2.38 2.61,2.38l167.84 0c1.19,0 2.37,-0.95 2.61,-2.14 0.47,-1.18 0,-2.37 -0.95,-3.08l-73.59 -52.94 70.75 33.47c0.24,0 0.72,0.24 1.19,0.24 0.48,0 0.95,-0.24 1.43,-0.48 0.95,-0.71 1.43,-1.42 1.43,-2.61l0 -20.18c0,-1.42 -0.95,-2.37 -2.14,-2.85l-72.87 -20.89 71.93 4.99 0.24 0c0.71,0 1.43,-0.24 1.9,-0.72 0.71,-0.71 0.95,-1.43 0.95,-2.13l0 -19.71c0,-0.95 -0.24,-1.66 -0.95,-2.13 -0.48,-0.47 -1.19,-0.72 -1.9,-0.72l-0.24 0 -71.22 8.07 72.41 -23.98c1.18,-0.24 1.9,-1.42 1.9,-2.61l0 -22.31c0,-0.95 -0.48,-1.9 -1.43,-2.37 -0.47,-0.48 -0.95,-0.48 -1.43,-0.48 -0.47,0 -0.95,0 -1.42,0.24l-69.32 37.27 72.4 -56.02c0.71,-0.71 1.19,-1.66 1.19,-2.38l0 -0.95c0,-1.42 -1.19,-2.85 -2.85,-2.85zm126.53 140.78l5.22 -8.31c0.24,-0.24 0.24,-0.24 0.48,-0.48l3.57 -10.2c0.23,-0.24 0.23,-0.24 0.23,-0.48l4.99 -25.41 10.68 -71.45 2.62 -7.36 3.8 -4.98 4.98 -3.33 5.94 -1.9c1.43,-0.24 2.13,-1.42 2.13,-2.61l0 -1.43c0,-1.42 -1.18,-2.85 -2.85,-2.85l-63.62 0 -0.24 0 -9.73 0.95 -0.71 0 -3.33 0.95c-0.23,0 -0.47,0.24 -0.71,0.48l-2.85 1.66c-0.24,0 -0.48,0.48 -0.95,0.71l-3.56 6.41c-0.24,0.23 -0.48,0.47 -0.48,0.71l-2.61 11.4 0 0.24 -7.36 58.63 -3.79 21.61 -2.85 6.41 -1.19 1.42 -0.48 0.48 -0.23 0 -7.12 0.71 -5.7 -2.14 -0.47 -0.71 -1.42 -1.67c-0.48,-0.71 -1.43,-1.18 -2.14,-1.18l-0.71 0c-0.95,0 -1.9,0.48 -2.38,1.42l-22.08 33.71c-0.71,1.18 -0.47,2.61 0.24,3.56l5.94 5.46c0.24,0 0.47,0.24 0.71,0.47l10.92 4.99c0,0 0.24,0.23 0.48,0.23l12.34 3.33 0.48 0 13.29 1.42 2.61 0 11.39 -0.24 0.48 0 13.29 -2.13 0.24 0 12.34 -3.8c0.24,-0.24 0.48,-0.24 0.48,-0.24l10.45 -5.93c0.23,0 0.48,0 0.71,-0.24l8.07 -7.6c0.23,-0.23 0.47,-0.47 0.47,-0.71zm130.33 -43.44l-23.26 0 11.64 -41.31 11.63 41.31zm13.3 40.83l5.46 17.57c0.47,1.19 1.66,1.9 2.85,1.9l138.4 0c0.95,0 1.9,-0.48 2.37,-1.19l26.83 -43.44 26.82 43.44c0.48,0.71 1.43,1.19 2.38,1.19l77.15 0c1.18,0 2.14,-0.48 2.61,-1.43 0.24,-0.47 0.24,-0.95 0.24,-1.18l0 -0.24c0,-0.48 -0.24,-1.19 -0.71,-1.66l-66.47 -78.82 59.35 -69.55c0.71,-0.72 0.95,-1.9 0.47,-3.09 -0.47,-0.95 -1.42,-1.67 -2.61,-1.67l-77.16 0 -0.23 0c-0.95,0 -1.9,0.72 -2.37,1.43l-19.47 33 -18.04 -33c-0.72,-0.71 -1.67,-1.43 -2.61,-1.43l-77.87 0c-0.95,0 -2.13,0.72 -2.61,1.67 -0.48,1.19 -0.24,2.13 0.48,3.09l57.92 69.08 -54.12 64.1 -61.49 -136.27c-0.48,-0.95 -1.43,-1.67 -2.61,-1.67l-77.4 0c-1.18,0 -2.13,0.72 -2.61,1.67l-68.85 151.93c-0.48,0.95 -0.24,2.14 0.23,2.85 0.48,0.71 1.43,1.19 2.38,1.19l73.84 0c1.42,0 2.37,-0.71 2.84,-1.9l5.94 -17.57 48.67 0z"/>
 </g>
</svg>
