<?xml version="1.0" encoding="UTF-8"?>
<!DOCTYPE svg PUBLIC "-//W3C//DTD SVG 1.1//EN" "http://www.w3.org/Graphics/SVG/1.1/DTD/svg11.dtd">
<!-- Creator: CorelDRAW 2018 (64-Bit) -->
<svg xmlns="http://www.w3.org/2000/svg" xml:space="preserve" width="135.82mm" height="28.675mm" version="1.1" style="shape-rendering:geometricPrecision; text-rendering:geometricPrecision; image-rendering:optimizeQuality; fill-rule:evenodd; clip-rule:evenodd"
viewBox="0 0 12281.97 2593.03"
 xmlns:xlink="http://www.w3.org/1999/xlink">
 <defs>
  <style type="text/css">
   <![CDATA[
    .fil0 {fill:url(#id0)}
    .fil21 {fill:url(#id1)}
    .fil39 {fill:url(#id2)}
    .fil44 {fill:url(#id3)}
    .fil12 {fill:url(#id4)}
    .fil4 {fill:url(#id5)}
    .fil45 {fill:url(#id6)}
    .fil20 {fill:url(#id7)}
    .fil24 {fill:url(#id8)}
    .fil17 {fill:url(#id9)}
    .fil43 {fill:url(#id10)}
    .fil38 {fill:url(#id11)}
    .fil29 {fill:url(#id12)}
    .fil47 {fill:url(#id13)}
    .fil23 {fill:url(#id14)}
    .fil8 {fill:url(#id15)}
    .fil49 {fill:url(#id16)}
    .fil26 {fill:url(#id17)}
    .fil13 {fill:url(#id18)}
    .fil50 {fill:url(#id19)}
    .fil41 {fill:url(#id20)}
    .fil31 {fill:url(#id21)}
    .fil37 {fill:url(#id22)}
    .fil40 {fill:url(#id23)}
    .fil10 {fill:url(#id24)}
    .fil28 {fill:url(#id25)}
    .fil36 {fill:url(#id26)}
    .fil42 {fill:url(#id27)}
    .fil22 {fill:url(#id28)}
    .fil46 {fill:url(#id29)}
    .fil48 {fill:url(#id30)}
    .fil2 {fill:url(#id31)}
    .fil51 {fill:url(#id32)}
    .fil15 {fill:url(#id33)}
    .fil19 {fill:url(#id34)}
    .fil35 {fill:url(#id35)}
    .fil16 {fill:url(#id36)}
    .fil27 {fill:url(#id37)}
    .fil5 {fill:url(#id38)}
    .fil1 {fill:url(#id39)}
    .fil11 {fill:url(#id40)}
    .fil14 {fill:url(#id41)}
    .fil3 {fill:url(#id42)}
    .fil18 {fill:url(#id43)}
    .fil25 {fill:url(#id44)}
    .fil32 {fill:url(#id45)}
    .fil30 {fill:url(#id46)}
    .fil7 {fill:url(#id47)}
    .fil34 {fill:url(#id48)}
    .fil9 {fill:url(#id49)}
    .fil33 {fill:url(#id50)}
    .fil6 {fill:url(#id51)}
   ]]>
  </style>
  <linearGradient id="id0" gradientUnits="objectBoundingBox" x1="0%" y1="0%" x2="98.4975%" y2="0%">
   <stop offset="0" style="stop-opacity:1; stop-color:#61A4DA"/>
   <stop offset="0.360784" style="stop-opacity:1; stop-color:#3F6079"/>
   <stop offset="1" style="stop-opacity:1; stop-color:#1C1B17"/>
  </linearGradient>
  <linearGradient id="id1" gradientUnits="objectBoundingBox" xlink:href="#id0" x1="0%" y1="0%" x2="98.5199%" y2="0%">
  </linearGradient>
  <linearGradient id="id2" gradientUnits="objectBoundingBox" xlink:href="#id0" x1="0%" y1="0%" x2="98.3249%" y2="0%">
  </linearGradient>
  <linearGradient id="id3" gradientUnits="objectBoundingBox" xlink:href="#id0" x1="0%" y1="0%" x2="98.4285%" y2="0%">
  </linearGradient>
  <linearGradient id="id4" gradientUnits="objectBoundingBox" xlink:href="#id0" x1="0%" y1="0%" x2="98.4287%" y2="0%">
  </linearGradient>
  <linearGradient id="id5" gradientUnits="objectBoundingBox" xlink:href="#id0" x1="0%" y1="0%" x2="98.526%" y2="0%">
  </linearGradient>
  <linearGradient id="id6" gradientUnits="objectBoundingBox" xlink:href="#id0" x1="0%" y1="0%" x2="98.5231%" y2="0%">
  </linearGradient>
  <linearGradient id="id7" gradientUnits="objectBoundingBox" xlink:href="#id0" x1="0%" y1="0%" x2="98.5338%" y2="0%">
  </linearGradient>
  <linearGradient id="id8" gradientUnits="objectBoundingBox" xlink:href="#id0" x1="0%" y1="0%" x2="98.524%" y2="0%">
  </linearGradient>
  <linearGradient id="id9" gradientUnits="objectBoundingBox" xlink:href="#id0" x1="0%" y1="0%" x2="98.5267%" y2="0%">
  </linearGradient>
  <linearGradient id="id10" gradientUnits="objectBoundingBox" xlink:href="#id0" x1="0%" y1="0%" x2="98.5345%" y2="0%">
  </linearGradient>
  <linearGradient id="id11" gradientUnits="objectBoundingBox" xlink:href="#id0" x1="0%" y1="0%" x2="98.39%" y2="0%">
  </linearGradient>
  <linearGradient id="id12" gradientUnits="objectBoundingBox" xlink:href="#id0" x1="0%" y1="0%" x2="98.4282%" y2="0%">
  </linearGradient>
  <linearGradient id="id13" gradientUnits="objectBoundingBox" xlink:href="#id0" x1="0%" y1="0%" x2="98.5232%" y2="0%">
  </linearGradient>
  <linearGradient id="id14" gradientUnits="objectBoundingBox" xlink:href="#id0" x1="0%" y1="0%" x2="98.3422%" y2="0%">
  </linearGradient>
  <linearGradient id="id15" gradientUnits="objectBoundingBox" xlink:href="#id0" x1="0%" y1="0%" x2="98.5253%" y2="0%">
  </linearGradient>
  <linearGradient id="id16" gradientUnits="objectBoundingBox" xlink:href="#id0" x1="0%" y1="0%" x2="98.4284%" y2="0%">
  </linearGradient>
  <linearGradient id="id17" gradientUnits="objectBoundingBox" xlink:href="#id0" x1="0%" y1="0%" x2="98.5253%" y2="0%">
  </linearGradient>
  <linearGradient id="id18" gradientUnits="objectBoundingBox" xlink:href="#id0" x1="0%" y1="0%" x2="98.5259%" y2="0%">
  </linearGradient>
  <linearGradient id="id19" gradientUnits="userSpaceOnUse" xlink:href="#id0" x1="11834.91" y1="945.72" x2="12206.9" y2="920.65">
  </linearGradient>
  <linearGradient id="id20" gradientUnits="objectBoundingBox" xlink:href="#id0" x1="0%" y1="0%" x2="98.427%" y2="0%">
  </linearGradient>
  <linearGradient id="id21" gradientUnits="objectBoundingBox" xlink:href="#id0" x1="0%" y1="0%" x2="98.4265%" y2="0%">
  </linearGradient>
  <linearGradient id="id22" gradientUnits="objectBoundingBox" xlink:href="#id0" x1="0%" y1="0%" x2="98.5237%" y2="0%">
  </linearGradient>
  <linearGradient id="id23" gradientUnits="objectBoundingBox" xlink:href="#id0" x1="0%" y1="0%" x2="98.5272%" y2="0%">
  </linearGradient>
  <linearGradient id="id24" gradientUnits="objectBoundingBox" xlink:href="#id0" x1="0%" y1="0%" x2="98.3899%" y2="0%">
  </linearGradient>
  <linearGradient id="id25" gradientUnits="objectBoundingBox" xlink:href="#id0" x1="0%" y1="0%" x2="98.4976%" y2="0%">
  </linearGradient>
  <linearGradient id="id26" gradientUnits="objectBoundingBox" xlink:href="#id0" x1="0%" y1="0%" x2="98.429%" y2="0%">
  </linearGradient>
  <linearGradient id="id27" gradientUnits="objectBoundingBox" xlink:href="#id0" x1="0%" y1="0%" x2="98.5231%" y2="0%">
  </linearGradient>
  <linearGradient id="id28" gradientUnits="objectBoundingBox" xlink:href="#id0" x1="0%" y1="0%" x2="98.4867%" y2="0%">
  </linearGradient>
  <linearGradient id="id29" gradientUnits="objectBoundingBox" xlink:href="#id0" x1="0%" y1="0%" x2="98.5245%" y2="0%">
  </linearGradient>
  <linearGradient id="id30" gradientUnits="objectBoundingBox" xlink:href="#id0" x1="0%" y1="0%" x2="98.5234%" y2="0%">
  </linearGradient>
  <linearGradient id="id31" gradientUnits="objectBoundingBox" xlink:href="#id0" x1="0%" y1="0%" x2="98.4126%" y2="0%">
  </linearGradient>
  <linearGradient id="id32" gradientUnits="userSpaceOnUse" xlink:href="#id0" x1="11864.93" y1="2308.7" x2="12133.73" y2="2290.57">
  </linearGradient>
  <linearGradient id="id33" gradientUnits="objectBoundingBox" xlink:href="#id0" x1="0%" y1="0%" x2="98.4498%" y2="0%">
  </linearGradient>
  <linearGradient id="id34" gradientUnits="objectBoundingBox" xlink:href="#id0" x1="0%" y1="0%" x2="98.5255%" y2="0%">
  </linearGradient>
  <linearGradient id="id35" gradientUnits="objectBoundingBox" xlink:href="#id0" x1="0%" y1="0%" x2="98.5222%" y2="0%">
  </linearGradient>
  <linearGradient id="id36" gradientUnits="objectBoundingBox" xlink:href="#id0" x1="0%" y1="0%" x2="98.4475%" y2="0%">
  </linearGradient>
  <linearGradient id="id37" gradientUnits="objectBoundingBox" xlink:href="#id0" x1="0%" y1="0%" x2="98.5257%" y2="0%">
  </linearGradient>
  <linearGradient id="id38" gradientUnits="objectBoundingBox" xlink:href="#id0" x1="0%" y1="0%" x2="98.5245%" y2="0%">
  </linearGradient>
  <linearGradient id="id39" gradientUnits="objectBoundingBox" xlink:href="#id0" x1="0%" y1="0%" x2="98.3291%" y2="0%">
  </linearGradient>
  <linearGradient id="id40" gradientUnits="objectBoundingBox" xlink:href="#id0" x1="0%" y1="0%" x2="98.5233%" y2="0%">
  </linearGradient>
  <linearGradient id="id41" gradientUnits="objectBoundingBox" xlink:href="#id0" x1="0%" y1="0%" x2="98.3549%" y2="0%">
  </linearGradient>
  <linearGradient id="id42" gradientUnits="objectBoundingBox" xlink:href="#id0" x1="0%" y1="0%" x2="98.3247%" y2="0%">
  </linearGradient>
  <linearGradient id="id43" gradientUnits="objectBoundingBox" xlink:href="#id0" x1="0%" y1="0%" x2="98.5388%" y2="0%">
  </linearGradient>
  <linearGradient id="id44" gradientUnits="objectBoundingBox" xlink:href="#id0" x1="0%" y1="0%" x2="98.524%" y2="0%">
  </linearGradient>
  <linearGradient id="id45" gradientUnits="objectBoundingBox" xlink:href="#id0" x1="0%" y1="0%" x2="98.4264%" y2="0%">
  </linearGradient>
  <linearGradient id="id46" gradientUnits="objectBoundingBox" xlink:href="#id0" x1="0%" y1="0%" x2="98.4272%" y2="0%">
  </linearGradient>
  <linearGradient id="id47" gradientUnits="objectBoundingBox" xlink:href="#id0" x1="0%" y1="0%" x2="98.526%" y2="0%">
  </linearGradient>
  <linearGradient id="id48" gradientUnits="objectBoundingBox" xlink:href="#id0" x1="0%" y1="0%" x2="98.4958%" y2="0%">
  </linearGradient>
  <linearGradient id="id49" gradientUnits="objectBoundingBox" xlink:href="#id0" x1="0%" y1="0%" x2="98.5242%" y2="0%">
  </linearGradient>
  <linearGradient id="id50" gradientUnits="objectBoundingBox" xlink:href="#id0" x1="0%" y1="0%" x2="98.5265%" y2="0%">
  </linearGradient>
  <linearGradient id="id51" gradientUnits="objectBoundingBox" xlink:href="#id0" x1="0%" y1="0%" x2="98.5254%" y2="0%">
  </linearGradient>
 </defs>
 <g id="Слой_x0020_1">
  <metadata id="CorelCorpID_0Corel-Layer"/>
  <path class="fil0" d="M3391.56 170.29c0.16,0.05 56.73,19.23 153.77,9.59 97.8,-9.72 178.56,9.67 178.79,9.72l-0.9 3.64c-0.24,-0.05 -81.59,-7.79 -178.73,1.86 -97.9,9.73 -154.02,-21.23 -154.2,-21.28l1.28 -3.54 0 0z"/>
  <path class="fil1" d="M327.59 36.13c0.09,0.03 33.44,11.35 90.64,5.67 57.64,-5.74 105.23,5.69 105.38,5.72l-0.54 2.13c-0.14,-0.01 -48.09,-4.58 -105.34,1.08 -57.69,5.76 -90.77,-12.5 -90.88,-12.52l0.75 -2.08 0 0z"/>
  <path class="fil2" d="M2292.32 124.15c0.12,0.02 42.09,14.25 114.09,7.11 72.56,-7.21 132.48,7.19 132.66,7.22l-0.69 2.69c-0.17,-0.03 -60.54,-5.76 -132.61,1.37 -72.63,7.23 -114.27,-15.75 -114.4,-15.8l0.95 -2.6 0 0z"/>
  <path class="fil3" d="M1226.77 99.84c0.08,0.03 33.44,11.35 90.64,5.67 57.64,-5.72 105.23,5.7 105.38,5.72l-0.55 2.13c-0.14,0 -48.09,-4.57 -105.34,1.09 -57.69,5.76 -90.77,-12.5 -90.87,-12.53l0.75 -2.09 0 0z"/>
  <path class="fil4" d="M4817.84 153.63c0.18,0.07 63.96,21.68 173.38,10.82 110.27,-10.96 201.31,10.91 201.57,10.98l-1.04 4.09c-0.26,-0.05 -91.98,-8.78 -201.51,2.08 -110.36,10.97 -173.63,-23.92 -173.82,-23.98l1.42 -3.98 0 0z"/>
  <path class="fil5" d="M4261.47 542.03c0.18,0.05 63.95,21.7 173.37,10.82 110.27,-10.94 201.33,10.91 201.57,10.95l-1.03 4.13c-0.26,-0.07 -92,-8.79 -201.53,2.07 -110.35,10.97 -173.63,-23.93 -173.82,-23.99l1.44 -3.99 0 0z"/>
  <path class="fil6" d="M5992.36 74.42c0.18,0.07 63.96,21.7 173.38,10.82 110.25,-10.96 201.3,10.91 201.58,10.97l-1.04 4.1c-0.27,-0.05 -92,-8.79 -201.53,2.11 -110.36,10.95 -173.63,-23.94 -173.82,-24.01l1.43 -3.99 0 0z"/>
  <path class="fil7" d="M6091.23 750.12c0.17,0.05 63.95,21.68 173.35,10.81 110.28,-10.94 201.33,10.92 201.59,10.97l-1.05 4.11c-0.24,-0.07 -91.98,-8.8 -201.5,2.08 -110.37,10.98 -173.65,-23.94 -173.82,-23.99l1.43 -3.98 0 0z"/>
  <path class="fil8" d="M3054.08 673.37c0.19,0.06 63.97,21.71 173.37,10.82 110.27,-10.95 201.31,10.92 201.59,10.97l-1.06 4.12c-0.25,-0.07 -91.98,-8.8 -201.5,2.08 -110.36,10.98 -173.65,-23.92 -173.83,-23.99l1.43 -4 0 0z"/>
  <path class="fil9" d="M6913.36 656.91c0.19,0.08 63.98,21.69 173.39,10.82 110.25,-10.97 201.29,10.91 201.55,10.96l-1 4.11c-0.3,-0.05 -92,-8.77 -201.54,2.09 -110.36,10.95 -173.64,-23.94 -173.83,-23.99l1.44 -4 0 0z"/>
  <path class="fil10" d="M7977.62 85.92c0.12,0.03 39.04,13.22 105.82,6.59 67.31,-6.68 122.88,6.66 123.05,6.68l-0.64 2.5c-0.15,-0.01 -56.16,-5.36 -122.99,1.28 -67.36,6.69 -105.97,-14.62 -106.09,-14.65l0.86 -2.41 0 0z"/>
  <path class="fil11" d="M8411.71 507.4c0.19,0.07 63.96,21.69 173.37,10.82 110.28,-10.95 201.32,10.91 201.57,10.98l-1.03 4.09c-0.26,-0.05 -92.01,-8.78 -201.5,2.11 -110.39,10.98 -173.68,-23.94 -173.84,-23.99l1.43 -4 0 0z"/>
  <path class="fil12" d="M10140.79 657.6c0.18,0.04 46.25,15.66 125.32,7.81 79.7,-7.93 145.44,7.87 145.7,7.92l-0.8 2.97c-0.18,-0.04 -66.45,-6.36 -145.61,1.5 -79.79,7.91 -125.51,-17.29 -125.6,-17.32l0.98 -2.88 0 0z"/>
  <path class="fil13" d="M11764.55 832.44c0.18,0.06 63.95,21.71 173.36,10.83 110.2,-10.97 201.29,10.91 201.56,10.95l-1.07 4.12c-0.26,-0.07 -91.97,-8.81 -201.47,2.08 -110.39,10.98 -173.63,-23.92 -173.89,-23.99l1.51 -4 0 0z"/>
  <path class="fil14" d="M10823.12 30.06c0.09,0.01 34.69,11.74 93.93,5.84 59.77,-5.92 109.14,5.91 109.23,5.95l-0.53 2.23c-0.09,-0.05 -49.9,-4.78 -109.23,1.11 -59.77,5.96 -94.11,-12.98 -94.2,-13l0.8 -2.13 0 0z"/>
  <path class="fil15" d="M11564.78 302.84c0.17,0.05 46.25,15.68 125.32,7.81 79.61,-7.91 145.44,7.89 145.61,7.93l-0.71 2.98c-0.18,-0.03 -66.54,-6.36 -145.62,1.52 -79.78,7.9 -125.51,-17.31 -125.6,-17.36l0.99 -2.88 0 0z"/>
  <path class="fil16" d="M12011.03 0.02c0.17,0.06 46.25,15.68 125.32,7.81 79.61,-7.91 145.44,7.89 145.61,7.92l-0.71 2.98c-0.18,-0.03 -66.45,-6.36 -145.61,1.52 -79.79,7.91 -125.51,-17.3 -125.6,-17.36l0.98 -2.88 0 0z"/>
  <path class="fil17" d="M11400.4 1789.27c0.18,0.06 63.95,21.69 173.36,10.82 110.3,-10.97 201.29,10.91 201.56,10.96l-1.07 4.11c-0.17,-0.07 -91.97,-8.8 -201.47,2.08 -110.39,10.96 -173.63,-23.94 -173.8,-23.99l1.42 -3.99 0 0z"/>
  <path class="fil18" d="M10596.48 1234.43c0.17,0.05 63.95,21.69 173.36,10.78 110.3,-10.91 201.37,10.92 201.56,11l-0.98 4.12c-0.27,-0.07 -91.97,-8.81 -201.56,2.06 -110.39,10.97 -173.63,-23.91 -173.81,-23.97l1.43 -3.99 0 0z"/>
  <path class="fil19" d="M3737.9 2339.76c0.17,0.05 63.95,21.69 173.36,10.82 110.3,-10.95 201.29,10.92 201.56,10.97l-1.07 4.11c-0.18,-0.07 -91.97,-8.81 -201.47,2.08 -110.39,10.97 -173.63,-23.93 -173.81,-23.99l1.43 -3.99 0 0z"/>
  <path class="fil20" d="M8931.8 981.63c0.17,0.07 63.95,21.68 173.36,10.82 110.3,-10.98 201.29,10.92 201.56,10.98l-0.98 4.11c-0.27,-0.05 -92.07,-8.79 -201.56,2.08 -110.39,10.97 -173.63,-23.93 -173.81,-23.99l1.43 -3.99 0 0z"/>
  <path class="fil21" d="M7213.11 280.24c0.19,0.08 63.96,21.7 173.35,10.83 110.29,-10.97 201.32,10.91 201.57,10.97l-1.01 4.11c-0.27,-0.06 -92.01,-8.8 -201.52,2.1 -110.38,10.96 -173.64,-23.95 -173.82,-24.01l1.43 -4 0 0z"/>
  <path class="fil22" d="M8722.95 163.88c0.18,0.05 52.39,17.75 141.96,8.85 90.28,-8.99 164.81,8.93 165,8.97l-0.89 3.36c-0.18,-0.05 -75.25,-7.2 -164.91,1.71 -90.37,8.99 -142.14,-19.61 -142.32,-19.63l1.16 -3.26 0 0z"/>
  <path class="fil23" d="M9684.93 0c0.09,0.03 34.96,11.84 94.73,5.9 60.22,-5.98 110.03,5.96 110.12,6l-0.53 2.22c-0.18,-0.01 -50.26,-4.79 -110.12,1.16 -60.31,5.99 -94.9,-13.08 -94.99,-13.1l0.8 -2.17 0 0z"/>
  <path class="fil24" d="M7897.04 1062.16c0.19,0.08 63.98,21.69 173.39,10.82 110.25,-10.97 201.29,10.91 201.55,10.96l-1 4.11c-0.3,-0.06 -92,-8.78 -201.54,2.08 -110.36,10.96 -173.64,-23.94 -173.83,-23.99l1.44 -3.99 0 0z"/>
  <path class="fil25" d="M10380.1 1836.51c0.19,0.08 63.98,21.7 173.39,10.83 110.25,-10.97 201.29,10.91 201.55,10.95l-1 4.12c-0.3,-0.06 -92,-8.78 -201.54,2.08 -110.36,10.96 -173.64,-23.94 -173.83,-23.99l1.44 -4 0 0z"/>
  <path class="fil26" d="M10871.37 2460.57c0.2,0.08 63.98,21.69 173.39,10.82 110.25,-10.96 201.3,10.91 201.55,10.96l-1 4.12c-0.29,-0.06 -91.99,-8.78 -201.53,2.08 -110.36,10.96 -173.65,-23.94 -173.83,-23.99l1.43 -4 0 0z"/>
  <path class="fil27" d="M9535.36 2329.84c0.18,0.06 63.96,21.69 173.37,10.82 110.3,-10.97 201.28,10.91 201.56,10.96l-1.07 4.11c-0.18,-0.07 -91.97,-8.8 -201.47,2.08 -110.39,10.96 -173.62,-23.94 -173.8,-23.99l1.42 -3.99 0 0z"/>
  <path class="fil28" d="M8889.2 1905.94c0.16,0.05 56.73,19.23 153.77,9.59 97.8,-9.71 178.56,9.67 178.79,9.72l-0.9 3.64c-0.24,-0.05 -81.59,-7.79 -178.73,1.86 -97.9,9.73 -154.02,-21.22 -154.19,-21.28l1.27 -3.54 0 0z"/>
  <path class="fil29" d="M8082.46 2355.32c0.17,0.04 46.25,15.67 125.32,7.81 79.7,-7.92 145.44,7.88 145.7,7.93l-0.8 2.96c-0.18,-0.04 -66.45,-6.35 -145.61,1.5 -79.79,7.92 -125.51,-17.29 -125.6,-17.32l0.99 -2.88 0 0z"/>
  <path class="fil30" d="M7247.97 2106.56c0.18,0.04 46.25,15.66 125.33,7.8 79.69,-7.92 145.43,7.88 145.7,7.93l-0.8 2.96c-0.17,-0.04 -66.44,-6.35 -145.61,1.51 -79.78,7.91 -125.51,-17.3 -125.6,-17.33l0.98 -2.88 0 0z"/>
  <path class="fil31" d="M6530.96 2571.29c0.18,0.04 46.25,15.66 125.33,7.81 79.69,-7.93 145.43,7.87 145.7,7.92l-0.8 2.97c-0.17,-0.04 -66.45,-6.36 -145.61,1.5 -79.78,7.91 -125.51,-17.29 -125.6,-17.32l0.98 -2.88 0 0z"/>
  <path class="fil32" d="M6701.91 1650.12c0.18,0.04 46.25,15.67 125.33,7.81 79.69,-7.92 145.43,7.88 145.7,7.93l-0.8 2.96c-0.18,-0.04 -66.45,-6.35 -145.61,1.5 -79.78,7.92 -125.51,-17.29 -125.6,-17.32l0.98 -2.88 0 0z"/>
  <path class="fil33" d="M5936.12 1335.5c0.18,0.05 63.95,21.69 173.36,10.82 110.3,-10.95 201.29,10.92 201.56,10.97l-1.07 4.11c-0.17,-0.07 -91.97,-8.81 -201.47,2.08 -110.39,10.97 -173.63,-23.93 -173.8,-23.99l1.42 -3.99 0 0z"/>
  <path class="fil34" d="M5692.42 2061.36c0.16,0.05 56.73,19.23 153.78,9.59 97.8,-9.71 178.55,9.68 178.79,9.72l-0.91 3.64c-0.24,-0.05 -81.58,-7.79 -178.73,1.85 -97.9,9.74 -154.01,-21.22 -154.19,-21.27l1.27 -3.54 0 0z"/>
  <path class="fil35" d="M4693.89 1669.23c0.19,0.07 63.97,21.69 173.38,10.82 110.28,-10.95 201.31,10.91 201.57,10.98l-1.03 4.09c-0.27,-0.05 -92.01,-8.78 -201.51,2.11 -110.39,10.98 -173.67,-23.94 -173.84,-23.99l1.43 -4 0 0z"/>
  <path class="fil36" d="M5241.35 2474.99c0.18,0.04 46.25,15.66 125.32,7.8 79.7,-7.92 145.44,7.88 145.7,7.93l-0.8 2.96c-0.18,-0.04 -66.45,-6.35 -145.61,1.5 -79.79,7.92 -125.51,-17.29 -125.6,-17.32l0.98 -2.88 0 0z"/>
  <path class="fil37" d="M3824.2 1217.76c0.2,0.08 63.99,21.69 173.39,10.82 110.26,-10.97 201.3,10.91 201.56,10.96l-1 4.11c-0.3,-0.05 -92,-8.77 -201.54,2.09 -110.36,10.95 -173.64,-23.94 -173.83,-23.99l1.43 -4 0 0z"/>
  <path class="fil38" d="M3293.16 1621.07c0.12,0.03 39.04,13.22 105.82,6.59 67.31,-6.68 122.88,6.66 123.05,6.68l-0.64 2.5c-0.15,-0.01 -56.16,-5.35 -122.99,1.28 -67.36,6.69 -105.97,-14.62 -106.09,-14.65l0.86 -2.41 0 0z"/>
  <path class="fil39" d="M1778.03 504.82c0.08,0.03 33.44,11.35 90.64,5.67 57.64,-5.72 105.23,5.7 105.38,5.72l-0.55 2.13c-0.14,0 -48.09,-4.58 -105.34,1.09 -57.69,5.76 -90.77,-12.5 -90.87,-12.53l0.75 -2.09 0 0z"/>
  <path class="fil40" d="M819.52 654.6c0.19,0.06 63.96,21.71 173.36,10.82 110.27,-10.95 201.32,10.92 201.59,10.97l-1.06 4.12c-0.24,-0.07 -91.97,-8.8 -201.49,2.08 -110.36,10.98 -173.66,-23.92 -173.83,-23.99l1.43 -4 0 0z"/>
  <path class="fil41" d="M2329.42 936.43c0.18,0.04 46.25,15.66 125.33,7.81 79.69,-7.92 145.43,7.87 145.7,7.92l-0.8 2.97c-0.17,-0.04 -66.44,-6.35 -145.61,1.5 -79.78,7.92 -125.51,-17.29 -125.6,-17.32l0.98 -2.88 0 0z"/>
  <path class="fil42" d="M1.44 1065.85c0.18,0.07 63.96,21.69 173.37,10.82 110.28,-10.95 201.32,10.91 201.57,10.98l-1.03 4.09c-0.27,-0.05 -92.01,-8.77 -201.5,2.11 -110.39,10.98 -173.68,-23.93 -173.85,-23.98l1.44 -4.01 0 0z"/>
  <path class="fil43" d="M1355.8 1357.98c0.18,0.06 63.95,21.68 173.36,10.82 110.3,-10.98 201.29,10.92 201.56,10.98l-0.98 4.1c-0.26,-0.05 -92.07,-8.79 -201.56,2.08 -110.39,10.97 -173.63,-23.93 -173.8,-23.99l1.42 -3.98 0 0z"/>
  <path class="fil44" d="M2252.17 1740.94c0.18,0.04 46.25,15.67 125.32,7.81 79.7,-7.92 145.44,7.88 145.7,7.93l-0.8 2.96c-0.18,-0.04 -66.45,-6.35 -145.61,1.5 -79.79,7.92 -125.51,-17.29 -125.6,-17.32l0.98 -2.88 0 0z"/>
  <path class="fil45" d="M2812.29 2215.1c0.18,0.07 63.96,21.69 173.37,10.82 110.28,-10.95 201.32,10.91 201.57,10.98l-1.03 4.09c-0.27,-0.05 -92.01,-8.78 -201.5,2.11 -110.39,10.98 -173.68,-23.94 -173.85,-23.99l1.44 -4 0 0z"/>
  <path class="fil46" d="M1723.52 2520.5c0.19,0.08 63.98,21.69 173.39,10.82 110.25,-10.96 201.3,10.91 201.55,10.96l-1 4.12c-0.29,-0.06 -92,-8.78 -201.53,2.08 -110.36,10.96 -173.65,-23.94 -173.84,-23.99l1.44 -4 0 0z"/>
  <path class="fil47" d="M453.46 1650.12c0.2,0.08 63.99,21.69 173.39,10.82 110.25,-10.97 201.3,10.91 201.56,10.96l-1.01 4.11c-0.29,-0.06 -91.99,-8.77 -201.53,2.08 -110.36,10.96 -173.64,-23.94 -173.83,-23.98l1.43 -4 0 0z"/>
  <path class="fil48" d="M19.59 2335.24c0.2,0.08 63.99,21.69 173.39,10.82 110.25,-10.97 201.3,10.91 201.56,10.96l-1.01 4.11c-0.29,-0.05 -91.99,-8.77 -201.53,2.09 -110.36,10.95 -173.64,-23.94 -173.83,-23.99l1.43 -4 0 0z"/>
  <path class="fil49" d="M1302.8 2059.6c0.17,0.04 46.25,15.67 125.32,7.81 79.7,-7.92 145.44,7.87 145.7,7.92l-0.8 2.97c-0.18,-0.04 -66.45,-6.35 -145.61,1.5 -79.79,7.92 -125.51,-17.29 -125.6,-17.32l0.98 -2.88 0 0z"/>
  <path class="fil0" d="M3391.56 170.29c0.16,0.05 56.73,19.23 153.77,9.59 97.8,-9.72 178.56,9.67 178.79,9.72l-0.9 3.64c-0.24,-0.05 -81.59,-7.79 -178.73,1.86 -97.9,9.73 -154.02,-21.23 -154.2,-21.28l1.28 -3.54 0 0z"/>
  <path class="fil1" d="M327.59 36.13c0.09,0.03 33.44,11.35 90.64,5.67 57.64,-5.74 105.23,5.69 105.38,5.72l-0.54 2.13c-0.14,-0.01 -48.09,-4.58 -105.34,1.08 -57.69,5.76 -90.77,-12.5 -90.88,-12.52l0.75 -2.08 0 0z"/>
  <path class="fil2" d="M2292.32 124.15c0.12,0.02 42.09,14.25 114.09,7.11 72.56,-7.21 132.48,7.19 132.66,7.22l-0.69 2.69c-0.17,-0.03 -60.54,-5.76 -132.61,1.37 -72.63,7.23 -114.27,-15.75 -114.4,-15.8l0.95 -2.6 0 0z"/>
  <path class="fil3" d="M1226.77 99.84c0.08,0.03 33.44,11.35 90.64,5.67 57.64,-5.72 105.23,5.7 105.38,5.72l-0.55 2.13c-0.14,0 -48.09,-4.57 -105.34,1.09 -57.69,5.76 -90.77,-12.5 -90.87,-12.53l0.75 -2.09 0 0z"/>
  <path class="fil4" d="M4817.84 153.63c0.18,0.07 63.96,21.68 173.38,10.82 110.27,-10.96 201.31,10.91 201.57,10.98l-1.04 4.09c-0.26,-0.05 -91.98,-8.78 -201.51,2.08 -110.36,10.97 -173.63,-23.92 -173.82,-23.98l1.42 -3.98 0 0z"/>
  <path class="fil5" d="M4261.47 542.03c0.18,0.05 63.95,21.7 173.37,10.82 110.27,-10.94 201.33,10.91 201.57,10.95l-1.03 4.13c-0.26,-0.07 -92,-8.79 -201.53,2.07 -110.35,10.97 -173.63,-23.93 -173.82,-23.99l1.44 -3.99 0 0z"/>
  <path class="fil6" d="M5992.36 74.42c0.18,0.07 63.96,21.7 173.38,10.82 110.25,-10.96 201.3,10.91 201.58,10.97l-1.04 4.1c-0.27,-0.05 -92,-8.79 -201.53,2.11 -110.36,10.95 -173.63,-23.94 -173.82,-24.01l1.43 -3.99 0 0z"/>
  <path class="fil7" d="M6091.23 750.12c0.17,0.05 63.95,21.68 173.35,10.81 110.28,-10.94 201.33,10.92 201.59,10.97l-1.05 4.11c-0.24,-0.07 -91.98,-8.8 -201.5,2.08 -110.37,10.98 -173.65,-23.94 -173.82,-23.99l1.43 -3.98 0 0z"/>
  <path class="fil8" d="M3054.08 673.37c0.19,0.06 63.97,21.71 173.37,10.82 110.27,-10.95 201.31,10.92 201.59,10.97l-1.06 4.12c-0.25,-0.07 -91.98,-8.8 -201.5,2.08 -110.36,10.98 -173.65,-23.92 -173.83,-23.99l1.43 -4 0 0z"/>
  <path class="fil9" d="M6913.36 656.91c0.19,0.08 63.98,21.69 173.39,10.82 110.25,-10.97 201.29,10.91 201.55,10.96l-1 4.11c-0.3,-0.05 -92,-8.77 -201.54,2.09 -110.36,10.95 -173.64,-23.94 -173.83,-23.99l1.44 -4 0 0z"/>
  <path class="fil10" d="M7977.62 85.92c0.12,0.03 39.04,13.22 105.82,6.59 67.31,-6.68 122.88,6.66 123.05,6.68l-0.64 2.5c-0.15,-0.01 -56.16,-5.36 -122.99,1.28 -67.36,6.69 -105.97,-14.62 -106.09,-14.65l0.86 -2.41 0 0z"/>
  <path class="fil11" d="M8411.71 507.4c0.19,0.07 63.96,21.69 173.37,10.82 110.28,-10.95 201.32,10.91 201.57,10.98l-1.03 4.09c-0.26,-0.05 -92.01,-8.78 -201.5,2.11 -110.39,10.98 -173.68,-23.94 -173.84,-23.99l1.43 -4 0 0z"/>
  <path class="fil12" d="M10140.79 657.6c0.18,0.04 46.25,15.66 125.32,7.81 79.7,-7.93 145.44,7.87 145.7,7.92l-0.8 2.97c-0.18,-0.04 -66.45,-6.36 -145.61,1.5 -79.79,7.91 -125.51,-17.29 -125.6,-17.32l0.98 -2.88 0 0z"/>
  <path class="fil13" d="M11764.55 832.44c0.18,0.06 63.95,21.71 173.36,10.83 110.2,-10.97 201.29,10.91 201.56,10.95l-1.07 4.12c-0.26,-0.07 -91.97,-8.81 -201.47,2.08 -110.39,10.98 -173.63,-23.92 -173.89,-23.99l1.51 -4 0 0z"/>
  <path class="fil14" d="M10823.12 30.06c0.09,0.01 34.69,11.74 93.93,5.84 59.77,-5.92 109.14,5.91 109.23,5.95l-0.53 2.23c-0.09,-0.05 -49.9,-4.78 -109.23,1.11 -59.77,5.96 -94.11,-12.98 -94.2,-13l0.8 -2.13 0 0z"/>
  <path class="fil15" d="M11564.78 302.84c0.17,0.05 46.25,15.68 125.32,7.81 79.61,-7.91 145.44,7.89 145.61,7.93l-0.71 2.98c-0.18,-0.03 -66.54,-6.36 -145.62,1.52 -79.78,7.9 -125.51,-17.31 -125.6,-17.36l0.99 -2.88 0 0z"/>
  <path class="fil16" d="M12011.03 0.02c0.17,0.06 46.25,15.68 125.32,7.81 79.61,-7.91 145.44,7.89 145.61,7.92l-0.71 2.98c-0.18,-0.03 -66.45,-6.36 -145.61,1.52 -79.79,7.91 -125.51,-17.3 -125.6,-17.36l0.98 -2.88 0 0z"/>
  <path class="fil17" d="M11400.4 1789.27c0.18,0.06 63.95,21.69 173.36,10.82 110.3,-10.97 201.29,10.91 201.56,10.96l-1.07 4.11c-0.17,-0.07 -91.97,-8.8 -201.47,2.08 -110.39,10.96 -173.63,-23.94 -173.8,-23.99l1.42 -3.99 0 0z"/>
  <path class="fil18" d="M10596.48 1234.43c0.17,0.05 63.95,21.69 173.36,10.78 110.3,-10.91 201.37,10.92 201.56,11l-0.98 4.12c-0.27,-0.07 -91.97,-8.81 -201.56,2.06 -110.39,10.97 -173.63,-23.91 -173.81,-23.97l1.43 -3.99 0 0z"/>
  <path class="fil19" d="M3737.9 2339.76c0.17,0.05 63.95,21.69 173.36,10.82 110.3,-10.95 201.29,10.92 201.56,10.97l-1.07 4.11c-0.18,-0.07 -91.97,-8.81 -201.47,2.08 -110.39,10.97 -173.63,-23.93 -173.81,-23.99l1.43 -3.99 0 0z"/>
  <path class="fil20" d="M8931.8 981.63c0.17,0.07 63.95,21.68 173.36,10.82 110.3,-10.98 201.29,10.92 201.56,10.98l-0.98 4.11c-0.27,-0.05 -92.07,-8.79 -201.56,2.08 -110.39,10.97 -173.63,-23.93 -173.81,-23.99l1.43 -3.99 0 0z"/>
  <path class="fil21" d="M7213.11 280.24c0.19,0.08 63.96,21.7 173.35,10.83 110.29,-10.97 201.32,10.91 201.57,10.97l-1.01 4.11c-0.27,-0.06 -92.01,-8.8 -201.52,2.1 -110.38,10.96 -173.64,-23.95 -173.82,-24.01l1.43 -4 0 0z"/>
  <path class="fil22" d="M8722.95 163.88c0.18,0.05 52.39,17.75 141.96,8.85 90.28,-8.99 164.81,8.93 165,8.97l-0.89 3.36c-0.18,-0.05 -75.25,-7.2 -164.91,1.71 -90.37,8.99 -142.14,-19.61 -142.32,-19.63l1.16 -3.26 0 0z"/>
  <path class="fil23" d="M9684.93 0c0.09,0.03 34.96,11.84 94.73,5.9 60.22,-5.98 110.03,5.96 110.12,6l-0.53 2.22c-0.18,-0.01 -50.26,-4.79 -110.12,1.16 -60.31,5.99 -94.9,-13.08 -94.99,-13.1l0.8 -2.17 0 0z"/>
  <path class="fil24" d="M7897.04 1062.16c0.19,0.08 63.98,21.69 173.39,10.82 110.25,-10.97 201.29,10.91 201.55,10.96l-1 4.11c-0.3,-0.06 -92,-8.78 -201.54,2.08 -110.36,10.96 -173.64,-23.94 -173.83,-23.99l1.44 -3.99 0 0z"/>
  <path class="fil25" d="M10380.1 1836.51c0.19,0.08 63.98,21.7 173.39,10.83 110.25,-10.97 201.29,10.91 201.55,10.95l-1 4.12c-0.3,-0.06 -92,-8.78 -201.54,2.08 -110.36,10.96 -173.64,-23.94 -173.83,-23.99l1.44 -4 0 0z"/>
  <path class="fil26" d="M10871.37 2460.57c0.2,0.08 63.98,21.69 173.39,10.82 110.25,-10.96 201.3,10.91 201.55,10.96l-1 4.12c-0.29,-0.06 -91.99,-8.78 -201.53,2.08 -110.36,10.96 -173.65,-23.94 -173.83,-23.99l1.43 -4 0 0z"/>
  <path class="fil27" d="M9535.36 2329.84c0.18,0.06 63.96,21.69 173.37,10.82 110.3,-10.97 201.28,10.91 201.56,10.96l-1.07 4.11c-0.18,-0.07 -91.97,-8.8 -201.47,2.08 -110.39,10.96 -173.62,-23.94 -173.8,-23.99l1.42 -3.99 0 0z"/>
  <path class="fil28" d="M8889.2 1905.94c0.16,0.05 56.73,19.23 153.77,9.59 97.8,-9.71 178.56,9.67 178.79,9.72l-0.9 3.64c-0.24,-0.05 -81.59,-7.79 -178.73,1.86 -97.9,9.73 -154.02,-21.22 -154.19,-21.28l1.27 -3.54 0 0z"/>
  <path class="fil29" d="M8082.46 2355.32c0.17,0.04 46.25,15.67 125.32,7.81 79.7,-7.92 145.44,7.88 145.7,7.93l-0.8 2.96c-0.18,-0.04 -66.45,-6.35 -145.61,1.5 -79.79,7.92 -125.51,-17.29 -125.6,-17.32l0.99 -2.88 0 0z"/>
  <path class="fil30" d="M7247.97 2106.56c0.18,0.04 46.25,15.66 125.33,7.8 79.69,-7.92 145.43,7.88 145.7,7.93l-0.8 2.96c-0.17,-0.04 -66.44,-6.35 -145.61,1.51 -79.78,7.91 -125.51,-17.3 -125.6,-17.33l0.98 -2.88 0 0z"/>
  <path class="fil31" d="M6530.96 2571.29c0.18,0.04 46.25,15.66 125.33,7.81 79.69,-7.93 145.43,7.87 145.7,7.92l-0.8 2.97c-0.17,-0.04 -66.45,-6.36 -145.61,1.5 -79.78,7.91 -125.51,-17.29 -125.6,-17.32l0.98 -2.88 0 0z"/>
  <path class="fil32" d="M6701.91 1650.12c0.18,0.04 46.25,15.67 125.33,7.81 79.69,-7.92 145.43,7.88 145.7,7.93l-0.8 2.96c-0.18,-0.04 -66.45,-6.35 -145.61,1.5 -79.78,7.92 -125.51,-17.29 -125.6,-17.32l0.98 -2.88 0 0z"/>
  <path class="fil33" d="M5936.12 1335.5c0.18,0.05 63.95,21.69 173.36,10.82 110.3,-10.95 201.29,10.92 201.56,10.97l-1.07 4.11c-0.17,-0.07 -91.97,-8.81 -201.47,2.08 -110.39,10.97 -173.63,-23.93 -173.8,-23.99l1.42 -3.99 0 0z"/>
  <path class="fil34" d="M5692.42 2061.36c0.16,0.05 56.73,19.23 153.78,9.59 97.8,-9.71 178.55,9.68 178.79,9.72l-0.91 3.64c-0.24,-0.05 -81.58,-7.79 -178.73,1.85 -97.9,9.74 -154.01,-21.22 -154.19,-21.27l1.27 -3.54 0 0z"/>
  <path class="fil35" d="M4693.89 1669.23c0.19,0.07 63.97,21.69 173.38,10.82 110.28,-10.95 201.31,10.91 201.57,10.98l-1.03 4.09c-0.27,-0.05 -92.01,-8.78 -201.51,2.11 -110.39,10.98 -173.67,-23.94 -173.84,-23.99l1.43 -4 0 0z"/>
  <path class="fil36" d="M5241.35 2474.99c0.18,0.04 46.25,15.66 125.32,7.8 79.7,-7.92 145.44,7.88 145.7,7.93l-0.8 2.96c-0.18,-0.04 -66.45,-6.35 -145.61,1.5 -79.79,7.92 -125.51,-17.29 -125.6,-17.32l0.98 -2.88 0 0z"/>
  <path class="fil37" d="M3824.2 1217.76c0.2,0.08 63.99,21.69 173.39,10.82 110.26,-10.97 201.3,10.91 201.56,10.96l-1 4.11c-0.3,-0.05 -92,-8.77 -201.54,2.09 -110.36,10.95 -173.64,-23.94 -173.83,-23.99l1.43 -4 0 0z"/>
  <path class="fil38" d="M3293.16 1621.07c0.12,0.03 39.04,13.22 105.82,6.59 67.31,-6.68 122.88,6.66 123.05,6.68l-0.64 2.5c-0.15,-0.01 -56.16,-5.35 -122.99,1.28 -67.36,6.69 -105.97,-14.62 -106.09,-14.65l0.86 -2.41 0 0z"/>
  <path class="fil39" d="M1778.03 504.82c0.08,0.03 33.44,11.35 90.64,5.67 57.64,-5.72 105.23,5.7 105.38,5.72l-0.55 2.13c-0.14,0 -48.09,-4.58 -105.34,1.09 -57.69,5.76 -90.77,-12.5 -90.87,-12.53l0.75 -2.09 0 0z"/>
  <path class="fil40" d="M819.52 654.6c0.19,0.06 63.96,21.71 173.36,10.82 110.27,-10.95 201.32,10.92 201.59,10.97l-1.06 4.12c-0.24,-0.07 -91.97,-8.8 -201.49,2.08 -110.36,10.98 -173.66,-23.92 -173.83,-23.99l1.43 -4 0 0z"/>
  <path class="fil41" d="M2329.42 936.43c0.18,0.04 46.25,15.66 125.33,7.81 79.69,-7.92 145.43,7.87 145.7,7.92l-0.8 2.97c-0.17,-0.04 -66.44,-6.35 -145.61,1.5 -79.78,7.92 -125.51,-17.29 -125.6,-17.32l0.98 -2.88 0 0z"/>
  <path class="fil42" d="M1.44 1065.85c0.18,0.07 63.96,21.69 173.37,10.82 110.28,-10.95 201.32,10.91 201.57,10.98l-1.03 4.09c-0.27,-0.05 -92.01,-8.77 -201.5,2.11 -110.39,10.98 -173.68,-23.93 -173.85,-23.98l1.44 -4.01 0 0z"/>
  <path class="fil43" d="M1355.8 1357.98c0.18,0.06 63.95,21.68 173.36,10.82 110.3,-10.98 201.29,10.92 201.56,10.98l-0.98 4.1c-0.26,-0.05 -92.07,-8.79 -201.56,2.08 -110.39,10.97 -173.63,-23.93 -173.8,-23.99l1.42 -3.98 0 0z"/>
  <path class="fil44" d="M2252.17 1740.94c0.18,0.04 46.25,15.67 125.32,7.81 79.7,-7.92 145.44,7.88 145.7,7.93l-0.8 2.96c-0.18,-0.04 -66.45,-6.35 -145.61,1.5 -79.79,7.92 -125.51,-17.29 -125.6,-17.32l0.98 -2.88 0 0z"/>
  <path class="fil45" d="M2812.29 2215.1c0.18,0.07 63.96,21.69 173.37,10.82 110.28,-10.95 201.32,10.91 201.57,10.98l-1.03 4.09c-0.27,-0.05 -92.01,-8.78 -201.5,2.11 -110.39,10.98 -173.68,-23.94 -173.85,-23.99l1.44 -4 0 0z"/>
  <path class="fil46" d="M1723.52 2520.5c0.19,0.08 63.98,21.69 173.39,10.82 110.25,-10.96 201.3,10.91 201.55,10.96l-1 4.12c-0.29,-0.06 -92,-8.78 -201.53,2.08 -110.36,10.96 -173.65,-23.94 -173.84,-23.99l1.44 -4 0 0z"/>
  <path class="fil47" d="M453.46 1650.12c0.2,0.08 63.99,21.69 173.39,10.82 110.25,-10.97 201.3,10.91 201.56,10.96l-1.01 4.11c-0.29,-0.06 -91.99,-8.77 -201.53,2.08 -110.36,10.96 -173.64,-23.94 -173.83,-23.98l1.43 -4 0 0z"/>
  <path class="fil48" d="M19.59 2335.24c0.2,0.08 63.99,21.69 173.39,10.82 110.25,-10.97 201.3,10.91 201.56,10.96l-1.01 4.11c-0.29,-0.05 -91.99,-8.77 -201.53,2.09 -110.36,10.95 -173.64,-23.94 -173.83,-23.99l1.43 -4 0 0z"/>
  <path class="fil49" d="M1302.8 2059.6c0.17,0.04 46.25,15.67 125.32,7.81 79.7,-7.92 145.44,7.87 145.7,7.92l-0.8 2.97c-0.18,-0.04 -66.45,-6.35 -145.61,1.5 -79.79,7.92 -125.51,-17.29 -125.6,-17.32l0.98 -2.88 0 0z"/>
  <path class="fil0" d="M3391.56 170.29c0.16,0.05 56.73,19.23 153.77,9.59 97.8,-9.72 178.56,9.67 178.79,9.72l-0.9 3.64c-0.24,-0.05 -81.59,-7.79 -178.73,1.86 -97.9,9.73 -154.02,-21.23 -154.2,-21.28l1.28 -3.54 0 0z"/>
  <path class="fil1" d="M327.59 36.13c0.09,0.03 33.44,11.35 90.64,5.67 57.64,-5.74 105.23,5.69 105.38,5.72l-0.54 2.13c-0.14,-0.01 -48.09,-4.58 -105.34,1.08 -57.69,5.76 -90.77,-12.5 -90.88,-12.52l0.75 -2.08 0 0z"/>
  <path class="fil2" d="M2292.32 124.15c0.12,0.02 42.09,14.25 114.09,7.11 72.56,-7.21 132.48,7.19 132.66,7.22l-0.69 2.69c-0.17,-0.03 -60.54,-5.76 -132.61,1.37 -72.63,7.23 -114.27,-15.75 -114.4,-15.8l0.95 -2.6 0 0z"/>
  <path class="fil3" d="M1226.77 99.84c0.08,0.03 33.44,11.35 90.64,5.67 57.64,-5.72 105.23,5.7 105.38,5.72l-0.55 2.13c-0.14,0 -48.09,-4.57 -105.34,1.09 -57.69,5.76 -90.77,-12.5 -90.87,-12.53l0.75 -2.09 0 0z"/>
  <path class="fil4" d="M4817.84 153.63c0.18,0.07 63.96,21.68 173.38,10.82 110.27,-10.96 201.31,10.91 201.57,10.98l-1.04 4.09c-0.26,-0.05 -91.98,-8.78 -201.51,2.08 -110.36,10.97 -173.63,-23.92 -173.82,-23.98l1.42 -3.98 0 0z"/>
  <path class="fil5" d="M4261.47 542.03c0.18,0.05 63.95,21.7 173.37,10.82 110.27,-10.94 201.33,10.91 201.57,10.95l-1.03 4.13c-0.26,-0.07 -92,-8.79 -201.53,2.07 -110.35,10.97 -173.63,-23.93 -173.82,-23.99l1.44 -3.99 0 0z"/>
  <path class="fil6" d="M5992.36 74.42c0.18,0.07 63.96,21.7 173.38,10.82 110.25,-10.96 201.3,10.91 201.58,10.97l-1.04 4.1c-0.27,-0.05 -92,-8.79 -201.53,2.11 -110.36,10.95 -173.63,-23.94 -173.82,-24.01l1.43 -3.99 0 0z"/>
  <path class="fil7" d="M6091.23 750.12c0.17,0.05 63.95,21.68 173.35,10.81 110.28,-10.94 201.33,10.92 201.59,10.97l-1.05 4.11c-0.24,-0.07 -91.98,-8.8 -201.5,2.08 -110.37,10.98 -173.65,-23.94 -173.82,-23.99l1.43 -3.98 0 0z"/>
  <path class="fil8" d="M3054.08 673.37c0.19,0.06 63.97,21.71 173.37,10.82 110.27,-10.95 201.31,10.92 201.59,10.97l-1.06 4.12c-0.25,-0.07 -91.98,-8.8 -201.5,2.08 -110.36,10.98 -173.65,-23.92 -173.83,-23.99l1.43 -4 0 0z"/>
  <path class="fil9" d="M6913.36 656.91c0.19,0.08 63.98,21.69 173.39,10.82 110.25,-10.97 201.29,10.91 201.55,10.96l-1 4.11c-0.3,-0.05 -92,-8.77 -201.54,2.09 -110.36,10.95 -173.64,-23.94 -173.83,-23.99l1.44 -4 0 0z"/>
  <path class="fil10" d="M7977.62 85.92c0.12,0.03 39.04,13.22 105.82,6.59 67.31,-6.68 122.88,6.66 123.05,6.68l-0.64 2.5c-0.15,-0.01 -56.16,-5.36 -122.99,1.28 -67.36,6.69 -105.97,-14.62 -106.09,-14.65l0.86 -2.41 0 0z"/>
  <path class="fil11" d="M8411.71 507.4c0.19,0.07 63.96,21.69 173.37,10.82 110.28,-10.95 201.32,10.91 201.57,10.98l-1.03 4.09c-0.26,-0.05 -92.01,-8.78 -201.5,2.11 -110.39,10.98 -173.68,-23.94 -173.84,-23.99l1.43 -4 0 0z"/>
  <path class="fil12" d="M10140.79 657.6c0.18,0.04 46.25,15.66 125.32,7.81 79.7,-7.93 145.44,7.87 145.7,7.92l-0.8 2.97c-0.18,-0.04 -66.45,-6.36 -145.61,1.5 -79.79,7.91 -125.51,-17.29 -125.6,-17.32l0.98 -2.88 0 0z"/>
  <path class="fil50" d="M11837.53 952.65c0.18,0.06 63.95,21.71 173.36,10.83 110.2,-10.97 201.29,10.91 201.56,10.95l-1.07 4.12c-0.26,-0.07 -91.97,-8.81 -201.47,2.08 -110.39,10.98 -173.63,-23.92 -173.89,-23.99l1.51 -4 0 0z"/>
  <path class="fil14" d="M10823.12 30.06c0.09,0.01 34.69,11.74 93.93,5.84 59.77,-5.92 109.14,5.91 109.23,5.95l-0.53 2.23c-0.09,-0.05 -49.9,-4.78 -109.23,1.11 -59.77,5.96 -94.11,-12.98 -94.2,-13l0.8 -2.13 0 0z"/>
  <path class="fil15" d="M11564.78 302.84c0.17,0.05 46.25,15.68 125.32,7.81 79.61,-7.91 145.44,7.89 145.61,7.93l-0.71 2.98c-0.18,-0.03 -66.54,-6.36 -145.62,1.52 -79.78,7.9 -125.51,-17.31 -125.6,-17.36l0.99 -2.88 0 0z"/>
  <path class="fil16" d="M12011.03 0.02c0.17,0.06 46.25,15.68 125.32,7.81 79.61,-7.91 145.44,7.89 145.61,7.92l-0.71 2.98c-0.18,-0.03 -66.45,-6.36 -145.61,1.52 -79.79,7.91 -125.51,-17.3 -125.6,-17.36l0.98 -2.88 0 0z"/>
  <path class="fil17" d="M11400.4 1789.27c0.18,0.06 63.95,21.69 173.36,10.82 110.3,-10.97 201.29,10.91 201.56,10.96l-1.07 4.11c-0.17,-0.07 -91.97,-8.8 -201.47,2.08 -110.39,10.96 -173.63,-23.94 -173.8,-23.99l1.42 -3.99 0 0z"/>
  <path class="fil18" d="M10596.48 1234.43c0.17,0.05 63.95,21.69 173.36,10.78 110.3,-10.91 201.37,10.92 201.56,11l-0.98 4.12c-0.27,-0.07 -91.97,-8.81 -201.56,2.06 -110.39,10.97 -173.63,-23.91 -173.81,-23.97l1.43 -3.99 0 0z"/>
  <path class="fil19" d="M3737.9 2339.76c0.17,0.05 63.95,21.69 173.36,10.82 110.3,-10.95 201.29,10.92 201.56,10.97l-1.07 4.11c-0.18,-0.07 -91.97,-8.81 -201.47,2.08 -110.39,10.97 -173.63,-23.93 -173.81,-23.99l1.43 -3.99 0 0z"/>
  <path class="fil20" d="M8931.8 981.63c0.17,0.07 63.95,21.68 173.36,10.82 110.3,-10.98 201.29,10.92 201.56,10.98l-0.98 4.11c-0.27,-0.05 -92.07,-8.79 -201.56,2.08 -110.39,10.97 -173.63,-23.93 -173.81,-23.99l1.43 -3.99 0 0z"/>
  <path class="fil21" d="M7213.11 280.24c0.19,0.08 63.96,21.7 173.35,10.83 110.29,-10.97 201.32,10.91 201.57,10.97l-1.01 4.11c-0.27,-0.06 -92.01,-8.8 -201.52,2.1 -110.38,10.96 -173.64,-23.95 -173.82,-24.01l1.43 -4 0 0z"/>
  <path class="fil22" d="M8722.95 163.88c0.18,0.05 52.39,17.75 141.96,8.85 90.28,-8.99 164.81,8.93 165,8.97l-0.89 3.36c-0.18,-0.05 -75.25,-7.2 -164.91,1.71 -90.37,8.99 -142.14,-19.61 -142.32,-19.63l1.16 -3.26 0 0z"/>
  <path class="fil23" d="M9684.93 0c0.09,0.03 34.96,11.84 94.73,5.9 60.22,-5.98 110.03,5.96 110.12,6l-0.53 2.22c-0.18,-0.01 -50.26,-4.79 -110.12,1.16 -60.31,5.99 -94.9,-13.08 -94.99,-13.1l0.8 -2.17 0 0z"/>
  <path class="fil24" d="M7897.04 1062.16c0.19,0.08 63.98,21.69 173.39,10.82 110.25,-10.97 201.29,10.91 201.55,10.96l-1 4.11c-0.3,-0.06 -92,-8.78 -201.54,2.08 -110.36,10.96 -173.64,-23.94 -173.83,-23.99l1.44 -3.99 0 0z"/>
  <path class="fil25" d="M10380.1 1836.51c0.19,0.08 63.98,21.7 173.39,10.83 110.25,-10.97 201.29,10.91 201.55,10.95l-1 4.12c-0.3,-0.06 -92,-8.78 -201.54,2.08 -110.36,10.96 -173.64,-23.94 -173.83,-23.99l1.44 -4 0 0z"/>
  <path class="fil26" d="M10871.37 2460.57c0.2,0.08 63.98,21.69 173.39,10.82 110.25,-10.96 201.3,10.91 201.55,10.96l-1 4.12c-0.29,-0.06 -91.99,-8.78 -201.53,2.08 -110.36,10.96 -173.65,-23.94 -173.83,-23.99l1.43 -4 0 0z"/>
  <path class="fil27" d="M9535.36 2329.84c0.18,0.06 63.96,21.69 173.37,10.82 110.3,-10.97 201.28,10.91 201.56,10.96l-1.07 4.11c-0.18,-0.07 -91.97,-8.8 -201.47,2.08 -110.39,10.96 -173.62,-23.94 -173.8,-23.99l1.42 -3.99 0 0z"/>
  <path class="fil28" d="M8889.2 1905.94c0.16,0.05 56.73,19.23 153.77,9.59 97.8,-9.71 178.56,9.67 178.79,9.72l-0.9 3.64c-0.24,-0.05 -81.59,-7.79 -178.73,1.86 -97.9,9.73 -154.02,-21.22 -154.19,-21.28l1.27 -3.54 0 0z"/>
  <path class="fil29" d="M8082.46 2355.32c0.17,0.04 46.25,15.67 125.32,7.81 79.7,-7.92 145.44,7.88 145.7,7.93l-0.8 2.96c-0.18,-0.04 -66.45,-6.35 -145.61,1.5 -79.79,7.92 -125.51,-17.29 -125.6,-17.32l0.99 -2.88 0 0z"/>
  <path class="fil30" d="M7247.97 2106.56c0.18,0.04 46.25,15.66 125.33,7.8 79.69,-7.92 145.43,7.88 145.7,7.93l-0.8 2.96c-0.17,-0.04 -66.44,-6.35 -145.61,1.51 -79.78,7.91 -125.51,-17.3 -125.6,-17.33l0.98 -2.88 0 0z"/>
  <path class="fil31" d="M6530.96 2571.29c0.18,0.04 46.25,15.66 125.33,7.81 79.69,-7.93 145.43,7.87 145.7,7.92l-0.8 2.97c-0.17,-0.04 -66.45,-6.36 -145.61,1.5 -79.78,7.91 -125.51,-17.29 -125.6,-17.32l0.98 -2.88 0 0z"/>
  <path class="fil32" d="M6701.91 1650.12c0.18,0.04 46.25,15.67 125.33,7.81 79.69,-7.92 145.43,7.88 145.7,7.93l-0.8 2.96c-0.18,-0.04 -66.45,-6.35 -145.61,1.5 -79.78,7.92 -125.51,-17.29 -125.6,-17.32l0.98 -2.88 0 0z"/>
  <path class="fil33" d="M5936.12 1335.5c0.18,0.05 63.95,21.69 173.36,10.82 110.3,-10.95 201.29,10.92 201.56,10.97l-1.07 4.11c-0.17,-0.07 -91.97,-8.81 -201.47,2.08 -110.39,10.97 -173.63,-23.93 -173.8,-23.99l1.42 -3.99 0 0z"/>
  <path class="fil34" d="M5692.42 2061.36c0.16,0.05 56.73,19.23 153.78,9.59 97.8,-9.71 178.55,9.68 178.79,9.72l-0.91 3.64c-0.24,-0.05 -81.58,-7.79 -178.73,1.85 -97.9,9.74 -154.01,-21.22 -154.19,-21.27l1.27 -3.54 0 0z"/>
  <path class="fil35" d="M4693.89 1669.23c0.19,0.07 63.97,21.69 173.38,10.82 110.28,-10.95 201.31,10.91 201.57,10.98l-1.03 4.09c-0.27,-0.05 -92.01,-8.78 -201.51,2.11 -110.39,10.98 -173.67,-23.94 -173.84,-23.99l1.43 -4 0 0z"/>
  <path class="fil36" d="M5241.35 2474.99c0.18,0.04 46.25,15.66 125.32,7.8 79.7,-7.92 145.44,7.88 145.7,7.93l-0.8 2.96c-0.18,-0.04 -66.45,-6.35 -145.61,1.5 -79.79,7.92 -125.51,-17.29 -125.6,-17.32l0.98 -2.88 0 0z"/>
  <path class="fil37" d="M3824.2 1217.76c0.2,0.08 63.99,21.69 173.39,10.82 110.26,-10.97 201.3,10.91 201.56,10.96l-1 4.11c-0.3,-0.05 -92,-8.77 -201.54,2.09 -110.36,10.95 -173.64,-23.94 -173.83,-23.99l1.43 -4 0 0z"/>
  <path class="fil38" d="M3293.16 1621.07c0.12,0.03 39.04,13.22 105.82,6.59 67.31,-6.68 122.88,6.66 123.05,6.68l-0.64 2.5c-0.15,-0.01 -56.16,-5.35 -122.99,1.28 -67.36,6.69 -105.97,-14.62 -106.09,-14.65l0.86 -2.41 0 0z"/>
  <path class="fil39" d="M1778.03 504.82c0.08,0.03 33.44,11.35 90.64,5.67 57.64,-5.72 105.23,5.7 105.38,5.72l-0.55 2.13c-0.14,0 -48.09,-4.58 -105.34,1.09 -57.69,5.76 -90.77,-12.5 -90.87,-12.53l0.75 -2.09 0 0z"/>
  <path class="fil40" d="M819.52 654.6c0.19,0.06 63.96,21.71 173.36,10.82 110.27,-10.95 201.32,10.92 201.59,10.97l-1.06 4.12c-0.24,-0.07 -91.97,-8.8 -201.49,2.08 -110.36,10.98 -173.66,-23.92 -173.83,-23.99l1.43 -4 0 0z"/>
  <path class="fil41" d="M2329.42 936.43c0.18,0.04 46.25,15.66 125.33,7.81 79.69,-7.92 145.43,7.87 145.7,7.92l-0.8 2.97c-0.17,-0.04 -66.44,-6.35 -145.61,1.5 -79.78,7.92 -125.51,-17.29 -125.6,-17.32l0.98 -2.88 0 0z"/>
  <path class="fil42" d="M1.44 1065.85c0.18,0.07 63.96,21.69 173.37,10.82 110.28,-10.95 201.32,10.91 201.57,10.98l-1.03 4.09c-0.27,-0.05 -92.01,-8.77 -201.5,2.11 -110.39,10.98 -173.68,-23.93 -173.85,-23.98l1.44 -4.01 0 0z"/>
  <path class="fil43" d="M1355.8 1357.98c0.18,0.06 63.95,21.68 173.36,10.82 110.3,-10.98 201.29,10.92 201.56,10.98l-0.98 4.1c-0.26,-0.05 -92.07,-8.79 -201.56,2.08 -110.39,10.97 -173.63,-23.93 -173.8,-23.99l1.42 -3.98 0 0z"/>
  <path class="fil44" d="M2252.17 1740.94c0.18,0.04 46.25,15.67 125.32,7.81 79.7,-7.92 145.44,7.88 145.7,7.93l-0.8 2.96c-0.18,-0.04 -66.45,-6.35 -145.61,1.5 -79.79,7.92 -125.51,-17.29 -125.6,-17.32l0.98 -2.88 0 0z"/>
  <path class="fil45" d="M2812.29 2215.1c0.18,0.07 63.96,21.69 173.37,10.82 110.28,-10.95 201.32,10.91 201.57,10.98l-1.03 4.09c-0.27,-0.05 -92.01,-8.78 -201.5,2.11 -110.39,10.98 -173.68,-23.94 -173.85,-23.99l1.44 -4 0 0z"/>
  <path class="fil46" d="M1723.52 2520.5c0.19,0.08 63.98,21.69 173.39,10.82 110.25,-10.96 201.3,10.91 201.55,10.96l-1 4.12c-0.29,-0.06 -92,-8.78 -201.53,2.08 -110.36,10.96 -173.65,-23.94 -173.84,-23.99l1.44 -4 0 0z"/>
  <path class="fil47" d="M453.46 1650.12c0.2,0.08 63.99,21.69 173.39,10.82 110.25,-10.97 201.3,10.91 201.56,10.96l-1.01 4.11c-0.29,-0.06 -91.99,-8.77 -201.53,2.08 -110.36,10.96 -173.64,-23.94 -173.83,-23.98l1.43 -4 0 0z"/>
  <path class="fil48" d="M19.59 2335.24c0.2,0.08 63.99,21.69 173.39,10.82 110.25,-10.97 201.3,10.91 201.56,10.96l-1.01 4.11c-0.29,-0.05 -91.99,-8.77 -201.53,2.09 -110.36,10.95 -173.64,-23.94 -173.83,-23.99l1.43 -4 0 0z"/>
  <path class="fil49" d="M1302.8 2059.6c0.17,0.04 46.25,15.67 125.32,7.81 79.7,-7.92 145.44,7.87 145.7,7.92l-0.8 2.97c-0.18,-0.04 -66.45,-6.35 -145.61,1.5 -79.79,7.92 -125.51,-17.29 -125.6,-17.32l0.98 -2.88 0 0z"/>
  <path class="fil51" d="M11867.01 2315.71c0.17,0.05 46.25,15.68 125.32,7.81 79.61,-7.91 145.44,7.89 145.61,7.93l-0.71 2.98c-0.18,-0.03 -66.54,-6.36 -145.62,1.52 -79.78,7.9 -125.51,-17.31 -125.6,-17.36l0.99 -2.88 0 0z"/>
 </g>
</svg>
