<?xml version="1.0" encoding="UTF-8"?>

<!DOCTYPE svg PUBLIC "-//W3C//DTD SVG 1.1//EN" "http://www.w3.org/Graphics/SVG/1.1/DTD/svg11.dtd">
<!-- Creator: CorelDRAW 2018 (64-Bit) -->
<svg xmlns="http://www.w3.org/2000/svg" xml:space="preserve" width="242.321mm" height="45.9862mm" version="1.1" style="shape-rendering:geometricPrecision; text-rendering:geometricPrecision; image-rendering:optimizeQuality; fill-rule:evenodd; clip-rule:evenodd"
viewBox="0 0 37436.67 7104.49"
 xmlns:xlink="http://www.w3.org/1999/xlink">
 <defs>
  <style type="text/css">
   <![CDATA[
    .fil1 {fill:url(#id0)}
    .fil0 {fill:url(#id1)}
   ]]>
  </style>
  <linearGradient id="id0" gradientUnits="userSpaceOnUse" x1="-316.91" y1="4528.11" x2="158.26" y2="8445.97">
   <stop offset="0" style="stop-opacity:1; stop-color:#59B0E3"/>
   <stop offset="0.839216" style="stop-opacity:1; stop-color:#ABD7F0"/>
   <stop offset="1" style="stop-opacity:1; stop-color:#FEFEFE"/>
  </linearGradient>
  <linearGradient id="id1" gradientUnits="userSpaceOnUse" xlink:href="#id0" x1="37473.59" y1="34.44" x2="37473.53" y2="6665.7">
  </linearGradient>
 </defs>
 <g id="Слой_x0020_1">
  <metadata id="CorelCorpID_0Corel-Layer"/>
  <g id="_1963004002944">
   <path class="fil0" d="M6668.76 4779.62c-1274.25,-150.91 4282.83,166.88 5099.99,-580.61 817.21,-747.46 1565,-1270.9 2249.52,-737.61 684.71,533.35 -178.56,-928.46 -49.98,-1299.83 351.33,-1014.64 1574.43,-21.57 1812.68,-89.39 238.24,-67.79 241.5,-1189.79 800.28,-1451.93 805.74,-378.01 1247.88,-462.47 1630.91,-145.33 383.14,317.17 725.46,583.86 725.46,583.86 0,0 -123.84,-1018.84 851.03,-1056.4 974.89,-37.57 1847.35,375.6 2453.68,844.37 327.57,253.18 -217.86,763.33 -3.4,924.39 214.47,160.98 918.1,511.35 1979.64,529.04 1061.5,17.66 1550.7,207.03 1727.26,734.01 176.21,526.92 879.78,877.34 879.78,877.34 0,0 149.59,339.19 1960.45,711.96 1811.11,372.87 5017.89,659.36 6303.52,746.47 1285.66,87.1 2347.05,104.76 2347.05,104.76 0,0 -6402.88,214.25 -6942.36,65.78 0,0 3732.15,572.07 4382.02,547.07 0,0 -4270.29,158.11 -6302,132.26 -2031.78,-25.78 -8732.94,388.81 -10092.71,571.31 -1359.77,182.55 -4463.81,-648.14 -7155.11,-557.36 -2691.31,90.73 -5019.53,-196.96 -6442.4,-298.39 -1422.82,-101.44 3620.25,-133.08 4879.2,-233.67 1258.81,-100.56 1607.49,-341.8 -753.87,-309.4 -2361.54,32.44 -3064.96,-317.94 -3064.96,-317.94 0,0 3875.8,78.42 724.29,-294.77z"/>
   <path class="fil1" d="M17188.18 5577.94c708.41,-120.33 -2390.56,214.03 -2868.63,-180.97 -478.15,-395.04 -911.18,-666.68 -1278.99,-349.14 -367.86,317.57 14.88,-509.58 -8.62,-728.35 -39.43,-367.15 -163.19,-105.87 -526.97,-205.04 -133.76,-36.57 -354.17,237.33 -489.31,206.11 -135.12,-31.16 -22.19,-961.96 -353.09,-862.28 -431.91,130.04 -846.37,-150.66 -1051.72,37.51 -205.27,188.19 -389.2,346.97 -389.2,346.97 0,0 40.57,-573.3 -505.74,-566.8 -546.34,6.41 -1022.55,262.08 -1348.53,541.42 -176.09,150.83 143.38,420.73 27.95,516.82 -115.41,96.11 -499.05,311.89 -1092.23,351.73 -593.22,39.77 -861.4,159.48 -945.27,459.18 -83.81,299.7 -467.37,515.48 -467.37,515.48 0,0 -74.17,193.89 -1076.37,453.45 -1002.36,259.58 -2787.82,510.19 -3504.38,595.13 -716.44,84.94 -1309.7,124.72 -1309.7,124.72 0,0 3587.05,-60.65 3884.56,-158.83 0,0 -2071.1,425.1 -2435.36,429.44 0,0 2392.78,-31.92 3528.36,-103.65 1135.51,-71.7 4895.07,-28.72 5660.7,35.05 765.63,63.77 2478.26,-488.29 3985.92,-513.44 1507.76,-25.06 2801.78,-251.61 3594.7,-348.44 792.9,-96.84 -2028.49,27.62 -2735.34,6.86 -706.92,-20.76 -908.77,-145.87 412.88,-194.29 1321.65,-48.42 1705.16,-264.2 1705.16,-264.2 0,0 -2165.4,153.05 -413.39,-144.45z"/>
  </g>
 </g>
</svg>
